<svg width="51" height="51" viewBox="0 0 51 51" fill="none" xmlns="http://www.w3.org/2000/svg">
<path d="M9.66534 30.6604C10.1351 30.6604 10.5943 30.5211 10.9848 30.2601C11.3754 29.9991 11.6798 29.6282 11.8596 29.1942C12.0393 28.7602 12.0863 28.2827 11.9947 27.8221C11.9031 27.3613 11.6768 26.9381 11.3448 26.606C11.0126 26.2739 10.5894 26.0476 10.1287 25.9561C9.66801 25.8644 9.19042 25.9114 8.75649 26.0911C8.32252 26.2709 7.9516 26.5753 7.69063 26.9659C7.42967 27.3565 7.29037 27.8156 7.29037 28.2854C7.29037 28.9152 7.54059 29.5193 7.98599 29.9647C8.43138 30.4101 9.03551 30.6604 9.66534 30.6604ZM9.66534 27.4937C9.82192 27.4937 9.97501 27.5401 10.1052 27.6271C10.2353 27.7141 10.3368 27.8377 10.3968 27.9824C10.4567 28.1271 10.4723 28.2862 10.4418 28.4398C10.4113 28.5934 10.3358 28.7345 10.2252 28.8451C10.1144 28.9559 9.97334 29.0313 9.81984 29.0618C9.66626 29.0924 9.50709 29.0767 9.36242 29.0168C9.21776 28.9568 9.09409 28.8554 9.00709 28.7252C8.92009 28.595 8.87367 28.442 8.87367 28.2854C8.87367 28.0754 8.95709 27.8741 9.10559 27.7256C9.25401 27.5771 9.45542 27.4937 9.66534 27.4937Z" fill="#86BB46"/>
<path d="M16 30.6604C16.4698 30.6604 16.9289 30.5211 17.3194 30.2601C17.71 29.9991 18.0144 29.6282 18.1942 29.1942C18.3739 28.7602 18.421 28.2827 18.3293 27.8221C18.2377 27.3613 18.0115 26.9381 17.6793 26.606C17.3472 26.2739 16.924 26.0476 16.4633 25.9561C16.0026 25.8644 15.5251 25.9114 15.0911 26.0911C14.6572 26.2709 14.2863 26.5753 14.0253 26.9659C13.7643 27.3565 13.625 27.8156 13.625 28.2854C13.625 28.9152 13.8752 29.5193 14.3206 29.9647C14.766 30.4101 15.3701 30.6604 16 30.6604ZM16 27.4937C16.1566 27.4937 16.3096 27.5401 16.4398 27.6271C16.57 27.7141 16.6715 27.8377 16.7314 27.9824C16.7913 28.1271 16.807 28.2862 16.7764 28.4398C16.7459 28.5934 16.6705 28.7345 16.5597 28.8451C16.4491 28.9559 16.308 29.0313 16.1544 29.0618C16.0008 29.0924 15.8417 29.0767 15.697 29.0168C15.5523 28.9568 15.4288 28.8554 15.3418 28.7252C15.2548 28.595 15.2083 28.442 15.2083 28.2854C15.2083 28.0754 15.2917 27.8741 15.4402 27.7256C15.5887 27.5771 15.79 27.4937 16 27.4937Z" fill="#86BB46"/>
<path d="M9.66534 38.5769C9.19559 38.5769 8.73645 38.7162 8.3459 38.9772C7.95533 39.2382 7.65092 39.6091 7.47116 40.043C7.2914 40.477 7.24437 40.9545 7.33601 41.4152C7.42765 41.8759 7.65385 42.2991 7.98599 42.6312C8.31815 42.9634 8.74132 43.1896 9.20201 43.2812C9.66276 43.3729 10.1403 43.3258 10.5743 43.1461C11.0082 42.9663 11.3791 42.6619 11.6401 42.2713C11.9011 41.8808 12.0403 41.4217 12.0403 40.9519C12.0403 40.322 11.7901 39.7179 11.3448 39.2725C10.8993 38.8272 10.2953 38.5769 9.66534 38.5769ZM9.66534 41.7436C9.50876 41.7436 9.35576 41.6972 9.22551 41.6102C9.09534 41.5232 8.99384 41.3995 8.93393 41.2548C8.87401 41.1102 8.85834 40.951 8.88893 40.7974C8.91943 40.6439 8.99485 40.5028 9.10559 40.3921C9.21626 40.2814 9.35734 40.206 9.51093 40.1754C9.66451 40.1449 9.82368 40.1606 9.96835 40.2205C10.113 40.2804 10.2366 40.3819 10.3236 40.5121C10.4106 40.6422 10.457 40.7953 10.457 40.9519C10.457 41.1618 10.3736 41.3632 10.2252 41.5117C10.0767 41.6602 9.87534 41.7436 9.66534 41.7436Z" fill="#86BB46"/>
<path d="M16 38.5769C15.5302 38.5769 15.0711 38.7162 14.6805 38.9772C14.2899 39.2382 13.9856 39.6091 13.8057 40.043C13.626 40.477 13.579 40.9545 13.6707 41.4152C13.7622 41.8759 13.9885 42.2991 14.3206 42.6312C14.6527 42.9634 15.0759 43.1896 15.5367 43.2812C15.9973 43.3729 16.4749 43.3258 16.9088 43.1461C17.3428 42.9663 17.7137 42.6619 17.9747 42.2713C18.2357 41.8808 18.375 41.4217 18.375 40.9519C18.375 40.322 18.1247 39.7179 17.6793 39.2725C17.234 38.8272 16.6298 38.5769 16 38.5769ZM16 41.7436C15.8434 41.7436 15.6903 41.6972 15.5602 41.6102C15.43 41.5232 15.3285 41.3995 15.2686 41.2548C15.2087 41.1102 15.193 40.951 15.2235 40.7974C15.2541 40.6439 15.3295 40.5028 15.4402 40.3921C15.5509 40.2814 15.692 40.206 15.8455 40.1754C15.9991 40.1449 16.1582 40.1606 16.3029 40.2205C16.4476 40.2804 16.5712 40.3819 16.6582 40.5121C16.7452 40.6422 16.7917 40.7953 16.7917 40.9519C16.7917 41.1618 16.7082 41.3632 16.5597 41.5117C16.4113 41.6602 16.2099 41.7436 16 41.7436Z" fill="#86BB46"/>
<path d="M33.8606 21.7025C34.4338 21.4602 34.9227 21.0542 35.2663 20.5352C35.6097 20.0163 35.7924 19.4075 35.7914 18.7852V15.6185H46.0831C46.9229 15.6185 47.7283 15.285 48.3223 14.6911C48.9161 14.0972 49.2497 13.2918 49.2497 12.452C49.2497 11.6121 48.9161 10.8066 48.3223 10.2128C47.7283 9.61895 46.9229 9.28528 46.0831 9.28528H35.7448C35.6473 8.68105 35.3568 8.12459 34.9169 7.69908C34.477 7.27357 33.9112 7.00185 33.3041 6.92455C32.7398 6.86773 32.1717 6.98456 31.6756 7.25942C31.5102 6.75107 31.203 6.30052 30.7903 5.96073C30.3776 5.62093 29.8764 5.40601 29.3457 5.34123C28.7815 5.28399 28.2132 5.40085 27.7173 5.67609C27.5977 5.28748 27.3931 4.93035 27.1183 4.63063C26.8436 4.33093 26.5055 4.09614 26.1287 3.94333C25.7519 3.79052 25.3458 3.72351 24.9399 3.74717C24.534 3.77083 24.1384 3.88456 23.7819 4.08011C23.5871 3.47603 23.1907 2.95717 22.6591 2.61032C22.1275 2.26346 21.4929 2.10964 20.8615 2.17458C20.1675 2.26598 19.531 2.60872 19.0728 3.1379C18.6145 3.66708 18.3662 4.34595 18.3749 5.04593V9.28528H10.9776C10.4369 8.55238 9.7325 7.95598 8.92042 7.54363C8.10838 7.13128 7.21121 6.9144 6.30047 6.9103H4.91665C4.0768 6.9103 3.27135 7.24393 2.67749 7.83778C2.08362 8.43165 1.75 9.2371 1.75 10.077C1.75 10.4969 1.91682 10.8996 2.21374 11.1965C2.51067 11.4934 2.9134 11.6603 3.33333 11.6603H4.83194C5.0292 11.653 5.22293 11.714 5.38043 11.8329C5.53793 11.952 5.64954 12.1216 5.69643 12.3134C5.71668 12.4273 5.71171 12.5443 5.68187 12.6561C5.65202 12.7679 5.59802 12.8719 5.52367 12.9605C5.44933 13.0492 5.35645 13.1205 5.25157 13.1694C5.14669 13.2183 5.03237 13.2436 4.91665 13.2436H3.33333C2.9134 13.2436 2.51067 13.4104 2.21374 13.7074C1.91682 14.0043 1.75 14.4069 1.75 14.827C1.75 15.6668 2.08362 16.4722 2.67749 17.066C3.27135 17.66 4.0768 17.9935 4.91665 17.9935H6.49997C7.22734 17.997 7.94809 17.8554 8.62002 17.5769C9.292 17.2983 9.90158 16.8885 10.4132 16.3715C10.647 16.1405 10.859 15.8885 11.0465 15.6185H18.3749V16.806C18.3757 17.5434 18.5478 18.2704 18.8774 18.9298C19.2072 19.5892 19.6856 20.163 20.2749 20.606L21.2249 21.3185C21.3229 21.3925 21.4025 21.4882 21.4575 21.5981C21.5124 21.708 21.5412 21.829 21.5416 21.9519V22.7435H6.49997C5.87008 22.7435 5.266 22.9938 4.8206 23.4391C4.37521 23.8845 4.12498 24.4886 4.12498 25.1185V31.4518C4.12498 32.0817 4.37521 32.6858 4.8206 33.1312C5.266 33.5766 5.87008 33.8268 6.49997 33.8268H7.29163V35.4101H6.49997C5.87008 35.4101 5.266 35.6604 4.8206 36.1057C4.37521 36.5511 4.12498 37.1552 4.12498 37.7851V44.1184C4.12498 44.7483 4.37521 45.3524 4.8206 45.7978C5.266 46.2432 5.87008 46.4934 6.49997 46.4934H7.29163V47.285C7.29163 47.915 7.54185 48.519 7.98725 48.9644C8.43264 49.4098 9.03675 49.66 9.66658 49.66H41.3331C41.963 49.66 42.5671 49.4098 43.0124 48.9644C43.4578 48.519 43.7081 47.915 43.7081 47.285V46.4934H44.4998C45.1296 46.4934 45.7337 46.2432 46.1791 45.7978C46.6245 45.3524 46.8747 44.7483 46.8747 44.1184V37.7851C46.8747 37.1552 46.6245 36.5511 46.1791 36.1057C45.7337 35.6604 45.1296 35.4101 44.4998 35.4101H43.7081V33.8268H44.4998C45.1296 33.8268 45.7337 33.5766 46.1791 33.1312C46.6245 32.6858 46.8747 32.0817 46.8747 31.4518V25.1185C46.8747 24.4886 46.6245 23.8845 46.1791 23.4391C45.7337 22.9938 45.1296 22.7435 44.4998 22.7435H33.4165V22.4735C33.4084 22.316 33.4461 22.1594 33.5248 22.0225C33.6037 21.8858 33.7202 21.7747 33.8606 21.7025ZM47.6664 12.452C47.6664 12.8719 47.4996 13.2746 47.2027 13.5715C46.9058 13.8685 46.503 14.0353 46.0831 14.0353H35.7914V10.8686H46.0831C46.503 10.8686 46.9058 11.0354 47.2027 11.3324C47.4996 11.6293 47.6664 12.032 47.6664 12.452ZM10.6111 14.0353C10.4722 14.0354 10.3359 14.072 10.2157 14.1415C10.0955 14.211 9.99567 14.3109 9.92625 14.4311C9.57833 15.0319 9.07875 15.531 8.4775 15.8784C7.87623 16.2256 7.19433 16.409 6.49997 16.4102H4.91665C4.49673 16.4102 4.094 16.2435 3.79707 15.9465C3.50013 15.6495 3.33333 15.2469 3.33333 14.827H4.91665C5.26217 14.8271 5.60357 14.752 5.91704 14.6067C6.23052 14.4614 6.50851 14.2494 6.73163 13.9855C6.95474 13.7218 7.11761 13.4124 7.20886 13.0792C7.30011 12.7459 7.31755 12.3968 7.25997 12.0561C7.15158 11.4939 6.84902 10.9876 6.40519 10.6258C5.96137 10.264 5.40449 10.0698 4.83194 10.077H3.33333C3.33333 9.65703 3.50013 9.25428 3.79707 8.95737C4.094 8.66043 4.49673 8.49362 4.91665 8.49362H6.30047C7.0182 8.49671 7.72342 8.68178 8.35018 9.0315C8.97692 9.3812 9.50475 9.8842 9.88433 10.4934C9.95533 10.6081 10.0545 10.7029 10.1724 10.7685C10.2903 10.8342 10.4231 10.8687 10.558 10.8686H18.3749V14.0353H10.6111ZM42.1247 47.285C42.1247 47.495 42.0413 47.6964 41.8929 47.8449C41.7444 47.9933 41.5431 48.0767 41.3331 48.0767H9.66658C9.45667 48.0767 9.25533 47.9933 9.10683 47.8449C8.95833 47.6964 8.87492 47.495 8.87492 47.285V46.4934H42.1247V47.285ZM45.2914 37.7851V44.1184C45.2914 44.3284 45.208 44.5297 45.0595 44.6782C44.9111 44.8266 44.7097 44.91 44.4998 44.91H6.49997C6.29001 44.91 6.08865 44.8266 5.94018 44.6782C5.79172 44.5297 5.70831 44.3284 5.70831 44.1184V37.7851C5.70831 37.5751 5.79172 37.3738 5.94018 37.2253C6.08865 37.0769 6.29001 36.9935 6.49997 36.9935H44.4998C44.7097 36.9935 44.9111 37.0769 45.0595 37.2253C45.208 37.3738 45.2914 37.5751 45.2914 37.7851ZM42.1247 35.4101H8.87492V33.8268H42.1247V35.4101ZM45.2914 25.1185V31.4518C45.2914 31.6618 45.208 31.8631 45.0595 32.0116C44.9111 32.16 44.7097 32.2435 44.4998 32.2435H6.49997C6.29001 32.2435 6.08865 32.16 5.94018 32.0116C5.79172 31.8631 5.70831 31.6618 5.70831 31.4518V25.1185C5.70831 24.9085 5.79172 24.7072 5.94018 24.5587C6.08865 24.4103 6.29001 24.3269 6.49997 24.3269H44.4998C44.7097 24.3269 44.9111 24.4103 45.0595 24.5587C45.208 24.7072 45.2914 24.9085 45.2914 25.1185ZM23.1248 22.7435V21.9519C23.1242 21.5833 23.0381 21.2199 22.8732 20.8902C22.7084 20.5605 22.4693 20.2735 22.1748 20.0519L21.2249 19.3394C20.8318 19.0442 20.5127 18.6617 20.2929 18.222C20.0731 17.7824 19.9585 17.2976 19.9582 16.806V5.04593C19.9471 4.7377 20.0487 4.43598 20.2442 4.19739C20.4397 3.95879 20.7154 3.79971 21.0198 3.74998C21.186 3.73106 21.3542 3.74805 21.5132 3.79982C21.6722 3.85158 21.8182 3.93691 21.9413 4.05003C22.0647 4.16132 22.1632 4.29724 22.2307 4.44902C22.2983 4.60078 22.3332 4.76503 22.3332 4.93114V8.49362C22.3332 8.70358 22.4166 8.90494 22.5651 9.05341C22.7136 9.20187 22.9149 9.28528 23.1248 9.28528C23.3348 9.28528 23.5362 9.20187 23.6847 9.05341C23.8331 8.90494 23.9165 8.70358 23.9165 8.49362V6.51447C23.9171 6.34806 23.9526 6.18363 24.0208 6.03184C24.089 5.88005 24.1883 5.74428 24.3123 5.63334C24.4347 5.51928 24.5805 5.43332 24.7395 5.38149C24.8986 5.32966 25.067 5.31322 25.2331 5.33331C25.5369 5.38373 25.8119 5.5431 26.0068 5.78163C26.2016 6.02016 26.3028 6.32149 26.2915 6.62926V9.28528C26.2915 9.49528 26.3749 9.69662 26.5234 9.84503C26.6718 9.99353 26.8732 10.077 27.0832 10.077C27.2932 10.077 27.4945 9.99353 27.643 9.84503C27.7914 9.69662 27.8748 9.49528 27.8748 9.28528V8.09779C27.8749 7.93168 27.9098 7.76743 27.9773 7.61566C28.0448 7.46388 28.1434 7.32796 28.2667 7.21667C28.3891 7.10264 28.5348 7.01672 28.6939 6.96489C28.8529 6.91307 29.0213 6.89659 29.1874 6.91663C29.492 6.96618 29.7679 7.12519 29.9636 7.36381C30.1592 7.60243 30.261 7.90423 30.2498 8.21258V10.8686C30.2498 11.0785 30.3333 11.2799 30.4817 11.4284C30.6302 11.5769 30.8315 11.6603 31.0415 11.6603C31.2514 11.6603 31.4528 11.5769 31.6012 11.4284C31.7497 11.2799 31.8332 11.0785 31.8332 10.8686V9.68112C31.8332 9.51503 31.8681 9.35078 31.9356 9.19898C32.0031 9.04721 32.1017 8.91128 32.225 8.79999C32.3475 8.68619 32.4933 8.60041 32.6523 8.5486C32.8113 8.49678 32.9797 8.48019 33.1458 8.49995C33.4502 8.54951 33.7262 8.70852 33.9218 8.94713C34.1175 9.18574 34.2192 9.48753 34.2082 9.79587V18.7852C34.2084 19.0964 34.117 19.4006 33.9454 19.6601C33.7737 19.9196 33.5295 20.1228 33.2431 20.2443C32.8147 20.4358 32.4525 20.7495 32.2017 21.1461C31.9508 21.5427 31.8227 22.0044 31.8332 22.4735V22.7435H23.1248Z" fill="#86BB46"/>
<path d="M34.2083 29.077H42.1249C42.3349 29.077 42.5362 28.9936 42.6847 28.8451C42.8332 28.6967 42.9166 28.4952 42.9166 28.2853C42.9166 28.0753 42.8332 27.874 42.6847 27.7255C42.5362 27.5771 42.3349 27.4937 42.1249 27.4937H34.2083C33.9983 27.4937 33.797 27.5771 33.6485 27.7255C33.5001 27.874 33.4167 28.0753 33.4167 28.2853C33.4167 28.4952 33.5001 28.6967 33.6485 28.8451C33.797 28.9936 33.9983 29.077 34.2083 29.077Z" fill="#86BB46"/>
<path d="M42.1249 40.1602H34.2083C33.9983 40.1602 33.797 40.2436 33.6485 40.392C33.5001 40.5405 33.4167 40.7418 33.4167 40.9518C33.4167 41.1617 33.5001 41.3632 33.6485 41.5116C33.797 41.6601 33.9983 41.7435 34.2083 41.7435H42.1249C42.3349 41.7435 42.5362 41.6601 42.6847 41.5116C42.8332 41.3632 42.9166 41.1617 42.9166 40.9518C42.9166 40.7418 42.8332 40.5405 42.6847 40.392C42.5362 40.2436 42.3349 40.1602 42.1249 40.1602Z" fill="#86BB46"/>
</svg>
