<svg width="51" height="51" viewBox="0 0 51 51" fill="none" xmlns="http://www.w3.org/2000/svg">
<path d="M46.0833 2.16003H4.91667C4.07682 2.16003 3.27136 2.49367 2.67749 3.08753C2.08363 3.68139 1.75 4.48685 1.75 5.3267V36.9934C1.75 37.8332 2.08363 38.6387 2.67749 39.2325C3.27136 39.8264 4.07682 40.16 4.91667 40.16H20.7183C20.4087 43.9505 17.881 44.1128 17.5762 44.1184H16.7917C15.9518 44.1184 15.1463 44.452 14.5525 45.0459C13.9587 45.6397 13.625 46.4452 13.625 47.285V48.0767C13.625 48.4966 13.7918 48.8994 14.0887 49.1963C14.3857 49.4932 14.7884 49.66 15.2083 49.66H35.7917C36.2116 49.66 36.6143 49.4932 36.9113 49.1963C37.2082 48.8994 37.375 48.4966 37.375 48.0767V47.285C37.375 46.4452 37.0413 45.6397 36.4475 45.0459C35.8537 44.452 35.0482 44.1184 34.2083 44.1184H33.4167C33.2955 44.1184 30.6047 44.0684 30.2824 40.16H46.0833C46.9232 40.16 47.7287 39.8264 48.3225 39.2325C48.9163 38.6387 49.25 37.8332 49.25 36.9934V5.3267C49.25 4.48685 48.9163 3.68139 48.3225 3.08753C47.7287 2.49367 46.9232 2.16003 46.0833 2.16003ZM4.91667 3.74337H46.0833C46.5033 3.74337 46.906 3.91018 47.2029 4.20712C47.4998 4.50405 47.6667 4.90678 47.6667 5.3267V33.8267H3.33333V5.3267C3.33333 4.90678 3.50015 4.50405 3.79708 4.20712C4.09402 3.91018 4.49674 3.74337 4.91667 3.74337ZM34.2083 45.7017C34.6283 45.7017 35.031 45.8685 35.3279 46.1655C35.6248 46.4624 35.7917 46.8651 35.7917 47.285V48.0767H15.2083V47.285C15.2083 46.8651 15.3752 46.4624 15.6721 46.1655C15.969 45.8685 16.3717 45.7017 16.7917 45.7017H34.2083ZM30.1534 44.1184H20.8466C21.759 42.9983 22.2691 41.6045 22.2953 40.16H28.7078C28.7332 41.604 29.2422 42.9979 30.1534 44.1184ZM46.0833 38.5767H4.91667C4.49674 38.5767 4.09402 38.4099 3.79708 38.1129C3.50015 37.816 3.33333 37.4133 3.33333 36.9934V35.41H47.6667V36.9934C47.6667 37.4133 47.4998 37.816 47.2029 38.1129C46.906 38.4099 46.5033 38.5767 46.0833 38.5767Z" fill="#86BB46"/>
<path d="M6.50065 32.2432H44.5007C44.9206 32.2432 45.3233 32.0764 45.6203 31.7795C45.9172 31.4825 46.084 31.0798 46.084 30.6599V6.90987C46.084 6.48995 45.9172 6.08722 45.6203 5.79029C45.3233 5.49335 44.9206 5.32654 44.5007 5.32654H6.50065C6.08073 5.32654 5.678 5.49335 5.38107 5.79029C5.08414 6.08722 4.91732 6.48995 4.91732 6.90987V30.6599C4.91732 31.0798 5.08414 31.4825 5.38107 31.7795C5.678 32.0764 6.08073 32.2432 6.50065 32.2432ZM22.9673 27.1765L22.0173 26.464C21.6243 26.1689 21.3053 25.7864 21.0854 25.3467C20.8656 24.907 20.751 24.4223 20.7507 23.9307V12.1705C20.7395 11.8623 20.8412 11.5605 21.0366 11.322C21.2321 11.0834 21.5079 10.9243 21.8123 10.8745C21.9784 10.8558 22.1466 10.873 22.3056 10.9247C22.4645 10.9765 22.6105 11.0616 22.7338 11.1746C22.8571 11.2859 22.9557 11.4218 23.0232 11.5735C23.0907 11.7254 23.1256 11.8896 23.1257 12.0557V15.6182C23.1257 15.8282 23.2091 16.0295 23.3575 16.178C23.506 16.3265 23.7073 16.4099 23.9173 16.4099C24.1273 16.4099 24.3287 16.3265 24.4771 16.178C24.6256 16.0295 24.709 15.8282 24.709 15.6182V13.639C24.7096 13.4726 24.7451 13.3082 24.8133 13.1565C24.8814 13.0046 24.9808 12.8689 25.1048 12.758C25.2273 12.6441 25.3732 12.5584 25.5322 12.5066C25.6912 12.4548 25.8595 12.4382 26.0255 12.4579C26.3293 12.5083 26.6044 12.6677 26.7992 12.9062C26.994 13.1447 27.0953 13.446 27.084 13.7539V16.4099C27.084 16.6199 27.1674 16.8212 27.3158 16.9697C27.4643 17.1181 27.6657 17.2015 27.8757 17.2015C28.0856 17.2015 28.287 17.1181 28.4354 16.9697C28.5839 16.8212 28.6673 16.6199 28.6673 16.4099V15.2224C28.6674 15.0563 28.7023 14.892 28.7698 14.7402C28.8373 14.5885 28.9359 14.4525 29.0592 14.3413C29.1818 14.2275 29.3276 14.1418 29.4866 14.09C29.6455 14.0382 29.8138 14.0215 29.9799 14.0412C30.2844 14.0908 30.5604 14.2498 30.7561 14.4884C30.9517 14.727 31.0535 15.0288 31.0423 15.3372V17.9932C31.0423 18.2032 31.1258 18.4045 31.2742 18.553C31.4227 18.7015 31.624 18.7849 31.834 18.7849C32.0439 18.7849 32.2453 18.7015 32.3938 18.553C32.5423 18.4045 32.6257 18.2032 32.6257 17.9932V16.8057C32.6258 16.6396 32.6606 16.4754 32.7281 16.3235C32.7956 16.1718 32.8943 16.0359 33.0175 15.9246C33.1402 15.811 33.2859 15.7252 33.4449 15.6735C33.6039 15.6216 33.7722 15.605 33.9383 15.6245C34.2428 15.6741 34.5188 15.8331 34.7144 16.0717C34.91 16.3104 35.0118 16.6121 35.0007 16.9205V25.9099C35.0009 26.221 34.9096 26.5253 34.7379 26.7848C34.5663 27.0443 34.322 27.2475 34.0356 27.369C33.6073 27.5605 33.245 27.8742 32.9942 28.2708C32.7433 28.6674 32.6152 29.1291 32.6257 29.5983V30.6599H23.9173V29.0765C23.9167 28.708 23.8305 28.3445 23.6657 28.0149C23.5008 27.6852 23.2618 27.3982 22.9673 27.1765ZM12.8008 19.1728C12.6916 18.6089 12.3873 18.1014 11.9413 17.7395C11.4952 17.3775 10.9359 17.1843 10.3616 17.1936L9.66734 17.2015C9.66734 16.9931 9.70842 16.7868 9.78834 16.5944C9.86825 16.4019 9.98542 16.2271 10.133 16.08C10.2807 15.9329 10.4558 15.8164 10.6486 15.7371C10.8413 15.6579 11.0478 15.6175 11.2562 15.6182L12.6345 15.608C13.9637 15.608 14.5693 16.2255 15.4251 17.6085C15.496 17.7228 15.5948 17.8171 15.7123 17.8826C15.8298 17.9481 15.9619 17.9827 16.0964 17.983L19.1673 17.9932V21.1599L16.1543 21.152C16.0154 21.1521 15.8791 21.1888 15.7588 21.2582C15.6387 21.3277 15.5388 21.4275 15.4694 21.5478C15.2962 21.8489 15.0832 22.1253 14.8361 22.3695L14.6216 22.5889C13.9352 23.2919 13.704 23.5285 12.83 23.5285L11.2507 23.5349C11.0431 23.5353 10.8375 23.4945 10.6458 23.415C10.4541 23.3355 10.28 23.2187 10.1338 23.0715C9.98742 22.9242 9.87184 22.7494 9.7935 22.5572C9.71525 22.365 9.67584 22.1591 9.67759 21.9515L10.459 21.9413C10.8045 21.9415 11.1459 21.8663 11.4594 21.721C11.7728 21.5757 12.0508 21.3637 12.274 21.0999C12.4971 20.836 12.6599 20.5268 12.7513 20.1935C12.8425 19.8603 12.8599 19.5111 12.8023 19.1705L12.8008 19.1728ZM6.50065 6.90987H44.5007V30.6599H34.209V29.5983C34.201 29.4406 34.2386 29.284 34.3174 29.1472C34.3962 29.0105 34.5128 28.8994 34.6531 28.8272C35.2263 28.5849 35.7153 28.1789 36.0588 27.6599C36.4023 27.141 36.5849 26.5322 36.584 25.9099V22.7432H39.7507C40.5905 22.7432 41.3959 22.4095 41.9898 21.8157C42.5837 21.2219 42.9173 20.4164 42.9173 19.5765C42.9173 18.7367 42.5837 17.9312 41.9898 17.3374C41.3959 16.7435 40.5905 16.4099 39.7507 16.4099H36.5373C36.4398 15.8056 36.1494 15.2492 35.7095 14.8236C35.2695 14.3981 34.7038 14.1265 34.0966 14.0491C33.5323 13.992 32.964 14.1088 32.4681 14.384C32.3477 13.9934 32.1415 13.6345 31.8645 13.334C31.5875 13.0334 31.2468 12.7985 30.8672 12.6467C30.4877 12.4949 30.0789 12.43 29.671 12.4565C29.2632 12.4832 28.8663 12.6008 28.5098 12.8007C28.3902 12.412 28.1856 12.055 27.9108 11.7552C27.6361 11.4555 27.298 11.2207 26.9212 11.0679C26.5444 10.9151 26.1383 10.848 25.7324 10.8717C25.3264 10.8954 24.9309 11.0091 24.5744 11.2047C24.3795 10.6006 23.9831 10.0817 23.4515 9.73487C22.9199 9.38804 22.2853 9.23419 21.6539 9.29912C20.9599 9.39054 20.3235 9.73329 19.8652 10.2625C19.4069 10.7916 19.1586 11.4705 19.1673 12.1705V16.4099L16.535 16.4028C15.7157 15.152 14.6793 14.0278 12.6289 14.0278L11.2507 14.0349C10.4108 14.0349 9.60534 14.3685 9.0115 14.9624C8.41762 15.5562 8.08399 16.3617 8.08399 17.2015C8.0845 17.4103 8.1262 17.617 8.2067 17.8096C8.2872 18.0022 8.40491 18.1771 8.5531 18.3242C8.70127 18.4713 8.877 18.5876 9.07025 18.6667C9.2635 18.7458 9.47042 18.786 9.67917 18.7849L10.3735 18.7746C10.5708 18.7675 10.7643 18.8287 10.9217 18.9479C11.0791 19.067 11.1905 19.2368 11.2372 19.4285C11.2576 19.5432 11.2524 19.661 11.222 19.7735C11.1917 19.886 11.1368 19.9904 11.0614 20.0793C10.9855 20.1676 10.8912 20.2384 10.7851 20.2865C10.679 20.3346 10.5636 20.359 10.4471 20.358L9.66734 20.3682C9.24742 20.3682 8.84467 20.535 8.54774 20.832C8.2508 21.1289 8.08399 21.5316 8.08399 21.9515C8.08524 22.792 8.42005 23.5975 9.01484 24.1913C9.60959 24.785 10.4158 25.1185 11.2562 25.1182L12.834 25.108C13.3978 25.1186 13.9561 24.9958 14.4634 24.7495C14.9707 24.5032 15.4125 24.1405 15.7528 23.6909L15.9539 23.4858C16.1874 23.2549 16.3994 23.0031 16.5873 22.7337L19.1673 22.7432V23.9307C19.1681 24.668 19.3402 25.395 19.6698 26.0545C19.9996 26.7139 20.478 27.2877 21.0673 27.7307L22.0173 28.4432C22.1153 28.5172 22.195 28.6129 22.2499 28.7227C22.3048 28.8326 22.3336 28.9537 22.334 29.0765V30.6599H6.50065V6.90987ZM36.584 17.9932H39.7507C40.1706 17.9932 40.5733 18.16 40.8703 18.457C41.1672 18.7539 41.334 19.1566 41.334 19.5765C41.334 19.9965 41.1672 20.3992 40.8703 20.6961C40.5733 20.993 40.1706 21.1599 39.7507 21.1599H36.584V17.9932Z" fill="#86BB46"/>
</svg>
