<?xml version="1.0" encoding="UTF-8" standalone="no"?>
<svg xmlns:dc="http://purl.org/dc/elements/1.1/" xmlns:cc="http://creativecommons.org/ns#"
   xmlns:rdf="http://www.w3.org/1999/02/22-rdf-syntax-ns#" xmlns:svg="http://www.w3.org/2000/svg"
   xmlns="http://www.w3.org/2000/svg" id="svg3144" version="1.1" viewBox="0 0 33.088539 23.914642" height="23.914642mm"
   width="33.088539mm">
   <defs id="defs3138" />
   <metadata id="metadata3141">
      <rdf:RDF>
         <cc:Work rdf:about="">
            <dc:format>image/svg+xml</dc:format>
            <dc:type rdf:resource="http://purl.org/dc/dcmitype/StillImage" />
            <dc:title></dc:title>
         </cc:Work>
      </rdf:RDF>
   </metadata>
   <g transform="translate(-48.19832,-71.254296)" id="layer1">
      <g id="g2825" transform="matrix(0.35277777,0,0,-0.35277777,-81.868252,193.64331)">
         <path
            d="m 385.902,284.975 h 28.863 v 28.189 h -28.863 z m 30.364,-3 h -31.864 c -0.828,0 -1.5,0.671 -1.5,1.5 v 31.189 c 0,0.828 0.672,1.5 1.5,1.5 h 31.864 c 0.828,0 1.5,-0.672 1.5,-1.5 v -31.189 c 0,-0.829 -0.672,-1.5 -1.5,-1.5"
            style="fill:#399822;fill-opacity:1;fill-rule:nonzero;stroke:none" id="path512" />
         <path d="m 406.305,283.475 h -11.941 v 21.439 h 11.941 z"
            style="fill:#a2cf31;fill-opacity:1;fill-rule:nonzero;stroke:none" id="path514" />
         <path d="m 439.519,296.33 h -14.643 v 8.583 h 14.643 z"
            style="fill:#a2cf31;fill-opacity:1;fill-rule:nonzero;stroke:none" id="path516" />
         <g id="g518" transform="translate(387.4951,316.1636)">
            <path
               d="M 0,0 H 25.678 L 12.839,16.286 Z M 28.771,-3 H -3.093 c -0.574,0 -1.098,0.328 -1.349,0.845 -0.251,0.517 -0.185,1.133 0.171,1.584 l 15.932,20.208 c 0.568,0.722 1.787,0.722 2.356,0 L 29.948,-0.571 C 30.305,-1.022 30.371,-1.638 30.12,-2.155 29.869,-2.672 29.345,-3 28.771,-3"
               style="fill:#399822;fill-opacity:1;fill-rule:nonzero;stroke:none" id="path520" />
         </g>
         <g id="g522" transform="translate(416.9932,316.1636)">
            <path
               d="M 0,0 H 28.043 L 14.477,17.208 H -13.566 Z M 31.136,-3 H -0.728 c -0.459,0 -0.893,0.21 -1.177,0.571 L -17.837,17.78 c -0.356,0.451 -0.423,1.066 -0.172,1.583 0.251,0.517 0.776,0.845 1.35,0.845 h 31.863 c 0.459,0 0.894,-0.21 1.178,-0.571 L 32.313,-0.571 C 32.67,-1.022 32.736,-1.638 32.485,-2.155 32.234,-2.672 31.71,-3 31.136,-3"
               style="fill:#399822;fill-opacity:1;fill-rule:nonzero;stroke:none" id="path524" />
         </g>
         <g id="g526" transform="translate(418.9053,319.1567)">
            <path d="M 0,0 H 19.499 L 10.652,11.222 H -8.847 Z"
               style="fill:#a2cf31;fill-opacity:1;fill-rule:nonzero;stroke:none" id="path528" />
         </g>
         <path
            d="m 417.766,284.975 h 28.863 v 28.189 h -28.863 z m 30.363,-3 h -31.863 c -0.829,0 -1.5,0.671 -1.5,1.5 v 31.189 c 0,0.828 0.671,1.5 1.5,1.5 h 31.863 c 0.828,0 1.5,-0.672 1.5,-1.5 v -31.189 c 0,-0.829 -0.672,-1.5 -1.5,-1.5"
            style="fill:#399822;fill-opacity:1;fill-rule:nonzero;stroke:none" id="path530" />
         <g id="g532" transform="translate(458.1523,281.9746)">
            <path
               d="m 0,0 h -85.125 c -0.828,0 -1.5,0.671 -1.5,1.5 0,0.829 0.672,1.5 1.5,1.5 H 0 C 0.828,3 1.5,2.329 1.5,1.5 1.5,0.671 0.828,0 0,0"
               style="fill:#399822;fill-opacity:1;fill-rule:nonzero;stroke:none" id="path534" />
         </g>
         <g id="g536" transform="translate(416.4053,326.4424)">
            <path
               d="m 0,0 c -0.256,0 -0.512,0.098 -0.707,0.293 -0.391,0.391 -0.391,1.023 0,1.414 l 15.652,15.652 c 0.391,0.391 1.024,0.391 1.414,0 0.391,-0.39 0.391,-1.023 0,-1.414 L 0.707,0.293 C 0.512,0.098 0.256,0 0,0"
               style="fill:#a2cf31;fill-opacity:1;fill-rule:nonzero;stroke:none" id="path538" />
         </g>
         <g id="g540" transform="translate(423.0654,326.4424)">
            <path
               d="m 0,0 c -0.256,0 -0.512,0.098 -0.707,0.293 -0.391,0.391 -0.391,1.023 0,1.414 l 15.652,15.652 c 0.391,0.391 1.024,0.391 1.414,0 0.391,-0.39 0.391,-1.023 0,-1.414 L 0.707,0.293 C 0.512,0.098 0.256,0 0,0"
               style="fill:#a2cf31;fill-opacity:1;fill-rule:nonzero;stroke:none" id="path542" />
         </g>
         <g id="g544" transform="translate(429.7256,326.4424)">
            <path
               d="m 0,0 c -0.256,0 -0.512,0.098 -0.707,0.293 -0.391,0.391 -0.391,1.023 0,1.414 l 15.652,15.652 c 0.391,0.391 1.024,0.391 1.414,0 0.391,-0.39 0.391,-1.023 0,-1.414 L 0.707,0.293 C 0.512,0.098 0.256,0 0,0"
               style="fill:#a2cf31;fill-opacity:1;fill-rule:nonzero;stroke:none" id="path546" />
         </g>
         <g id="g548" transform="translate(431.6279,321.6846)">
            <path
               d="m 0,0 c -0.256,0 -0.512,0.098 -0.707,0.293 -0.391,0.391 -0.391,1.023 0,1.414 l 20.41,20.41 c 0.391,0.391 1.024,0.391 1.414,0 0.391,-0.39 0.391,-1.023 0,-1.414 L 0.707,0.293 C 0.512,0.098 0.256,0 0,0"
               style="fill:#a2cf31;fill-opacity:1;fill-rule:nonzero;stroke:none" id="path550" />
         </g>
      </g>
   </g>
</svg>