<?xml version="1.0" ?>
<svg viewBox="0 0 21.593 22.634" xmlns="http://www.w3.org/2000/svg">
  <g data-name="Layer 2" id="Layer_2">
    <g data-name="Layer 1" id="Layer_1-2">
      <path
        d="M20.459,12.929a3.246,3.246,0,0,0-4.218-.129,1.094,1.094,0,0,0-.418.965l.207,2.262-2.673-.244a.347.347,0,0,0-.3.131l-1.709,2.2-1.71-2.2a.345.345,0,0,0-.3-.131l-2.672.244.244-2.672a.344.344,0,0,0-.131-.3l-2.2-1.71,2.2-1.71a.341.341,0,0,0,.131-.3L6.662,6.659,9.334,6.9a.345.345,0,0,0,.3-.131l1.71-2.2,1.709,2.2a.346.346,0,0,0,.3.131l2.672-.245-.244,2.673a.343.343,0,0,0,.131.3l1.9,1.48a.343.343,0,0,0,.422-.541L16.486,9.207l.264-2.9a.34.34,0,0,0-.1-.274.348.348,0,0,0-.274-.1l-2.9.265-1.865-2.4a.355.355,0,0,0-.541,0L9.21,6.2l-2.9-.265a.344.344,0,0,0-.373.374l.265,2.9-2.4,1.866a.343.343,0,0,0,0,.541l2.4,1.865-.265,2.9a.344.344,0,0,0,.1.274.339.339,0,0,0,.274.1l2.9-.265,1.865,2.4a.355.355,0,0,0,.541,0l1.865-2.4,2.9.265a.345.345,0,0,0,.373-.373L16.506,13.7a.411.411,0,0,1,.156-.361,2.577,2.577,0,0,1,3.346.1c2.1,1.78.1,4.332-1.578,5.844a10.758,10.758,0,0,1-14.116.047c-8.6-7.768-.618-21.6,10.4-18.085a2.4,2.4,0,0,0,.39,2.863l.811.81c.325.329.674-.214.89-.405L18.183,5.9a.343.343,0,1,0,.485-.486L17.292,4.034,18.426,2.9,19.8,4.277a.343.343,0,0,0,.485-.485L18.911,2.415l.4-.4a.343.343,0,0,0,0-.485L18.505.715A2.4,2.4,0,0,0,15.158.676C3.384-3.34-5.375,11.5,3.86,19.851a11.456,11.456,0,0,0,15.028-.05C20.945,17.991,22.9,15.049,20.459,12.929ZM15.591,1.2a1.718,1.718,0,0,1,2.429,0l.568.568L16.159,4.2l-.568-.568A1.719,1.719,0,0,1,15.591,1.2ZM8.256,11.343a3.09,3.09,0,0,0,6.18,0A3.09,3.09,0,0,0,8.256,11.343Zm5.494,0a2.4,2.4,0,0,1-4.808,0A2.4,2.4,0,0,1,13.75,11.343Z"
        data-name="solar energy" id="solar_energy" />
    </g>
  </g>
</svg>