<svg width="16" height="12" viewBox="0 0 16 12" fill="none" xmlns="http://www.w3.org/2000/svg">
<path d="M14.0338 0.395004C14.4244 0.395004 14.7564 0.531723 15.0298 0.805161C15.3033 1.0786 15.44 1.41063 15.44 1.80125V10.2388C15.44 10.6294 15.3033 10.9614 15.0298 11.2348C14.7564 11.5083 14.4244 11.645 14.0338 11.645H1.84625C1.45563 11.645 1.1236 11.5083 0.850159 11.2348C0.576721 10.9614 0.440002 10.6294 0.440002 10.2388V1.80125C0.440002 1.41063 0.576721 1.0786 0.850159 0.805161C1.1236 0.531723 1.45563 0.395004 1.84625 0.395004H14.0338ZM1.84625 1.3325C1.70953 1.3325 1.59723 1.37645 1.50934 1.46434C1.42145 1.55223 1.3775 1.66454 1.3775 1.80125V3.00243C2.0611 3.58836 3.53571 4.77977 5.80133 6.57664C5.80133 6.57664 5.93805 6.68895 6.21149 6.91356C6.48492 7.13817 6.69 7.2993 6.82672 7.39696C6.96344 7.49461 7.1441 7.60204 7.36871 7.71922C7.59332 7.83641 7.78375 7.895 7.94 7.895C8.07672 7.895 8.22321 7.86571 8.37946 7.80711C8.53571 7.74852 8.69684 7.66063 8.86285 7.54344C9.02887 7.42625 9.17535 7.31883 9.30231 7.22118C9.42926 7.12352 9.58063 7.00145 9.75641 6.85497C9.93219 6.70848 10.0396 6.61571 10.0787 6.57664C12.3443 4.77977 13.8189 3.58836 14.5025 3.00243V1.80125C14.5025 1.66454 14.4586 1.55223 14.3707 1.46434C14.2828 1.37645 14.1705 1.3325 14.0338 1.3325H1.84625ZM14.0338 10.7075C14.1705 10.7075 14.2828 10.6636 14.3707 10.5757C14.4586 10.4878 14.5025 10.3755 14.5025 10.2388V4.23289C13.8189 4.77977 12.5396 5.80516 10.6646 7.30907C10.6255 7.3286 10.4937 7.43602 10.2691 7.63133C10.0445 7.82664 9.86383 7.97313 9.72711 8.07079C9.59039 8.16844 9.41461 8.28563 9.19977 8.42235C8.98492 8.55907 8.77008 8.66161 8.55524 8.72997C8.34039 8.79832 8.13531 8.8325 7.94 8.8325C7.76422 8.8325 7.58356 8.80321 7.39801 8.74461C7.21246 8.68602 7.04645 8.61766 6.89996 8.53954C6.75348 8.46141 6.58746 8.35887 6.40192 8.23192C6.21637 8.10497 6.065 7.99754 5.94781 7.90965C5.83063 7.82176 5.69391 7.70946 5.53766 7.57274C5.38141 7.43602 5.27399 7.34813 5.21539 7.30907C3.34039 5.80516 2.0611 4.77977 1.3775 4.23289V10.2388C1.3775 10.3755 1.42145 10.4878 1.50934 10.5757C1.59723 10.6636 1.70953 10.7075 1.84625 10.7075H14.0338Z" fill="#FAAB04"/>
</svg>
