<?xml version="1.0" encoding="iso-8859-1"?>
<!-- Generator: Adobe Illustrator 19.2.1, SVG Export Plug-In . SVG Version: 6.00 Build 0)  -->
<svg version="1.1" xmlns="http://www.w3.org/2000/svg" xmlns:xlink="http://www.w3.org/1999/xlink" x="0px" y="0px"
	viewBox="0 0 32.001 32" style="enable-background:new 0 0 32.001 32;" xml:space="preserve">
	<g id="Layer_26">
		<path style="fill:#95CC29;" d="M31.727,16.273c0,0-7.092-1.393-10.607,2.121c-2.606,2.606-2.513,7.172-2.291,9.363l-2.536,2.536
		c-0.391,0.391-0.391,1.024,0,1.414c0.391,0.391,1.024,0.391,1.414,0l2.536-2.536c2.19,0.222,6.757,0.314,9.363-2.292
		C33.121,23.364,31.727,16.273,31.727,16.273z M22.535,19.704c1.886-1.886,5.434-1.958,7.402-1.798L20.79,27h-0.009
		C20.604,25,20.753,21.485,22.535,19.704z" />
		<path style="fill:#666666;" d="M4.374,21.248C5.388,22.088,6,23.212,6,24.418V28c0,1.105,0.895,2,2,2h0.587
		c0.695,1,1.943,1.998,3.413,2c1.47-0.002,2.718-1,3.413-2H16v-0.601c0-0.023,0.027-0.042,0.035-0.065L16,29.322V28H8v-2h8v-2H8
		v0.418c0-1.905-0.968-3.574-2.354-4.713C3.419,17.867,2,15.101,2,12c0-2.759,1.12-5.253,2.933-7.068C6.747,3.12,9.241,2,12,2
		c0.706,0,1.431,0.073,2.169,0.229c3.83,0.799,6.934,3.99,7.65,7.841C21.941,10.726,22,11.37,22,12c0,0.974-0.14,1.914-0.401,2.802
		l1.919,0.563C23.832,14.297,24,13.167,24,12c0-0.754-0.07-1.522-0.216-2.299c-0.881-4.664-4.555-8.444-9.203-9.43
		C13.709,0.088,12.845,0,12,0C5.38,0.002,0.002,5.38,0,12C-0.001,15.721,1.709,19.052,4.374,21.248z" />
		<path style="fill:#666666;" d="M4,12c0,0.552,0.448,1,1,1s1-0.448,1-1c0-1.656,0.671-3.15,1.76-4.24C8.85,6.671,10.344,6,12,6
		c0.552,0,1-0.448,1-1s-0.448-1-1-1C7.586,4.002,4.002,7.586,4,12z" />
		<rect x="0.001" style="fill:none;" width="32" height="32" />
	</g>
	<g id="Layer_1">
	</g>
</svg>