<?xml version="1.0" ?><svg id="Layer_1" style="enable-background:new 0 0 66 66;" version="1.1" viewBox="0 0 66 66" xml:space="preserve" xmlns="http://www.w3.org/2000/svg" xmlns:xlink="http://www.w3.org/1999/xlink"><g><path d="M48.47,22.45c0-8.09-6.57-14.66-14.65-14.66c-8.08,0-14.66,6.58-14.66,14.66c0,8.08,6.58,14.65,14.66,14.65   C41.9,37.1,48.47,30.53,48.47,22.45z M33.82,36.1c-7.53,0-13.66-6.12-13.66-13.65c0-7.53,6.13-13.66,13.66-13.66   c7.52,0,13.65,6.13,13.65,13.66C47.47,29.97,41.35,36.1,33.82,36.1z"/><path d="M39.39,20.31h-5.15l1.81-5.78c0.15-0.47-0.2-0.94-0.69-0.94h-1.08c-0.22,0-0.43,0.1-0.57,0.28l-6.04,7.78   c-0.37,0.47-0.03,1.17,0.57,1.17h5.19l-2.4,7.64c-0.21,0.67,0.65,1.13,1.1,0.59l7.82-9.56C40.33,21.02,40,20.31,39.39,20.31z"/><path d="M63.08,32.6l-2.25-0.49c-0.23-0.85-0.57-1.66-1.02-2.41l1.24-1.92c0.13-0.2,0.1-0.46-0.07-0.62l-2.33-2.33   c-0.17-0.17-0.43-0.19-0.62-0.07L56.09,26c-0.36-0.21-0.78-0.39-1.25-0.57c0.12-0.9,0.2-1.81,0.2-2.72c0-6.02-2.57-11.78-7.06-15.8   c-4.54-4.07-10.42-5.94-16.53-5.27C28.07,2,24.93,3.21,22.21,5l-2.27,0.96c-0.78-0.45-1.6-0.79-2.46-1.02l-0.49-2.22   c-0.05-0.23-0.25-0.39-0.49-0.39h-3.3c-0.23,0-0.44,0.16-0.49,0.39l-0.49,2.22c-0.87,0.23-1.69,0.57-2.45,1.01L7.9,4.75   c-0.2-0.13-0.46-0.1-0.62,0.07L4.94,7.15C4.78,7.32,4.75,7.58,4.88,7.78l1.21,1.87c-0.45,0.77-0.8,1.61-1.04,2.5l-2.13,0.47   c-0.23,0.05-0.39,0.25-0.39,0.49v3.3c0,0.24,0.16,0.44,0.39,0.49l2.14,0.46c0.24,0.9,0.59,1.75,1.05,2.53L4.94,21.7   c-0.13,0.2-0.1,0.46,0.07,0.62l2.33,2.33c0.17,0.17,0.43,0.19,0.62,0.07l1.84-1.18c0.8,0.46,1.65,0.81,2.53,1.03l0.47,2.13   c0.04,0.16,0.15,0.28,0.29,0.35c0.76,3.61,2.43,6.99,4.92,9.77c2.09,2.34,3.66,5.13,4.7,8.29c-0.75,0.41-1.27,1.21-1.27,2.12v2.43   h-2.33c-0.28,0-0.5,0.22-0.5,0.5s0.22,0.5,0.5,0.5h2.33v3.41h-2.33c-0.28,0-0.5,0.22-0.5,0.5s0.22,0.5,0.5,0.5h2.33v2.43   c0,1.34,1.09,2.43,2.43,2.43h2.15l1.63,3.29c0.39,0.79,1.18,1.28,2.06,1.28h8.23c0.88,0,1.67-0.49,2.06-1.28l1.63-3.29h2.14   c1.34,0,2.43-1.09,2.43-2.43v-2.43h2.33c0.28,0,0.5-0.22,0.5-0.5s-0.22-0.5-0.5-0.5h-2.33v-3.41h2.33c0.28,0,0.5-0.22,0.5-0.5   s-0.22-0.5-0.5-0.5h-2.33v-2.43c0-0.9-0.5-1.68-1.23-2.1c0.13-0.38,0.26-0.75,0.41-1.12l0.61-0.39c0.8,0.46,1.65,0.8,2.53,1.03   L49,46.77c0.05,0.23,0.25,0.39,0.49,0.39h3.3c0.24,0,0.44-0.16,0.49-0.39l0.47-2.17c0.88-0.24,1.71-0.6,2.48-1.06l1.86,1.19   c0.2,0.13,0.46,0.1,0.62-0.07l2.33-2.33c0.17-0.17,0.19-0.43,0.07-0.62l-1.23-1.91c0.43-0.77,0.76-1.59,0.99-2.44l2.21-0.48   c0.23-0.05,0.39-0.25,0.39-0.49v-3.3C63.48,32.85,63.31,32.65,63.08,32.6z M53.33,30.97c1.35,0.8,2.2,2.26,2.2,3.84   c0,2.47-2.01,4.48-4.48,4.48c-0.94,0-1.86-0.33-2.63-0.89c0.45-0.62,0.92-1.23,1.43-1.81C51.32,34.9,52.47,33,53.33,30.97z    M12.66,23.62c-0.91-0.22-1.78-0.59-2.6-1.09c-0.16-0.1-0.37-0.1-0.53,0l-1.77,1.13L6,21.9l1.11-1.75c0.1-0.16,0.1-0.37,0-0.54   c-0.54-0.85-0.93-1.79-1.17-2.81c-0.04-0.19-0.19-0.33-0.38-0.38L3.52,16v-2.49l2.04-0.45c0.19-0.04,0.33-0.19,0.38-0.37   c0.24-1.01,0.63-1.94,1.16-2.78c0.1-0.16,0.1-0.38,0-0.54l-1.16-1.8L7.7,5.81L9.5,6.96c0.16,0.1,0.37,0.1,0.53,0   c0.83-0.51,1.75-0.9,2.73-1.13c0.19-0.04,0.33-0.19,0.37-0.38l0.47-2.13h2.49l0.47,2.13c0.04,0.19,0.19,0.34,0.37,0.38   c0.94,0.22,1.85,0.59,2.69,1.11c0.01,0.01,0.02,0.01,0.03,0.02c-0.03,0.03-0.07,0.07-0.1,0.1c-0.39,0.36-0.78,0.73-1.14,1.12   c-0.08,0.08-0.15,0.16-0.23,0.25c-0.34,0.38-0.67,0.77-0.99,1.17c-0.04,0.05-0.09,0.1-0.13,0.15c-0.72-0.33-1.46-0.49-2.22-0.49   c-3.02,0-5.48,2.46-5.48,5.49c0,2.26,1.38,4.25,3.47,5.07c-0.02,0.12-0.04,0.24-0.05,0.36c0,0,0,0,0,0.01   c-0.06,0.5-0.09,1.01-0.11,1.51c-0.01,0.14-0.01,0.28-0.02,0.42c-0.01,0.47-0.01,0.95,0.01,1.42   C12.66,23.56,12.66,23.59,12.66,23.62z M13.01,18.8c-1.59-0.72-2.63-2.27-2.63-4.04c0-2.48,2.01-4.49,4.48-4.49   c0.55,0,1.08,0.11,1.61,0.32C14.77,13,13.56,15.79,13.01,18.8z M39.12,62.78c-0.22,0.44-0.66,0.72-1.16,0.72h-8.23   c-0.5,0-0.94-0.28-1.16-0.72l-1.41-2.85h13.37L39.12,62.78z M45.22,57.5c0,0.79-0.64,1.43-1.43,1.43h-2.45H26.35h-2.46   c-0.79,0-1.43-0.64-1.43-1.43V47.23c0-0.65,0.44-1.19,1.03-1.37c0,0,0.01,0,0.01,0c0.15-0.04,0.28-0.06,0.4-0.06h19.89   c0.13,0,0.27,0.02,0.43,0.08c0.01,0,0.01,0,0.02,0c0.57,0.19,0.99,0.72,0.99,1.36V57.5z M23.89,44.8c-0.06,0-0.13,0-0.19,0.01   c-1.09-3.3-2.74-6.21-4.93-8.65c-2.48-2.77-4.09-6.06-4.77-9.6c0-0.02,0.01-0.04,0-0.06c-0.28-1.49-0.39-3-0.34-4.51   c0-0.09,0.01-0.17,0.01-0.26c0.02-0.48,0.06-0.96,0.11-1.43c0.03-0.22,0.07-0.44,0.11-0.66l0.01-0.07c0,0,0,0,0,0   c0.51-3.28,1.81-6.3,3.72-8.87c0,0,0.01,0,0.01-0.01c0.35-0.47,0.72-0.92,1.11-1.36c0,0,0.01-0.01,0.01-0.01   c0.39-0.43,0.79-0.85,1.21-1.25c0,0,0.01-0.01,0.01-0.01c0.85-0.8,1.77-1.53,2.75-2.19c0,0,0,0,0,0c2.6-1.72,5.6-2.88,8.83-3.23   c5.83-0.64,11.43,1.14,15.76,5.02c4.27,3.83,6.73,9.32,6.73,15.06c0,1-0.09,2-0.24,2.98c-0.06,0.38-0.12,0.75-0.2,1.12   c-0.01,0.07-0.03,0.13-0.05,0.2c-0.11,0.53-0.25,1.04-0.4,1.55c-0.09,0.29-0.18,0.58-0.28,0.87c-0.06,0.18-0.13,0.36-0.2,0.54   c-0.83,2.17-2.04,4.19-3.58,5.97c-0.64,0.73-1.22,1.51-1.77,2.31c-0.34,0.49-0.65,0.99-0.96,1.5c-0.14,0.23-0.27,0.47-0.41,0.71   c-0.33,0.6-0.64,1.21-0.93,1.83c-0.05,0.1-0.09,0.21-0.14,0.31c-0.13,0.3-0.27,0.6-0.39,0.9c-0.01,0.04,0,0.07-0.01,0.11   c-0.16,0.4-0.33,0.79-0.47,1.21c-0.08-0.01-0.17-0.01-0.25-0.01H23.89z M62.48,35.98l-2.12,0.46c-0.19,0.04-0.34,0.19-0.38,0.38   c-0.22,0.97-0.6,1.89-1.1,2.73c-0.1,0.16-0.1,0.37,0.01,0.53l1.17,1.83l-1.76,1.76l-1.79-1.14c-0.16-0.11-0.38-0.11-0.54,0   c-0.84,0.54-1.77,0.93-2.76,1.18c-0.19,0.05-0.33,0.19-0.37,0.38l-0.45,2.08H49.9l-0.45-2.04c-0.04-0.19-0.19-0.34-0.38-0.38   c-0.99-0.22-1.93-0.61-2.81-1.14c-0.07-0.04-0.15-0.07-0.23-0.07c0.02-0.05,0.04-0.1,0.07-0.14c0.52-1.09,1.1-2.14,1.76-3.13   c0.94,0.68,2.05,1.05,3.2,1.05c3.02,0,5.48-2.46,5.48-5.48c0-1.99-1.09-3.82-2.81-4.78c0.43-1.16,0.76-2.36,0.98-3.59   c0.43,0.18,0.8,0.37,1.13,0.57c0.16,0.1,0.37,0.1,0.53,0l1.86-1.2L60,27.57l-1.19,1.85c-0.11,0.16-0.11,0.37,0,0.54   c0.52,0.83,0.91,1.73,1.14,2.69c0.04,0.19,0.19,0.33,0.38,0.37l2.16,0.47V35.98z"/></g></svg>