<?xml version="1.0" encoding="UTF-8" ?>
<!DOCTYPE svg PUBLIC "-//W3C//DTD SVG 1.1//EN" "http://www.w3.org/Graphics/SVG/1.1/DTD/svg11.dtd">
<svg width="383pt" height="319pt" viewBox="0 0 383 319" version="1.1" xmlns="http://www.w3.org/2000/svg">
  <g id="#93d814fe">
    <path fill="#93d814" opacity="1.00"
      d=" M 109.06 26.11 C 130.58 23.58 152.96 27.30 172.52 36.61 C 167.30 36.83 162.62 34.32 157.62 33.30 C 141.47 29.13 124.40 27.80 107.94 30.82 C 95.90 33.65 82.76 39.82 78.00 52.09 C 75.31 57.68 76.40 63.97 76.36 69.93 C 71.95 61.60 73.33 50.94 78.17 43.09 C 85.00 32.74 97.34 28.13 109.06 26.11 Z" />
  </g>
  <g id="#48b61afd">
    <path fill="#48b61a" opacity="1.00"
      d=" M 97.97 43.97 C 107.50 34.91 121.43 33.19 134.02 33.44 C 162.10 35.30 188.84 46.25 213.00 60.20 C 214.92 61.03 212.88 62.79 212.39 63.88 C 189.59 50.56 164.46 40.04 137.98 37.52 C 125.74 36.88 112.22 37.28 102.10 45.11 C 92.99 52.10 90.98 65.01 93.35 75.66 C 94.52 83.88 98.92 91.09 100.93 99.05 C 95.37 91.70 92.31 82.73 90.28 73.84 C 88.11 63.44 89.99 51.52 97.97 43.97 Z" />
  </g>
  <g id="#fedd5aff">
    <path fill="#fedd5a" opacity="1.00"
      d=" M 238.70 46.27 C 241.16 43.32 243.69 37.87 248.35 39.63 C 252.62 40.63 256.94 41.38 261.30 41.89 C 259.52 44.83 257.19 47.43 254.56 49.63 C 249.14 49.69 243.92 47.55 238.70 46.27 Z" />
  </g>
  <g id="#fede5aff">
    <path fill="#fede5a" opacity="1.00"
      d=" M 265.64 42.31 C 272.11 43.46 278.77 43.04 285.16 44.61 C 282.68 47.66 280.16 50.70 277.39 53.50 C 271.22 52.61 265.01 52.04 258.86 51.02 C 259.93 47.34 263.27 45.11 265.64 42.31 Z" />
    <path fill="#fede5a" opacity="1.00"
      d=" M 246.77 63.04 C 249.13 58.88 253.37 56.29 256.11 52.41 C 262.53 53.41 269.00 54.04 275.36 55.40 C 272.28 59.42 268.62 62.93 265.27 66.72 C 258.99 66.08 253.02 63.83 246.77 63.04 Z" />
    <path fill="#fede5a" opacity="1.00"
      d=" M 279.62 55.54 C 285.92 56.18 292.20 57.03 298.51 57.49 C 296.71 59.91 294.88 62.30 292.98 64.64 C 291.61 66.32 290.19 67.96 288.83 69.65 C 282.41 69.28 276.12 67.84 269.73 67.26 C 272.41 62.85 276.67 59.75 279.62 55.54 Z" />
    <path fill="#fede5a" opacity="1.00"
      d=" M 294.07 68.29 C 296.89 64.73 299.27 60.62 302.84 57.77 C 307.69 57.37 312.53 58.04 317.34 58.60 C 314.59 62.86 312.07 67.33 308.75 71.17 C 305.29 71.63 301.82 70.76 298.36 70.70 C 296.53 70.59 294.70 70.42 292.89 70.23 C 293.18 69.75 293.77 68.78 294.07 68.29 Z" />
    <path fill="#fede5a" opacity="1.00"
      d=" M 253.97 83.08 C 257.59 77.94 262.51 73.91 266.72 69.28 C 272.80 70.74 280.36 70.22 285.62 72.49 C 283.00 77.18 278.19 81.34 274.39 85.48 C 267.55 86.48 260.75 83.87 253.97 83.08 Z" />
    <path fill="#fede5a" opacity="1.00"
      d=" M 290.28 72.55 C 295.83 72.85 301.39 73.30 306.86 74.35 C 303.98 78.50 300.82 82.46 297.82 86.53 C 297.42 87.07 296.63 88.17 296.24 88.72 C 290.12 88.29 283.89 88.09 277.99 86.29 C 281.52 82.75 284.75 78.95 288.01 75.18 C 288.76 74.30 289.52 73.43 290.28 72.55 Z" />
    <path fill="#fede5a" opacity="1.00"
      d=" M 233.83 100.23 C 239.26 95.12 244.96 90.32 250.66 85.53 C 257.07 87.51 263.88 87.20 270.32 88.98 C 266.06 94.85 260.29 99.49 254.87 104.23 C 247.77 103.51 240.70 102.18 233.83 100.23 Z" />
    <path fill="#fede5a" opacity="1.00"
      d=" M 260.12 104.82 C 264.79 99.44 269.98 94.54 274.91 89.40 C 281.02 90.52 287.25 90.46 293.36 91.47 C 289.53 97.36 284.43 102.29 279.93 107.66 C 273.30 106.97 266.54 106.76 260.12 104.82 Z" />
    <path fill="#fede5a" opacity="1.00"
      d=" M 237.95 124.90 C 243.33 118.81 250.19 114.18 255.86 108.34 C 262.66 109.33 269.56 109.45 276.32 110.69 C 271.77 117.09 265.67 122.21 260.10 127.70 C 252.65 127.47 245.30 126.05 237.95 124.90 Z" />
    <path fill="#fede5a" opacity="1.00"
      d=" M 264.73 128.37 C 269.10 121.66 276.04 117.03 280.77 110.52 C 286.23 110.86 291.65 111.58 297.13 111.74 C 293.52 117.83 288.63 122.98 284.45 128.65 C 277.87 128.73 271.30 128.67 264.73 128.37 Z" />
    <path fill="#fede5a" opacity="1.00"
      d=" M 203.23 123.22 C 204.87 121.73 207.10 122.45 208.99 122.90 C 215.22 124.67 221.62 125.71 227.96 127.00 C 220.98 133.05 213.32 138.20 205.89 143.65 C 199.31 142.86 192.82 141.38 186.49 139.45 C 185.77 138.24 185.06 137.04 184.35 135.84 C 190.62 131.60 197.01 127.53 203.23 123.22 Z" />
    <path fill="#fede5a" opacity="1.00"
      d=" M 232.64 128.54 C 240.20 128.10 247.73 130.95 255.39 130.83 C 250.34 138.02 242.25 142.30 236.21 148.60 C 227.98 147.85 219.87 146.35 211.72 145.02 C 218.11 138.90 225.81 134.18 232.64 128.54 Z" />
    <path fill="#fede5a" opacity="1.00"
      d=" M 241.96 148.95 C 247.98 142.88 254.91 137.77 260.67 131.43 C 267.45 132.10 274.36 130.99 281.05 132.46 C 275.40 138.34 270.61 145.28 264.13 150.23 C 256.73 150.63 249.34 149.39 241.96 148.95 Z" />
    <path fill="#fede5a" opacity="1.00"
      d=" M 56.93 150.02 C 68.49 146.23 79.93 142.09 91.15 137.38 C 96.46 140.87 101.92 144.12 107.70 146.75 C 107.69 147.09 107.67 147.77 107.66 148.10 C 97.05 152.26 86.73 157.37 75.86 160.72 C 68.75 159.39 62.76 154.16 56.93 150.02 Z" />
    <path fill="#fede5a" opacity="1.00"
      d=" M 214.60 170.16 C 221.22 163.44 229.88 158.91 236.89 152.49 C 244.98 152.64 253.02 153.59 261.12 153.45 C 254.58 159.56 248.34 166.17 240.87 171.13 C 232.12 171.81 223.37 170.10 214.60 170.16 Z" />
    <path fill="#fede5a" opacity="1.00"
      d=" M 129.84 165.81 C 131.71 165.14 134.17 163.11 135.94 164.99 C 140.86 169.43 146.54 172.84 152.33 176.01 C 147.54 178.46 142.83 181.06 137.89 183.18 C 128.32 181.69 119.05 178.42 109.83 175.47 C 116.18 171.66 123.30 169.31 129.84 165.81 Z" />
  </g>
  <g id="#fede5bff">
    <path fill="#fede5b" opacity="1.00"
      d=" M 283.32 51.47 C 285.36 49.05 287.20 46.31 289.82 44.49 C 295.87 44.57 301.92 44.90 307.98 44.88 C 305.93 48.75 303.30 52.26 300.35 55.49 C 294.20 54.54 287.93 54.63 281.81 53.43 C 282.19 52.94 282.95 51.96 283.32 51.47 Z" />
    <path fill="#fede5b" opacity="1.00"
      d=" M 236.23 48.25 C 241.60 48.81 246.75 50.80 252.05 51.85 C 248.72 55.18 245.76 59.13 241.82 61.72 C 236.88 61.62 232.42 59.08 227.63 58.13 C 227.55 57.69 227.40 56.81 227.32 56.37 C 230.44 53.83 233.08 50.74 236.23 48.25 Z" />
    <path fill="#fede5b" opacity="1.00"
      d=" M 243.40 65.25 C 249.65 66.71 255.97 67.84 262.34 68.71 C 258.22 73.36 253.66 77.79 248.89 81.68 C 242.35 81.35 236.00 79.25 229.81 77.24 C 234.57 73.51 238.92 69.30 243.40 65.25 Z" />
    <path fill="#fede5b" opacity="1.00"
      d=" M 209.62 93.96 C 214.92 89.14 220.66 84.75 226.32 80.37 C 232.69 81.67 239.02 83.42 245.37 84.92 C 240.53 89.91 235.21 94.51 229.59 98.59 C 222.65 99.21 216.18 95.72 209.62 93.96 Z" />
    <path fill="#fede5b" opacity="1.00"
      d=" M 283.95 108.15 C 287.51 102.11 292.75 97.30 296.93 91.71 C 301.32 91.72 305.78 91.30 310.07 92.48 C 306.64 97.92 303.75 103.96 299.19 108.52 C 294.11 108.83 289.02 108.56 283.95 108.15 Z" />
    <path fill="#fede5b" opacity="1.00"
      d=" M 184.05 111.08 C 191.05 106.21 198.34 101.75 205.04 96.46 C 211.34 98.68 217.82 100.35 224.27 102.10 C 218.89 108.36 211.36 112.48 204.92 117.61 C 197.88 115.70 190.80 113.89 184.05 111.08 Z" />
    <path fill="#fede5b" opacity="1.00"
      d=" M 169.44 120.76 C 172.30 118.09 175.70 116.06 179.15 114.26 C 186.17 116.23 193.13 118.64 200.10 120.86 C 194.14 124.90 188.25 129.05 182.05 132.72 C 178.57 128.02 174.20 124.10 169.44 120.76 Z" />
    <path fill="#fede5b" opacity="1.00"
      d=" M 193.54 156.70 C 197.64 153.88 201.72 150.96 205.99 148.40 C 214.47 149.07 222.77 151.46 231.31 151.85 C 224.12 158.41 215.91 163.81 207.90 169.30 C 203.69 168.94 199.35 168.68 195.27 167.51 C 194.50 164.00 193.17 160.25 193.54 156.70 Z" />
  </g>
  <g id="#120f0812">
    <path fill="#120f08" opacity="0.07"
      d=" M 307.98 44.88 C 308.37 46.11 308.77 47.33 309.18 48.56 C 307.52 50.84 305.88 53.14 304.31 55.48 C 309.17 56.26 314.10 56.48 319.02 56.51 C 321.30 53.04 323.26 49.38 325.43 45.84 C 325.88 45.83 326.80 45.81 327.26 45.80 C 325.23 49.31 323.14 52.77 321.22 56.34 C 323.51 56.53 325.81 56.69 328.11 56.82 C 327.82 57.23 327.23 58.04 326.94 58.45 C 324.60 58.45 322.25 58.48 319.91 58.52 C 317.17 62.82 314.44 67.14 311.82 71.52 C 314.83 72.04 317.88 72.34 320.94 72.39 C 320.29 73.89 319.57 75.36 318.78 76.79 C 319.07 76.21 319.65 75.03 319.94 74.44 C 316.11 74.01 310.65 72.03 308.19 76.15 C 305.09 80.39 301.94 84.62 299.30 89.17 C 298.80 88.29 298.31 87.41 297.82 86.53 C 300.82 82.46 303.98 78.50 306.86 74.35 C 301.39 73.30 295.83 72.85 290.28 72.55 C 289.52 73.43 288.76 74.30 288.01 75.18 C 288.19 74.53 288.54 73.24 288.71 72.59 C 291.92 71.93 295.09 71.03 298.36 70.70 C 301.82 70.76 305.29 71.63 308.75 71.17 C 312.07 67.33 314.59 62.86 317.34 58.60 C 312.53 58.04 307.69 57.37 302.84 57.77 C 299.27 60.62 296.89 64.73 294.07 68.29 C 293.69 67.08 293.33 65.86 292.98 64.64 C 294.88 62.30 296.71 59.91 298.51 57.49 C 292.20 57.03 285.92 56.18 279.62 55.54 C 280.82 54.15 282.06 52.80 283.32 51.47 C 282.95 51.96 282.19 52.94 281.81 53.43 C 287.93 54.63 294.20 54.54 300.35 55.49 C 303.30 52.26 305.93 48.75 307.98 44.88 Z" />
  </g>
  <g id="#fedf5bff">
    <path fill="#fedf5b" opacity="1.00"
      d=" M 311.49 45.35 C 316.13 45.31 320.80 45.29 325.43 45.84 C 323.26 49.38 321.30 53.04 319.02 56.51 C 314.10 56.48 309.17 56.26 304.31 55.48 C 305.88 53.14 307.52 50.84 309.18 48.56 C 309.95 47.49 310.71 46.42 311.49 45.35 Z" />
    <path fill="#fedf5b" opacity="1.00"
      d=" M 164.18 101.98 C 171.23 97.20 178.78 93.19 185.81 88.36 C 190.47 91.02 195.48 92.99 200.42 95.08 C 194.55 101.10 186.83 104.95 179.95 109.69 C 174.57 107.38 169.14 105.13 164.18 101.98 Z" />
  </g>
  <g id="#fcdf5efe">
    <path fill="#fcdf5e" opacity="1.00"
      d=" M 327.44 45.48 C 328.95 45.50 330.46 45.52 331.97 45.54 C 331.41 49.52 329.67 53.16 328.11 56.82 C 325.81 56.69 323.51 56.53 321.22 56.34 C 323.14 52.77 325.23 49.31 327.26 45.80 L 327.44 45.48 Z" />
  </g>
  <g id="#fbdf5efe">
    <path fill="#fbdf5e" opacity="1.00"
      d=" M 149.73 47.33 C 150.42 48.36 151.12 49.39 151.82 50.41 C 153.22 50.56 154.61 50.72 156.01 50.86 C 153.70 52.70 152.10 55.13 151.94 58.13 C 151.34 56.99 150.75 55.85 150.15 54.71 C 148.82 54.27 147.49 53.84 146.15 53.41 C 148.52 52.22 149.26 49.77 149.73 47.33 Z" />
  </g>
  <g id="#fede5cff">
    <path fill="#fede5c" opacity="1.00"
      d=" M 319.91 58.52 C 322.25 58.48 324.60 58.45 326.94 58.45 C 325.74 63.41 323.00 67.77 320.94 72.39 C 317.88 72.34 314.83 72.04 311.82 71.52 C 314.44 67.14 317.17 62.82 319.91 58.52 Z" />
  </g>
  <g id="#fddf5aff">
    <path fill="#fddf5a" opacity="1.00"
      d=" M 224.02 59.23 C 228.94 61.08 233.89 62.88 239.04 63.99 C 235.36 68.71 230.48 72.46 225.90 76.29 C 220.83 75.50 216.02 73.33 211.32 71.30 C 211.32 70.86 211.34 69.98 211.34 69.54 C 215.84 66.45 220.15 63.08 224.02 59.23 Z" />
  </g>
  <g id="#fbdc58fd">
    <path fill="#fbdc58" opacity="1.00"
      d=" M 173.41 65.96 C 174.95 70.47 178.85 72.86 183.58 72.72 C 178.76 73.51 176.62 77.88 177.23 82.47 C 176.01 78.05 172.27 75.43 167.64 76.20 C 171.65 74.24 174.32 70.66 173.41 65.96 Z" />
  </g>
  <g id="#fdde5aff">
    <path fill="#fdde5a" opacity="1.00"
      d=" M 139.39 72.66 C 141.15 76.03 142.15 80.24 145.63 82.29 C 148.85 84.31 152.79 83.40 156.36 83.63 C 152.98 85.63 148.77 86.96 146.76 90.61 C 145.44 93.83 145.76 97.38 145.59 100.78 C 144.19 97.60 143.11 93.94 140.12 91.84 C 136.88 89.49 132.62 90.67 128.91 90.27 C 131.85 88.46 135.35 87.32 137.60 84.59 C 140.22 81.17 139.06 76.63 139.39 72.66 Z" />
    <path fill="#fdde5a" opacity="1.00"
      d=" M 207.10 73.13 C 211.96 75.46 216.99 77.44 222.18 78.91 C 216.82 83.91 210.85 88.20 204.95 92.53 C 200.20 90.49 193.56 89.34 190.40 85.73 C 195.42 81.23 201.86 77.70 207.10 73.13 Z" />
  </g>
  <g id="#fedf5aff">
    <path fill="#fedf5a" opacity="1.00"
      d=" M 308.19 76.15 C 310.65 72.03 316.11 74.01 319.94 74.44 C 319.65 75.03 319.07 76.21 318.78 76.79 C 316.63 81.05 314.14 85.13 311.93 89.35 C 307.72 89.56 303.50 89.58 299.30 89.17 C 301.94 84.62 305.09 80.39 308.19 76.15 Z" />
    <path fill="#fedf5a" opacity="1.00"
      d=" M 97.88 134.97 C 104.17 132.00 110.61 129.30 117.13 126.86 C 117.57 132.09 119.05 137.13 120.61 142.11 C 118.76 142.96 117.02 144.17 115.01 144.58 C 108.94 142.13 103.16 138.85 97.88 134.97 Z" />
  </g>
  <g id="#fdde5bff">
    <path fill="#fdde5b" opacity="1.00"
      d=" M 209.87 118.98 C 216.14 113.35 223.34 108.83 229.74 103.33 C 236.88 104.93 244.13 106.01 251.25 107.72 C 245.43 113.29 239.04 118.24 232.88 123.41 C 225.06 123.22 217.53 120.44 209.87 118.98 Z" />
    <path fill="#fdde5b" opacity="1.00"
      d=" M 204.62 176.90 C 206.36 174.61 208.93 172.77 211.97 173.50 C 220.08 174.46 228.24 174.55 236.40 174.76 C 232.90 178.18 229.08 181.38 224.82 183.78 C 217.73 182.83 211.28 179.34 204.62 176.90 Z" />
  </g>
  <g id="#37b602ff">
    <path fill="#37b602" opacity="1.00"
      d=" M 122.89 104.15 C 135.50 114.33 152.61 115.22 165.99 124.01 C 182.31 134.18 188.56 153.70 190.86 171.79 C 180.97 166.50 171.56 160.27 162.96 153.05 C 156.75 148.37 160.31 139.60 159.08 133.03 C 157.19 137.49 156.34 142.29 156.09 147.11 C 148.85 140.47 142.81 132.71 135.97 125.70 C 137.70 129.94 140.42 133.65 143.01 137.39 C 139.64 137.89 136.27 138.44 132.95 139.18 C 137.32 140.33 142.20 139.81 146.33 141.68 C 153.78 149.13 160.94 156.95 169.41 163.31 C 166.25 163.41 163.07 163.47 159.97 164.13 C 164.96 164.96 170.18 165.07 174.88 167.12 C 195.28 178.74 217.25 188.09 240.36 192.66 C 252.61 194.59 265.45 195.55 277.37 191.37 C 284.88 189.14 291.13 183.43 294.43 176.37 C 295.20 177.19 295.95 178.01 296.72 178.84 C 291.09 191.40 276.83 196.63 263.98 197.56 C 238.59 199.14 213.85 190.55 191.38 179.50 C 187.49 177.72 183.07 178.63 178.95 177.91 C 163.16 176.54 146.84 171.08 136.03 158.98 C 122.54 144.56 118.21 123.06 122.89 104.15 Z" />
  </g>
  <g id="#fddf5bff">
    <path fill="#fddf5b" opacity="1.00"
      d=" M 148.62 111.06 C 151.82 108.62 155.40 106.67 159.14 105.19 C 164.49 107.24 169.35 110.56 174.95 112.13 C 172.32 114.83 168.84 116.39 165.82 118.58 C 160.39 115.41 154.40 113.45 148.62 111.06 Z" />
  </g>
  <g id="#48b619fd">
    <path fill="#48b619" opacity="1.00"
      d=" M 286.31 131.69 C 286.92 131.55 288.16 131.27 288.78 131.12 C 296.67 145.33 303.57 162.86 296.72 178.84 C 295.95 178.01 295.20 177.19 294.43 176.37 C 298.36 164.84 295.53 152.30 290.43 141.62 C 289.01 138.33 286.59 135.37 286.31 131.69 Z" />
  </g>
  <g id="#f4dd64fc">
    <path fill="#f4dd64" opacity="1.00"
      d=" M 121.08 145.30 C 122.83 144.86 123.84 147.90 122.09 148.48 C 120.35 148.87 119.24 145.85 121.08 145.30 Z" />
    <path fill="#f4dd64" opacity="1.00"
      d=" M 195.61 171.65 C 197.97 171.99 200.31 172.43 202.64 172.92 C 200.57 175.47 196.77 174.68 195.61 171.65 Z" />
    <path fill="#f4dd64" opacity="1.00"
      d=" M 144.75 185.24 C 149.09 182.25 155.94 175.57 160.99 179.98 C 155.34 181.07 150.57 185.34 144.75 185.24 Z" />
  </g>
  <g id="#fcdd59fe">
    <path fill="#fcdd59" opacity="1.00"
      d=" M 191.89 152.90 C 190.81 150.11 189.63 147.32 189.28 144.32 C 192.82 145.49 196.45 146.39 200.11 147.13 C 197.50 149.23 194.72 151.11 191.89 152.90 Z" />
  </g>
  <g id="#fede59ff">
    <path fill="#fede59" opacity="1.00"
      d=" M 79.74 163.13 C 91.20 159.79 101.79 154.00 113.00 150.14 C 119.50 152.55 128.40 153.57 131.24 160.94 C 122.20 165.30 113.06 169.44 103.86 173.44 C 95.65 170.44 87.25 167.69 79.74 163.13 Z" />
  </g>
  <g id="#92d70efe">
    <path fill="#92d70e" opacity="1.00"
      d=" M 314.43 162.48 C 317.41 171.69 317.42 182.45 311.53 190.55 C 305.93 198.55 296.68 203.10 287.38 205.27 C 265.80 210.42 243.08 206.29 222.62 198.63 C 223.47 198.54 225.16 198.35 226.00 198.26 C 250.23 204.43 278.29 208.73 300.71 194.75 C 311.78 188.04 315.84 174.83 314.43 162.48 Z" />
  </g>
  <g id="#38b602ff">
    <path fill="#38b602" opacity="1.00"
      d=" M 153.35 187.38 C 164.77 181.40 178.00 182.30 190.46 182.62 C 190.55 183.03 190.71 183.86 190.79 184.28 C 177.63 186.73 164.80 191.67 153.57 198.98 C 168.40 193.93 183.50 189.36 199.06 187.25 C 192.35 197.11 183.32 206.10 171.62 209.59 C 158.65 214.49 144.49 209.11 131.39 212.61 C 134.37 201.35 142.90 192.23 153.35 187.38 Z" />
  </g>
  <g id="#a9af60b9">
    <path fill="#a9af60" opacity="0.73"
      d=" M 201.32 192.30 C 201.89 187.57 206.51 190.70 208.60 192.34 C 206.17 192.39 203.74 192.37 201.32 192.30 Z" />
  </g>
  <g id="#586a3876">
    <path fill="#586a38" opacity="0.46"
      d=" M 217.41 196.09 C 220.39 196.18 223.52 196.41 226.00 198.26 C 225.16 198.35 223.47 198.54 222.62 198.63 C 220.59 198.74 219.05 197.02 217.41 196.09 Z" />
  </g>
  <g id="#39b604ff">
    <path fill="#39b604" opacity="1.00"
      d=" M 96.43 235.69 C 104.38 234.34 115.25 236.39 117.76 245.29 C 119.31 252.06 119.72 260.32 115.00 265.98 C 109.99 271.57 101.79 271.13 94.98 270.38 C 78.45 267.06 79.30 237.47 96.43 235.69 M 97.30 243.30 C 91.41 245.61 91.68 253.04 92.72 258.19 C 94.24 263.81 101.21 264.72 105.88 262.90 C 110.57 259.86 111.07 253.24 109.57 248.33 C 108.25 243.27 101.76 241.32 97.30 243.30 Z" />
    <path fill="#39b604" opacity="1.00"
      d=" M 130.32 236.46 C 139.19 233.50 154.20 235.36 153.61 247.56 C 150.87 247.58 148.13 247.58 145.39 247.55 C 144.63 239.80 128.56 240.78 132.69 249.38 C 139.04 249.89 146.29 248.19 151.83 252.17 C 156.52 257.30 155.15 267.82 147.85 269.91 C 142.38 271.20 136.56 271.00 131.02 270.20 C 125.72 269.08 122.91 263.63 123.19 258.54 C 125.86 258.51 128.54 258.51 131.22 258.53 C 132.32 265.33 139.54 263.54 144.53 263.43 C 145.36 261.64 145.63 259.70 145.55 257.75 C 140.36 256.01 134.86 256.96 129.55 256.21 C 120.51 253.84 121.23 238.29 130.32 236.46 Z" />
  </g>
  <g id="#39b504ff">
    <path fill="#39b504" opacity="1.00"
      d=" M 12.27 236.50 C 21.50 236.06 30.76 236.42 40.01 236.35 C 40.35 238.72 40.13 241.10 39.49 243.41 C 33.17 243.35 26.85 243.35 20.53 243.50 C 20.57 245.46 20.61 247.42 20.65 249.39 C 25.54 249.48 30.44 249.38 35.33 249.70 C 35.04 251.85 35.93 254.53 34.68 256.38 C 29.99 256.85 25.27 256.46 20.56 256.61 C 20.57 258.84 20.59 261.07 20.63 263.30 C 27.06 263.41 33.49 263.43 39.92 263.39 C 40.35 265.75 40.15 268.14 39.56 270.46 C 30.63 270.33 21.68 270.64 12.75 270.35 C 10.63 268.21 12.04 264.71 11.64 261.99 C 12.12 253.55 10.84 244.63 12.27 236.50 Z" />
  </g>
  <g id="#38b604ff">
    <path fill="#38b604" opacity="1.00"
      d=" M 47.44 241.42 C 55.63 231.34 77.04 233.36 79.80 247.47 C 77.24 248.27 74.55 248.36 71.89 248.29 C 68.82 241.53 57.56 240.18 54.22 247.28 C 52.58 252.56 52.46 260.77 58.52 263.25 C 62.26 263.87 67.28 264.41 69.52 260.58 C 71.50 256.73 76.34 258.62 79.77 258.58 C 78.96 271.25 63.69 272.37 54.16 269.89 C 42.96 265.96 42.20 250.34 47.44 241.42 Z" />
    <path fill="#38b604" opacity="1.00"
      d=" M 158.97 236.44 C 161.91 236.35 164.86 236.35 167.81 236.37 C 170.61 240.66 173.29 245.03 176.12 249.30 C 179.04 245.10 181.61 240.67 184.43 236.41 C 187.37 236.37 190.32 236.36 193.27 236.43 C 190.00 242.33 186.12 247.85 182.57 253.58 C 178.85 258.40 180.97 264.81 180.38 270.40 C 177.52 270.41 174.67 270.40 171.82 270.37 C 171.57 265.79 172.25 261.10 171.38 256.59 C 167.48 249.74 162.91 243.28 158.97 236.44 Z" />
    <path fill="#38b604" opacity="1.00"
      d=" M 204.58 236.64 C 213.61 233.49 228.52 235.08 228.67 247.38 C 225.88 247.58 223.08 247.62 220.29 247.58 C 219.46 239.72 203.01 240.81 207.52 249.45 C 212.90 249.71 218.47 248.86 223.68 250.56 C 231.91 253.38 231.07 267.64 222.70 269.80 C 217.29 271.25 211.50 270.96 205.98 270.26 C 200.60 269.17 197.78 263.67 198.09 258.53 C 200.77 258.51 203.46 258.51 206.16 258.53 C 206.86 265.41 214.29 263.59 219.14 263.33 C 219.50 262.78 220.22 261.67 220.58 261.11 C 220.51 260.28 220.38 258.62 220.31 257.79 C 213.76 254.82 204.92 259.31 199.81 253.18 C 196.58 247.82 197.64 238.50 204.58 236.64 Z" />
    <path fill="#38b604" opacity="1.00"
      d=" M 233.55 236.40 C 243.56 236.31 253.57 236.29 263.58 236.41 C 263.55 238.71 263.51 241.01 263.44 243.31 C 259.90 243.37 256.36 243.40 252.82 243.41 C 252.64 252.41 252.92 261.42 252.56 270.42 C 249.84 270.42 247.12 270.42 244.40 270.44 C 243.89 261.43 244.68 252.40 243.90 243.41 C 240.47 243.38 237.04 243.37 233.62 243.34 C 233.58 241.02 233.55 238.71 233.55 236.40 Z" />
  </g>
  <g id="#38b603ff">
    <path fill="#38b603" opacity="1.00"
      d=" M 268.27 236.38 C 277.44 236.47 286.64 236.05 295.80 236.51 C 296.98 238.67 296.06 241.22 295.50 243.44 C 289.25 243.27 283.00 243.42 276.75 243.37 C 276.75 245.42 276.78 247.48 276.86 249.53 C 281.70 249.47 286.53 249.49 291.37 249.59 C 291.39 251.87 291.41 254.15 291.43 256.43 C 286.51 256.61 281.59 256.55 276.68 256.61 C 276.67 258.86 276.67 261.11 276.69 263.36 C 282.46 263.51 288.23 263.28 294.00 263.41 C 297.87 263.06 296.05 268.28 295.59 270.51 C 286.55 270.35 277.50 270.46 268.45 270.44 C 267.27 259.12 268.60 247.75 268.27 236.38 Z" />
    <path fill="#38b603" opacity="1.00"
      d=" M 331.51 236.37 C 335.14 236.30 338.77 236.30 342.40 236.49 C 342.31 247.79 342.53 259.08 342.31 270.38 C 339.41 270.42 336.52 270.44 333.62 270.44 C 333.49 264.99 333.74 259.53 333.34 254.09 C 330.02 259.21 328.66 265.27 325.56 270.51 C 322.63 270.44 319.71 270.43 316.79 270.42 C 314.10 264.95 312.20 259.14 309.50 253.67 C 308.91 259.27 309.87 264.97 308.58 270.49 C 305.91 270.44 303.24 270.43 300.58 270.42 C 300.33 259.07 300.49 247.72 300.54 236.38 C 304.06 236.33 307.57 236.34 311.09 236.43 C 315.04 243.93 316.75 252.73 321.85 259.49 C 325.04 251.78 328.05 243.97 331.51 236.37 Z" />
  </g>
  <g id="#38b605ff">
    <path fill="#38b605" opacity="1.00"
      d=" M 352.71 256.22 C 343.45 253.72 344.56 237.56 354.13 236.29 C 362.87 233.62 377.78 235.34 376.80 247.54 C 374.11 247.58 371.43 247.60 368.75 247.59 C 367.62 241.68 360.13 241.24 355.93 244.00 C 354.76 245.77 355.06 249.59 357.92 249.39 C 364.08 249.84 372.01 248.03 376.41 253.58 C 379.11 258.91 378.24 267.59 371.67 269.65 C 366.01 271.33 359.81 271.02 354.03 270.12 C 348.78 269.00 346.30 263.50 346.31 258.58 C 349.11 258.49 351.90 258.47 354.71 258.47 C 355.42 260.11 356.14 261.74 356.88 263.38 C 360.81 263.65 364.87 263.97 368.64 262.55 C 368.60 260.93 368.56 259.30 368.51 257.69 C 363.36 256.12 357.95 256.97 352.71 256.22 Z" />
  </g>
  <g id="#41b613fe">
    <path fill="#41b613" opacity="1.00"
      d=" M 147.94 281.92 C 151.85 280.70 156.14 281.12 159.98 282.43 C 159.51 283.47 159.04 284.51 158.56 285.55 C 154.96 284.37 151.13 284.14 147.62 285.73 C 147.38 288.83 146.64 292.13 147.81 295.12 C 150.22 297.70 154.21 296.34 157.33 296.51 C 157.72 295.22 158.11 293.92 158.50 292.63 C 156.75 292.55 155.00 292.48 153.24 292.42 C 153.22 291.38 153.19 290.35 153.16 289.32 C 156.03 289.31 158.91 289.31 161.78 289.34 C 161.59 292.79 162.20 297.52 158.40 299.29 C 153.41 301.84 144.80 300.55 143.81 294.03 C 143.14 289.81 143.30 283.81 147.94 281.92 Z" />
  </g>
  <g id="#3db70bfe">
    <path fill="#3db70b" opacity="1.00"
      d=" M 169.18 281.34 C 173.22 281.41 177.34 280.93 181.34 281.70 C 186.00 284.41 184.36 290.58 181.27 293.87 C 182.33 295.92 183.30 298.02 184.08 300.19 C 183.28 300.24 181.69 300.33 180.90 300.38 C 178.86 297.16 177.48 292.02 172.60 293.38 C 172.53 295.77 172.47 298.17 172.37 300.57 C 170.72 300.58 168.72 300.10 168.86 298.04 C 169.11 292.48 169.37 286.91 169.18 281.34 M 172.43 284.49 C 172.49 286.46 172.56 288.44 172.65 290.42 C 175.38 290.39 178.11 290.23 180.80 289.75 C 180.68 288.02 180.55 286.30 180.40 284.58 C 177.74 284.50 175.09 284.48 172.43 284.49 Z" />
  </g>
  <g id="#42b611ff">
    <path fill="#42b611" opacity="1.00"
      d=" M 197.32 281.48 C 201.56 281.02 207.67 280.53 209.61 285.38 C 211.15 289.74 211.35 296.09 207.00 298.94 C 202.16 301.47 194.09 301.03 192.00 295.12 C 190.58 290.25 191.17 282.56 197.32 281.48 M 195.57 285.65 C 194.83 289.09 193.72 293.68 196.82 296.28 C 199.54 296.91 202.45 296.91 205.18 296.28 C 208.25 293.75 207.18 289.04 206.43 285.62 C 202.91 284.17 199.07 284.13 195.57 285.65 Z" />
  </g>
  <g id="#40b60fff">
    <path fill="#40b60f" opacity="1.00"
      d=" M 217.55 281.51 C 218.63 281.40 219.71 281.31 220.80 281.22 C 220.76 286.29 220.54 291.41 221.71 296.38 C 224.61 296.41 229.50 298.02 230.38 294.05 C 230.78 289.83 230.45 285.58 230.53 281.35 C 231.60 281.33 232.68 281.32 233.76 281.31 C 233.68 286.33 234.23 291.44 233.31 296.42 C 230.60 301.57 222.21 301.79 218.72 297.41 C 216.60 292.41 218.01 286.77 217.55 281.51 Z" />
  </g>
  <g id="#3fb50efe">
    <path fill="#3fb50e" opacity="1.00"
      d=" M 240.88 281.35 C 245.03 281.40 249.26 280.90 253.36 281.69 C 257.62 284.02 257.21 291.02 252.89 293.10 C 250.15 293.60 247.35 293.43 244.58 293.51 C 244.61 295.82 245.19 302.64 241.35 299.68 C 239.93 293.87 241.06 287.41 240.88 281.35 M 244.47 284.49 C 244.50 286.47 244.54 288.45 244.61 290.43 C 247.35 290.35 250.08 290.09 252.77 289.59 C 254.18 283.85 248.49 284.10 244.47 284.49 Z" />
  </g>
</svg>