<?xml version="1.0" encoding="UTF-8" ?>
<!DOCTYPE svg PUBLIC "-//W3C//DTD SVG 1.1//EN" "http://www.w3.org/Graphics/SVG/1.1/DTD/svg11.dtd">
<svg width="505pt" height="450pt" viewBox="0 0 505 450" version="1.1" xmlns="http://www.w3.org/2000/svg">
<g id="#93d813ff">
<path fill="#93d813" opacity="1.00" d=" M 136.37 113.34 C 143.48 101.31 157.86 96.46 170.99 94.73 C 191.35 93.24 212.48 96.40 230.84 105.52 C 220.46 104.20 210.54 100.04 200.02 99.03 C 184.24 97.53 167.36 97.33 152.93 104.85 C 145.74 108.34 139.36 114.13 136.69 121.82 C 134.36 127.16 135.46 133.05 135.37 138.67 C 130.97 130.98 132.43 120.95 136.37 113.34 Z" />
</g>
<g id="#48b619fd">
<path fill="#48b619" opacity="1.00" d=" M 172.39 104.54 C 187.59 100.49 203.57 102.76 218.59 106.52 C 237.82 111.59 255.98 119.91 273.24 129.70 C 272.46 130.61 271.83 133.51 270.23 132.13 C 247.12 118.99 221.74 108.42 195.01 106.35 C 180.14 105.40 161.12 107.94 154.09 123.11 C 147.16 138.25 155.42 153.93 160.00 168.33 C 151.45 155.62 145.64 139.17 150.06 123.92 C 153.34 113.99 162.53 107.12 172.39 104.54 Z" />
</g>
<g id="#fedd5bff">
<path fill="#fedd5b" opacity="1.00" d=" M 297.70 115.31 C 300.10 112.31 302.67 106.94 307.33 108.65 C 311.56 109.59 315.83 110.33 320.14 110.79 C 318.81 114.00 316.19 116.45 313.56 118.61 C 308.14 118.84 302.94 116.48 297.70 115.31 Z" />
<path fill="#fedd5b" opacity="1.00" d=" M 198.38 141.85 C 200.14 144.93 201.11 148.70 204.01 150.97 C 207.23 153.27 211.37 152.49 215.07 152.69 C 211.75 154.65 207.68 156.05 205.73 159.63 C 204.70 162.84 204.79 166.27 204.60 169.60 C 203.09 166.52 202.02 162.93 199.11 160.85 C 195.83 158.57 191.61 159.66 187.89 159.30 C 191.00 157.35 194.84 156.17 197.00 153.01 C 199.07 149.66 198.05 145.55 198.38 141.85 Z" />
</g>
<g id="#fede5aff">
<path fill="#fede5a" opacity="1.00" d=" M 324.60 111.31 C 331.10 112.44 337.76 112.09 344.20 113.55 C 341.76 116.68 339.14 119.68 336.33 122.49 C 330.08 121.55 323.78 121.01 317.54 120.01 C 319.20 116.60 322.09 114.07 324.60 111.31 Z" />
<path fill="#fede5a" opacity="1.00" d=" M 315.10 121.42 C 321.59 122.30 328.10 123.14 334.51 124.57 C 330.94 128.21 327.69 132.14 324.16 135.82 C 317.85 134.96 311.78 132.90 305.48 132.00 C 308.28 128.11 312.24 125.26 315.10 121.42 Z" />
<path fill="#fede5a" opacity="1.00" d=" M 338.63 124.61 C 344.88 125.30 351.13 125.90 357.38 126.52 C 355.34 129.29 353.24 132.03 351.09 134.71 C 350.02 136.02 348.95 137.32 347.91 138.65 C 341.62 138.46 335.52 136.60 329.23 136.44 C 329.29 135.97 329.40 135.03 329.46 134.56 C 332.65 131.37 335.83 128.16 338.63 124.61 Z" />
<path fill="#fede5a" opacity="1.00" d=" M 266.10 142.14 C 270.94 144.43 275.93 146.42 281.08 147.93 C 275.71 152.86 269.91 157.27 264.00 161.52 C 258.71 159.80 253.49 157.78 248.67 154.98 C 254.46 150.68 260.48 146.69 266.10 142.14 Z" />
<path fill="#fede5a" opacity="1.00" d=" M 223.60 171.01 C 230.27 165.92 237.93 162.22 244.77 157.33 C 249.52 160.05 254.65 161.98 259.65 164.19 C 253.36 169.83 245.96 174.04 238.95 178.70 C 233.79 176.24 228.20 174.50 223.60 171.01 Z" />
<path fill="#fede5a" opacity="1.00" d=" M 318.89 174.13 C 323.51 168.53 329.00 163.75 333.89 158.40 C 340.02 159.39 346.23 159.58 352.35 160.53 C 348.52 166.41 343.40 171.27 338.95 176.66 C 332.21 176.33 325.53 175.27 318.89 174.13 Z" />
<path fill="#fede5a" opacity="1.00" d=" M 342.94 176.96 C 346.83 171.20 351.61 166.11 355.96 160.71 C 360.35 160.62 364.79 160.47 369.11 161.46 C 365.59 166.87 362.76 172.95 358.18 177.54 C 353.10 177.88 347.98 177.68 342.94 176.96 Z" />
<path fill="#fede5a" opacity="1.00" d=" M 243.20 180.08 C 250.09 175.12 257.38 170.74 264.05 165.47 C 270.46 167.70 277.03 169.42 283.58 171.16 C 277.72 177.09 270.50 181.51 263.94 186.63 C 256.97 184.62 249.86 183.01 243.20 180.08 Z" />
<path fill="#fede5a" opacity="1.00" d=" M 268.88 187.92 C 275.23 182.38 282.34 177.77 288.78 172.32 C 295.91 173.93 303.14 175.05 310.25 176.73 C 304.42 182.28 298.06 187.25 291.90 192.41 C 284.09 192.28 276.53 189.41 268.88 187.92 Z" />
<path fill="#fede5a" opacity="1.00" d=" M 323.59 197.34 C 328.26 190.81 334.88 185.96 339.71 179.53 C 345.21 179.63 350.66 180.49 356.15 180.75 C 352.49 186.81 347.61 191.97 343.43 197.66 C 336.82 197.79 330.20 197.69 323.59 197.34 Z" />
<path fill="#fede5a" opacity="1.00" d=" M 262.22 192.21 C 263.86 190.69 266.09 191.42 268.00 191.88 C 274.28 193.66 280.73 194.75 287.15 195.94 C 280.07 201.97 272.33 207.14 264.90 212.71 C 258.31 211.93 251.84 210.35 245.50 208.41 C 244.78 207.22 244.07 206.04 243.36 204.85 C 249.61 200.58 256.05 196.60 262.22 192.21 Z" />
<path fill="#fede5a" opacity="1.00" d=" M 156.88 203.97 C 163.20 201.00 169.71 198.47 176.10 195.65 C 176.60 200.93 178.03 206.05 179.57 211.10 C 177.74 211.96 176.00 213.08 174.03 213.59 C 167.91 211.23 162.21 207.77 156.88 203.97 Z" />
<path fill="#fede5a" opacity="1.00" d=" M 270.44 213.99 C 277.41 208.10 284.90 202.74 292.17 197.27 C 299.73 197.61 307.13 199.79 314.74 199.88 C 309.04 206.64 301.55 211.52 295.17 217.57 C 286.86 216.83 278.68 215.29 270.44 213.99 Z" />
<path fill="#fede5a" opacity="1.00" d=" M 116.54 218.83 C 127.91 215.13 139.12 210.98 150.15 206.39 C 155.64 210.34 161.91 212.95 167.48 216.73 C 156.36 221.03 145.60 226.77 134.08 229.75 C 127.66 227.48 121.32 223.75 116.54 218.83 Z" />
<path fill="#fede5a" opacity="1.00" d=" M 252.21 226.07 C 256.31 222.97 260.60 219.99 265.01 217.37 C 273.47 218.08 281.74 220.54 290.28 220.85 C 283.07 227.37 274.92 232.82 266.91 238.29 C 262.63 238.27 258.38 237.24 254.14 236.68 C 253.50 233.14 252.57 229.65 252.21 226.07 Z" />
<path fill="#fede5a" opacity="1.00" d=" M 273.35 239.10 C 280.43 232.72 288.74 227.82 295.88 221.46 C 303.94 221.66 311.94 222.58 320.01 222.49 C 313.50 228.56 307.34 235.17 299.91 240.13 C 291.06 240.89 282.22 239.17 273.35 239.10 Z" />
</g>
<g id="#fdde5cff">
<path fill="#fdde5c" opacity="1.00" d=" M 343.42 119.09 C 348.05 109.67 358.93 115.15 367.05 114.43 C 364.67 117.92 362.14 121.29 359.40 124.50 C 353.23 123.66 347.01 123.41 340.86 122.41 C 341.71 121.30 342.56 120.19 343.42 119.09 Z" />
</g>
<g id="#120f0712">
<path fill="#120f07" opacity="0.07" d=" M 367.05 114.43 C 367.44 115.46 367.82 116.49 368.23 117.52 C 366.58 119.81 364.94 122.11 363.35 124.45 C 368.23 124.87 373.10 125.42 378.00 125.57 C 380.21 122.04 382.20 118.38 384.60 114.98 C 385.00 114.89 385.80 114.73 386.20 114.64 C 384.19 118.13 382.26 121.66 380.37 125.21 C 382.58 125.51 384.81 125.80 387.03 126.14 C 386.77 126.48 386.26 127.18 386.00 127.53 C 383.64 127.51 381.27 127.53 378.91 127.55 C 376.17 131.83 373.40 136.10 370.81 140.48 C 373.89 140.84 376.97 141.19 380.07 141.42 C 379.36 142.92 378.61 144.39 377.80 145.83 C 378.10 145.26 378.69 144.11 378.99 143.53 C 375.66 143.25 372.34 142.93 369.02 142.64 C 365.45 147.84 361.46 152.76 358.25 158.20 C 357.77 157.31 357.29 156.42 356.82 155.53 C 359.85 151.48 362.93 147.48 365.84 143.34 C 360.36 142.29 354.78 141.79 349.21 141.58 C 348.43 142.46 347.66 143.34 346.89 144.22 C 347.85 139.98 353.21 140.56 356.55 139.66 C 360.28 139.79 364.00 140.67 367.73 140.21 C 371.12 136.36 373.64 131.83 376.36 127.50 C 371.44 127.29 366.52 126.99 361.61 126.52 C 358.82 130.05 355.73 133.37 353.20 137.11 C 352.49 136.31 351.79 135.51 351.09 134.71 C 353.24 132.03 355.34 129.29 357.38 126.52 C 351.13 125.90 344.88 125.30 338.63 124.61 C 340.01 122.60 341.57 120.70 343.42 119.09 C 342.56 120.19 341.71 121.30 340.86 122.41 C 347.01 123.41 353.23 123.66 359.40 124.50 C 362.14 121.29 364.67 117.92 367.05 114.43 Z" />
</g>
<g id="#fede5dff">
<path fill="#fede5d" opacity="1.00" d=" M 370.48 114.37 C 375.19 114.36 379.94 114.19 384.60 114.98 C 382.20 118.38 380.21 122.04 378.00 125.57 C 373.10 125.42 368.23 124.87 363.35 124.45 C 364.94 122.11 366.58 119.81 368.23 117.52 C 368.97 116.47 369.72 115.42 370.48 114.37 Z" />
</g>
<g id="#fcde5ffe">
<path fill="#fcde5f" opacity="1.00" d=" M 386.20 114.64 C 387.79 114.47 389.40 114.50 391.00 114.46 C 390.37 118.56 388.65 122.36 387.03 126.14 C 384.81 125.80 382.58 125.51 380.37 125.21 C 382.26 121.66 384.19 118.13 386.20 114.64 Z" />
</g>
<g id="#fcdc64fd">
<path fill="#fcdc64" opacity="1.00" d=" M 206.07 122.72 C 207.17 120.75 208.10 118.69 208.84 116.56 C 209.51 117.50 210.19 118.45 210.87 119.39 C 212.21 119.55 213.55 119.71 214.90 119.86 C 212.88 121.77 211.31 124.07 210.79 126.85 C 210.23 125.83 209.66 124.81 209.10 123.80 C 208.09 123.44 207.08 123.08 206.07 122.72 Z" />
</g>
<g id="#fede5bff">
<path fill="#fede5b" opacity="1.00" d=" M 295.25 116.98 C 300.55 118.19 305.80 119.62 311.11 120.82 C 308.04 124.33 304.63 127.51 301.37 130.84 C 295.88 130.40 290.68 128.36 285.64 126.28 C 288.78 123.12 292.11 120.14 295.25 116.98 Z" />
<path fill="#fede5b" opacity="1.00" d=" M 270.07 139.88 C 273.33 135.13 279.31 132.78 283.00 128.24 C 287.82 130.04 292.65 131.90 297.73 132.83 C 297.69 133.24 297.60 134.05 297.55 134.46 C 293.03 137.72 289.43 142.09 284.85 145.23 C 279.72 144.28 274.59 142.51 270.07 139.88 Z" />
<path fill="#fede5b" opacity="1.00" d=" M 349.21 141.58 C 354.78 141.79 360.36 142.29 365.84 143.34 C 362.93 147.48 359.85 151.48 356.82 155.53 C 355.98 156.91 354.76 158.06 353.02 157.64 C 347.64 157.02 342.12 156.97 336.91 155.36 C 340.39 151.78 343.67 148.03 346.89 144.22 C 347.66 143.34 348.43 142.46 349.21 141.58 Z" />
<path fill="#fede5b" opacity="1.00" d=" M 292.70 169.38 C 298.23 164.31 303.70 158.89 309.87 154.71 C 316.33 156.26 323.02 156.42 329.47 157.99 C 325.04 163.74 319.44 168.57 313.92 173.22 C 306.76 172.60 299.68 171.07 292.70 169.38 Z" />
<path fill="#fede5b" opacity="1.00" d=" M 296.75 193.97 C 302.31 187.94 309.09 183.15 314.86 177.31 C 321.70 178.34 328.65 178.45 335.46 179.67 C 330.77 186.01 324.76 191.24 319.12 196.71 C 311.59 196.50 304.20 194.94 296.75 193.97 Z" />
</g>
<g id="#ffde5bff">
<path fill="#ffde5b" opacity="1.00" d=" M 353.20 137.11 C 355.73 133.37 358.82 130.05 361.61 126.52 C 366.52 126.99 371.44 127.29 376.36 127.50 C 373.64 131.83 371.12 136.36 367.73 140.21 C 364.00 140.67 360.28 139.79 356.55 139.66 C 354.99 139.54 353.43 139.39 351.89 139.20 C 352.22 138.68 352.87 137.63 353.20 137.11 Z" />
</g>
<g id="#fddd5afe">
<path fill="#fddd5a" opacity="1.00" d=" M 370.81 140.48 C 373.40 136.10 376.17 131.83 378.91 127.55 C 381.27 127.53 383.64 127.51 386.00 127.53 C 384.62 132.40 381.97 136.76 380.07 141.42 C 376.97 141.19 373.89 140.84 370.81 140.48 Z" />
</g>
<g id="#fdde5aff">
<path fill="#fdde5a" opacity="1.00" d=" M 288.90 146.22 C 293.53 142.40 297.94 138.33 302.35 134.25 C 308.65 135.70 315.01 136.80 321.42 137.62 C 317.47 142.49 312.62 146.71 307.85 150.70 C 301.33 150.40 295.05 148.26 288.90 146.22 Z" />
<path fill="#fdde5a" opacity="1.00" d=" M 229.07 189.90 C 230.68 186.69 235.10 185.20 238.16 183.27 C 245.16 185.16 252.03 187.71 258.99 189.83 C 253.08 193.92 247.22 198.07 241.04 201.74 C 237.81 197.05 233.30 193.59 229.07 189.90 Z" />
<path fill="#fdde5a" opacity="1.00" d=" M 300.73 218.14 C 306.75 211.92 313.88 206.88 319.68 200.43 C 326.47 200.80 333.28 200.64 340.08 200.84 C 335.19 207.24 329.74 213.41 323.74 218.77 C 316.24 220.15 308.39 217.94 300.73 218.14 Z" />
</g>
<g id="#fae05dfe">
<path fill="#fae05d" opacity="1.00" d=" M 232.48 135.15 C 233.99 139.39 237.65 141.69 242.13 141.67 C 237.89 142.96 235.82 146.78 236.22 151.10 C 235.06 149.14 233.75 147.27 232.28 145.54 C 230.45 145.45 228.63 145.36 226.81 145.25 C 230.67 143.22 233.19 139.72 232.48 135.15 Z" />
</g>
<g id="#fdde5bff">
<path fill="#fdde5b" opacity="1.00" d=" M 312.76 152.08 C 316.61 147.07 321.40 142.91 325.68 138.29 C 332.17 139.70 339.00 139.36 345.31 141.57 C 340.99 145.76 337.67 151.07 332.88 154.70 C 326.06 155.14 319.47 152.89 312.76 152.08 Z" />
<path fill="#fdde5b" opacity="1.00" d=" M 208.10 180.22 C 210.54 177.19 214.70 175.88 218.13 174.19 C 223.41 176.26 228.24 179.43 233.69 181.18 C 231.07 183.74 227.81 185.47 224.80 187.50 C 219.54 184.40 213.66 182.67 208.10 180.22 Z" />
<path fill="#fdde5b" opacity="1.00" d=" M 188.05 235.14 C 190.38 234.13 193.39 231.85 195.52 234.48 C 199.92 239.07 206.35 241.29 210.89 245.33 C 205.97 247.64 201.24 250.69 196.06 252.26 C 186.81 250.28 177.78 247.38 168.79 244.47 C 174.98 240.91 181.75 238.50 188.05 235.14 Z" />
</g>
<g id="#fddf5cff">
<path fill="#fddf5c" opacity="1.00" d=" M 369.02 142.64 C 372.34 142.93 375.66 143.25 378.99 143.53 C 378.69 144.11 378.10 145.26 377.80 145.83 C 375.60 150.05 373.13 154.13 370.94 158.36 C 366.71 158.52 362.47 158.60 358.25 158.20 C 361.46 152.76 365.45 147.84 369.02 142.64 Z" />
</g>
<g id="#fddf5aff">
<path fill="#fddf5a" opacity="1.00" d=" M 269.15 162.11 C 274.60 157.96 279.84 153.49 285.31 149.38 C 291.75 150.64 298.14 152.44 304.56 153.93 C 299.44 159.24 293.58 163.74 287.87 168.38 C 281.75 166.50 273.79 166.16 269.15 162.11 Z" />
</g>
<g id="#37b602ff">
<path fill="#37b602" opacity="1.00" d=" M 181.88 173.17 C 196.42 184.58 216.90 184.59 230.61 197.36 C 243.24 208.15 247.64 225.08 249.87 240.87 C 239.10 234.79 228.30 228.23 219.45 219.52 C 217.20 214.21 218.80 208.07 218.02 202.44 C 216.08 206.77 215.40 211.51 215.12 216.21 C 207.54 208.95 200.73 200.99 193.97 192.97 C 196.14 197.73 198.98 202.12 201.99 206.38 C 198.79 206.89 195.59 207.45 192.44 208.21 C 197.59 209.68 204.31 208.23 207.88 213.11 C 214.15 220.02 220.97 226.39 228.24 232.24 C 225.07 232.44 221.88 232.57 218.75 233.14 C 223.56 233.98 228.57 234.05 233.17 235.84 C 258.45 249.67 285.83 261.79 315.02 263.34 C 329.35 263.92 345.81 259.98 353.25 246.45 C 354.07 245.61 354.92 244.81 355.78 244.00 C 355.62 245.43 355.46 246.85 355.26 248.28 C 350.49 259.81 337.53 264.71 326.01 266.31 C 299.65 268.87 273.71 260.06 250.40 248.52 C 246.50 246.75 242.08 247.59 237.96 246.87 C 222.14 245.62 205.84 240.08 195.04 227.97 C 181.53 213.57 177.19 192.07 181.88 173.17 Z" />
<path fill="#37b602" opacity="1.00" d=" M 190.71 280.75 C 195.27 264.31 211.65 253.71 227.97 251.81 C 235.48 251.19 243.05 251.15 250.55 251.89 C 247.10 254.94 242.09 254.47 237.99 256.16 C 229.42 259.20 220.56 262.24 213.22 267.76 C 227.88 262.74 242.83 258.44 258.16 256.03 C 251.83 265.58 243.20 274.31 232.12 278.06 C 218.87 283.24 204.45 279.16 190.71 280.75 Z" />
</g>
<g id="#48b617fe">
<path fill="#48b617" opacity="1.00" d=" M 345.19 200.75 C 345.84 200.59 347.16 200.28 347.81 200.13 C 355.67 214.42 362.95 232.43 355.26 248.28 C 355.46 246.85 355.62 245.43 355.78 244.00 C 354.92 244.81 354.07 245.61 353.25 246.45 C 356.75 235.82 355.28 224.28 350.93 214.13 C 349.30 209.54 346.22 205.55 345.19 200.75 Z" />
</g>
<g id="#f5e363fe">
<path fill="#f5e363" opacity="1.00" d=" M 179.57 214.69 C 179.99 214.70 180.82 214.71 181.24 214.72 C 181.45 215.67 181.66 216.61 181.88 217.56 C 181.05 217.11 180.23 216.67 179.40 216.23 C 179.45 215.84 179.53 215.07 179.57 214.69 Z" />
<path fill="#f5e363" opacity="1.00" d=" M 254.43 240.68 C 256.84 240.97 259.25 241.38 261.64 241.85 C 259.65 244.81 255.80 243.57 254.43 240.68 Z" />
<path fill="#f5e363" opacity="1.00" d=" M 203.56 254.19 C 207.42 250.63 212.54 248.95 217.05 246.40 C 218.12 247.19 219.21 247.99 220.24 248.86 C 214.49 250.04 209.55 254.61 203.56 254.19 Z" />
<path fill="#f5e363" opacity="1.00" d=" M 261.25 258.79 C 263.70 259.23 266.03 260.12 268.18 261.37 C 265.84 261.42 263.51 261.36 261.18 261.32 C 261.20 260.69 261.23 259.42 261.25 258.79 Z" />
<path fill="#f5e363" opacity="1.00" d=" M 276.89 265.39 C 280.74 266.24 284.68 266.86 288.38 268.28 C 287.08 268.33 285.79 268.37 284.50 268.41 C 281.83 267.81 279.40 266.42 276.89 265.39 Z" />
</g>
<g id="#fbde58fe">
<path fill="#fbde58" opacity="1.00" d=" M 247.98 213.50 C 251.74 214.44 255.52 215.31 259.33 216.02 C 256.67 218.20 253.79 220.08 250.88 221.91 C 249.89 219.11 248.87 216.33 247.98 213.50 Z" />
</g>
<g id="#fede59ff">
<path fill="#fede59" opacity="1.00" d=" M 138.83 232.17 C 150.19 228.39 161.18 223.58 172.03 218.56 C 178.30 222.12 187.33 222.27 190.34 229.88 C 181.28 234.26 172.11 238.39 162.89 242.42 C 154.67 239.55 146.35 236.64 138.83 232.17 Z" />
</g>
<g id="#92d80efe">
<path fill="#92d80e" opacity="1.00" d=" M 373.50 232.21 C 376.68 241.39 376.08 252.20 370.14 260.14 C 363.76 268.77 353.24 273.07 343.00 275.00 C 323.42 278.62 302.90 275.58 284.50 268.41 C 285.79 268.37 287.08 268.33 288.38 268.28 C 311.88 273.60 339.01 277.33 360.32 263.32 C 370.81 256.67 374.59 244.08 373.50 232.21 Z" />
</g>
<g id="#fddd59fe">
<path fill="#fddd59" opacity="1.00" d=" M 263.20 245.75 C 265.13 244.13 267.14 241.88 269.95 242.44 C 278.43 243.19 286.92 243.74 295.45 243.76 C 291.88 247.11 288.08 250.34 283.82 252.76 C 276.59 251.81 269.97 248.30 263.20 245.75 Z" />
</g>
<g id="#38b604ff">
<path fill="#38b604" opacity="1.00" d=" M 155.43 304.72 C 163.15 303.43 173.47 305.20 176.51 313.50 C 179.20 322.12 178.62 334.97 168.65 338.55 C 160.95 340.61 150.40 341.00 145.26 333.71 C 139.07 323.92 141.92 306.15 155.43 304.72 M 156.28 312.26 C 150.30 314.57 150.67 322.15 151.75 327.32 C 154.37 335.60 168.90 334.12 169.06 325.01 C 171.54 317.34 164.32 308.47 156.28 312.26 Z" />
<path fill="#38b604" opacity="1.00" d=" M 104.29 315.13 C 108.49 299.80 135.88 300.69 138.86 316.51 C 135.59 317.19 131.07 318.58 129.01 315.00 C 124.98 309.24 113.64 310.66 112.57 318.16 C 111.97 322.99 111.80 329.78 117.10 332.09 C 120.92 332.92 126.16 333.47 128.56 329.62 C 130.59 325.81 135.38 327.72 138.82 327.62 C 137.72 340.45 121.96 341.58 112.37 338.50 C 103.28 334.97 102.19 323.37 104.29 315.13 Z" />
<path fill="#38b604" opacity="1.00" d=" M 258.92 308.88 C 263.57 303.62 271.64 304.08 277.99 304.91 C 283.73 305.65 287.65 310.90 287.38 316.57 C 284.70 316.56 282.03 316.56 279.35 316.55 C 278.37 308.75 262.27 309.69 266.45 318.42 C 271.84 318.68 277.42 317.87 282.65 319.60 C 290.89 322.34 290.06 336.65 281.70 338.75 C 276.02 340.26 269.84 340.20 264.12 338.95 C 259.16 337.57 257.09 332.35 256.90 327.65 C 259.62 327.55 262.35 327.51 265.07 327.50 C 265.41 334.94 281.52 335.06 279.26 327.04 C 274.20 324.27 268.21 326.42 262.85 325.06 C 256.27 322.96 255.85 313.96 258.92 308.88 Z" />
</g>
<g id="#39b604ff">
<path fill="#39b604" opacity="1.00" d=" M 71.23 305.47 C 80.40 305.09 89.61 305.45 98.80 305.38 C 98.75 307.72 98.67 310.07 98.54 312.42 C 92.18 312.33 85.82 312.32 79.47 312.48 C 79.52 314.47 79.57 316.46 79.62 318.45 C 84.54 318.47 89.47 318.37 94.38 318.64 C 94.04 320.81 94.99 323.60 93.65 325.39 C 88.98 325.86 84.27 325.42 79.58 325.60 C 79.59 327.83 79.61 330.07 79.64 332.31 C 86.07 332.42 92.50 332.38 98.92 332.38 C 99.19 334.75 99.01 337.12 98.60 339.46 C 89.49 339.37 80.39 339.39 71.28 339.48 C 70.29 328.25 70.28 316.57 71.23 305.47 Z" />
<path fill="#39b604" opacity="1.00" d=" M 410.32 306.31 C 419.30 302.21 436.52 303.21 435.78 316.52 C 433.09 316.56 430.40 316.58 427.72 316.59 C 426.65 311.18 420.60 310.48 416.24 312.17 C 413.69 312.91 413.69 316.98 415.75 318.21 C 421.94 319.11 429.29 316.99 434.45 321.56 C 438.76 326.87 437.19 337.07 429.88 338.95 C 424.11 340.14 417.88 340.29 412.16 338.80 C 407.28 337.43 405.52 332.15 405.24 327.61 C 408.01 327.50 410.78 327.48 413.56 327.48 C 414.79 334.36 422.53 332.95 427.62 331.65 C 427.60 329.97 427.56 328.30 427.52 326.63 C 422.51 325.28 417.32 325.75 412.22 325.33 C 403.67 323.70 403.07 309.96 410.32 306.31 Z" />
</g>
<g id="#38b603ff">
<path fill="#38b603" opacity="1.00" d=" M 189.32 305.43 C 198.28 302.57 212.88 304.29 212.74 316.46 C 209.98 316.54 207.22 316.56 204.46 316.57 C 203.47 308.84 187.94 309.57 191.48 318.33 C 197.70 318.89 204.61 317.33 210.21 320.78 C 215.72 325.48 214.35 336.79 206.86 338.81 C 201.40 340.25 195.56 340.01 190.02 339.17 C 184.70 338.04 181.98 332.61 182.10 327.54 C 184.81 327.51 187.52 327.50 190.22 327.51 C 191.30 334.00 198.36 332.98 203.25 332.20 C 204.96 330.88 204.41 328.53 204.60 326.67 C 199.37 325.01 193.86 325.98 188.53 325.21 C 179.47 322.79 180.24 307.31 189.32 305.43 Z" />
<path fill="#38b603" opacity="1.00" d=" M 359.50 305.33 C 363.06 305.31 366.62 305.34 370.18 305.49 C 373.53 313.22 376.57 321.09 380.17 328.72 C 384.41 321.32 386.83 313.06 390.44 305.36 C 394.10 305.31 397.76 305.32 401.42 305.52 C 401.29 316.79 401.54 328.06 401.29 339.33 C 398.41 339.38 395.52 339.42 392.64 339.45 C 392.47 334.10 392.75 328.74 392.30 323.40 C 389.05 328.31 387.41 334.02 384.99 339.34 C 381.92 339.42 378.86 339.44 375.79 339.45 C 373.18 333.91 371.08 328.15 368.48 322.62 C 368.07 328.22 368.73 333.90 367.61 339.44 C 364.94 339.42 362.27 339.41 359.61 339.42 C 359.24 328.06 359.56 316.69 359.50 305.33 Z" />
</g>
<g id="#37b603ff">
<path fill="#37b603" opacity="1.00" d=" M 217.98 305.46 C 220.93 305.35 223.87 305.35 226.82 305.34 C 229.61 309.64 232.29 314.01 235.11 318.29 C 238.02 314.07 240.66 309.68 243.43 305.38 C 246.36 305.35 249.30 305.34 252.23 305.41 C 248.56 312.46 243.49 318.68 239.84 325.74 C 238.91 330.20 239.61 334.85 239.37 339.39 C 236.63 339.34 233.81 339.71 231.12 339.02 C 230.28 334.59 231.35 330.00 230.38 325.61 C 226.56 318.72 221.98 312.26 217.98 305.46 Z" />
</g>
<g id="#39b503ff">
<path fill="#39b503" opacity="1.00" d=" M 327.12 305.33 C 336.35 305.47 345.60 305.07 354.82 305.50 C 355.96 307.68 354.94 310.18 354.57 312.44 C 348.44 312.44 342.31 312.14 336.20 312.50 C 335.24 314.10 335.34 316.74 336.27 318.36 C 340.97 318.69 345.69 318.34 350.40 318.55 C 350.40 320.86 350.41 323.18 350.41 325.51 C 345.48 325.58 340.55 325.49 335.63 325.68 C 335.66 327.89 335.70 330.11 335.75 332.33 C 342.23 332.41 348.72 332.32 355.20 332.40 C 355.30 334.78 355.14 337.16 354.67 339.49 C 345.61 339.37 336.55 339.38 327.49 339.44 C 326.54 328.10 326.52 316.68 327.12 305.33 Z" />
</g>
<g id="#38b503ff">
<path fill="#38b503" opacity="1.00" d=" M 292.57 305.45 C 302.58 305.32 312.59 305.31 322.61 305.39 C 322.59 307.70 322.55 310.02 322.50 312.34 C 318.94 312.38 315.38 312.38 311.83 312.36 C 311.53 321.38 311.92 330.41 311.52 339.42 C 308.83 339.41 306.13 339.41 303.45 339.43 C 302.91 330.42 303.61 321.39 302.96 312.40 C 299.51 312.37 296.06 312.37 292.61 312.34 C 292.58 310.04 292.57 307.74 292.57 305.45 Z" />
</g>
<g id="#43b514fe">
<path fill="#43b514" opacity="1.00" d=" M 206.90 350.84 C 210.83 349.63 215.09 350.17 218.99 351.28 C 218.54 352.38 218.07 353.49 217.60 354.59 C 214.11 353.72 209.30 352.30 206.63 355.57 C 206.24 358.64 205.17 362.97 208.03 365.14 C 211.67 366.10 217.20 366.65 217.81 361.65 C 215.89 361.55 213.97 361.49 212.05 361.44 C 211.95 360.37 211.86 359.32 211.78 358.26 C 214.80 358.25 217.81 358.27 220.82 358.33 C 220.51 361.59 221.25 365.88 218.02 367.95 C 213.01 370.97 203.89 369.82 202.82 363.02 C 202.17 358.79 202.27 352.78 206.90 350.84 Z" />
</g>
<g id="#3eb610fe">
<path fill="#3eb610" opacity="1.00" d=" M 228.19 350.34 C 232.25 350.41 236.38 349.91 240.40 350.66 C 244.97 353.43 243.37 359.52 240.28 362.82 C 241.29 364.89 242.27 366.98 243.18 369.10 C 242.35 369.18 240.68 369.34 239.85 369.42 C 238.50 367.18 237.21 364.90 235.97 362.60 C 234.51 362.53 233.05 362.47 231.60 362.42 C 231.12 364.83 232.98 370.04 228.83 369.54 C 226.61 363.60 229.05 356.68 228.19 350.34 M 231.52 353.48 C 231.49 355.30 231.45 357.12 231.42 358.95 C 234.23 359.36 237.07 359.29 239.86 358.73 C 241.24 352.91 235.68 352.97 231.52 353.48 Z" />
</g>
<g id="#43b513fe">
<path fill="#43b513" opacity="1.00" d=" M 256.33 350.47 C 260.57 350.01 266.67 349.48 268.63 354.32 C 270.25 358.90 270.35 365.77 265.40 368.34 C 260.57 370.45 253.00 369.85 250.98 364.14 C 249.56 359.25 250.15 351.54 256.33 350.47 M 254.53 354.61 C 253.99 358.03 252.64 362.74 255.89 365.21 C 259.03 366.26 262.43 365.66 265.51 364.65 C 265.89 361.45 267.14 357.80 265.09 354.90 C 262.06 352.46 257.88 353.44 254.53 354.61 Z" />
</g>
<g id="#42b613ff">
<path fill="#42b613" opacity="1.00" d=" M 276.59 350.37 C 277.65 350.35 278.71 350.33 279.78 350.32 C 280.07 355.16 278.88 360.50 281.05 364.98 C 283.36 366.16 287.48 366.37 289.13 363.90 C 290.00 359.47 289.41 354.90 289.56 350.41 C 290.60 350.39 291.66 350.36 292.71 350.34 C 292.63 355.35 293.24 360.45 292.29 365.41 C 289.69 370.64 281.01 370.85 277.65 366.37 C 275.61 361.32 276.96 355.67 276.59 350.37 Z" />
</g>
<g id="#41b40ffd">
<path fill="#41b40f" opacity="1.00" d=" M 299.93 350.38 C 304.07 350.41 308.29 349.91 312.40 350.68 C 316.60 353.04 316.35 360.08 311.88 362.06 C 309.17 362.71 306.35 362.43 303.59 362.51 C 303.52 364.94 303.46 367.38 303.31 369.81 C 302.06 369.12 299.42 369.15 299.76 367.06 C 299.65 361.50 299.73 355.94 299.93 350.38 M 303.53 353.48 C 303.49 355.33 303.46 357.18 303.43 359.04 C 306.22 359.35 309.04 359.13 311.79 358.59 C 313.14 352.92 307.52 353.00 303.53 353.48 Z" />
</g>
</svg>
