<svg width="18" height="16" viewBox="0 0 18 16" fill="none" xmlns="http://www.w3.org/2000/svg">
<path d="M16.759 5.2075C16.8761 5.2075 16.9835 5.25145 17.0811 5.33934C17.1787 5.42723 17.2275 5.53954 17.2275 5.67625V13.0005C17.2275 13.4302 17.0323 13.7231 16.6419 13.8794L12.1914 15.4321C11.801 15.5493 11.4106 15.5493 11.0202 15.4321L5.98416 13.645L1.00664 15.4907C0.948078 15.5102 0.889519 15.52 0.83096 15.52C0.713842 15.52 0.606484 15.4761 0.508885 15.3882C0.411287 15.3003 0.362488 15.188 0.362488 15.0513V7.72704C0.362488 7.29735 0.557685 7.00438 0.948078 6.84813L5.34001 5.32469C5.14481 4.85594 5.04721 4.45555 5.04721 4.12352C5.04721 3.12743 5.41321 2.27782 6.14519 1.57469C6.87718 0.871567 7.76045 0.520004 8.79499 0.520004C9.82953 0.520004 10.7128 0.871567 11.4448 1.57469C12.1768 2.27782 12.5428 3.12743 12.5428 4.12352C12.5428 4.78758 12.1329 5.73485 11.313 6.96532L11.6058 7.0825L16.5833 5.2368C16.6419 5.21727 16.7005 5.2075 16.759 5.2075ZM5.51568 12.8247V6.26219L1.27015 7.72704L1.29943 14.3774L5.51568 12.8247ZM10.786 2.23387C10.786 2.23387 10.6494 2.10448 10.3761 1.84569C10.1028 1.5869 9.57578 1.4575 8.79499 1.4575C8.0142 1.4575 7.35053 1.71629 6.80398 2.23387C6.25743 2.75145 5.98416 3.38133 5.98416 4.12352C5.98416 4.51414 6.23791 5.12938 6.74542 5.96922C7.25294 6.80907 7.93612 7.72704 8.79499 8.72313C9.36106 8.05907 9.85393 7.4243 10.2736 6.81883C10.6933 6.21336 11.0202 5.67625 11.2545 5.2075C11.4887 4.73875 11.6058 4.37743 11.6058 4.12352C11.6058 3.38133 11.3325 2.75145 10.786 2.23387ZM11.1374 14.4653V7.90282L10.7567 7.78563C10.2687 8.43016 9.73194 9.07469 9.14634 9.71922C9.04875 9.83641 8.92675 9.895 8.78035 9.895C8.63395 9.895 8.52172 9.83641 8.44364 9.71922C7.66285 8.85985 6.99918 8.02977 6.45263 7.22899V12.8247L11.1374 14.4653ZM12.0743 14.4653L16.3198 13.0005L16.2905 6.35008L12.0743 7.90282V14.4653ZM9.29274 3.77196C9.29274 3.77196 9.3269 3.80614 9.39522 3.8745C9.46354 3.94286 9.4977 4.07469 9.4977 4.27C9.4977 4.46532 9.42938 4.63133 9.29274 4.76805C9.1561 4.90477 8.99019 4.97313 8.79499 4.97313C8.59979 4.97313 8.43388 4.90477 8.29724 4.76805C8.1606 4.63133 8.09228 4.46532 8.09228 4.27C8.09228 4.07469 8.1606 3.90868 8.29724 3.77196C8.43388 3.63524 8.59979 3.56688 8.79499 3.56688C8.99019 3.56688 9.1561 3.63524 9.29274 3.77196Z" fill="#FAAB04"/>
</svg>
