<svg width="16" height="16" viewBox="0 0 16 16" fill="none" xmlns="http://www.w3.org/2000/svg">
<path d="M14.8469 1.22313C14.9836 1.26219 15.1057 1.32567 15.2131 1.41356C15.3205 1.50145 15.4035 1.60399 15.4621 1.72118C15.5207 1.83836 15.55 1.96532 15.55 2.10204C15.55 5.81297 14.2414 8.97704 11.6242 11.5942C9.00702 14.2114 5.84296 15.52 2.13202 15.52C1.93671 15.52 1.75116 15.4516 1.57538 15.3149C1.3996 15.1782 1.29218 15.0122 1.25311 14.8169L0.579285 11.8579C0.540222 11.7602 0.530457 11.6577 0.549988 11.5503C0.569519 11.4429 0.603699 11.3403 0.652527 11.2427C0.701355 11.145 0.764832 11.062 0.842957 10.9936C0.921082 10.9253 1.00897 10.8618 1.10663 10.8032L4.27069 9.45555C4.70038 9.26024 5.06171 9.34813 5.35468 9.71922L6.64374 11.3013C8.73358 10.2661 10.2961 8.7036 11.3312 6.61375L9.74921 5.32469C9.37811 5.03172 9.29022 4.67039 9.48553 4.24071L10.8332 1.07664C10.9308 0.861801 11.0773 0.705551 11.2726 0.607895C11.468 0.510239 11.673 0.490707 11.8879 0.549301L14.8469 1.22313ZM2.16132 14.5825C3.841 14.5825 5.45233 14.2554 6.9953 13.6011C8.53827 12.9468 9.86151 12.063 10.965 10.9497C12.0685 9.83641 12.9523 8.51317 13.6164 6.97997C14.2805 5.44676 14.6125 3.83055 14.6125 2.13133L11.6828 1.4575L10.3351 4.62157L12.4738 6.35008C11.7707 7.87352 10.9601 9.09422 10.0422 10.0122C9.12421 10.9302 7.9035 11.7407 6.38007 12.4438L4.65155 10.3052L1.48749 11.6528L2.16132 14.5825Z" fill="#FAAB04"/>
</svg>
