<svg width="16" height="17" viewBox="0 0 16 17" fill="none" xmlns="http://www.w3.org/2000/svg">
<path d="M7.312 15.2221C3.632 15.2221 0.639999 12.2301 0.639999 8.55005C0.639999 4.87005 3.632 1.87805 7.312 1.87805C9.072 1.87805 10.736 2.56605 11.984 3.79805C12.016 3.83005 12.016 3.87805 11.984 3.91005C11.952 3.94205 11.904 3.94205 11.872 3.91005C10.64 2.71005 9.024 2.03805 7.312 2.03805C3.712 2.03805 0.799999 4.96605 0.799999 8.55005C0.799999 12.1341 3.712 15.0621 7.312 15.0621C10.896 15.0621 13.824 12.1501 13.824 8.55005C13.824 7.51005 13.568 6.47005 13.088 5.54205C13.072 5.51005 13.088 5.46205 13.12 5.43005C13.152 5.41405 13.2 5.43005 13.232 5.46205C13.728 6.40605 13.984 7.47805 13.984 8.53405C13.968 12.2301 10.976 15.2221 7.312 15.2221Z" fill="#161616"/>
<path d="M7.312 15.382C3.536 15.382 0.479996 12.31 0.479996 8.55002C0.479996 4.79002 3.536 1.71802 7.312 1.71802C9.12 1.71802 10.816 2.42202 12.096 3.68602C12.192 3.78202 12.192 3.92602 12.096 4.02202C12.048 4.07002 11.984 4.08602 11.92 4.08602C11.856 4.08602 11.792 4.07002 11.744 4.02202C10.56 2.85402 8.976 2.19802 7.312 2.19802C3.808 2.19802 0.959996 5.04602 0.959996 8.55002C0.959996 12.054 3.808 14.902 7.312 14.902C10.816 14.902 13.664 12.054 13.664 8.55002C13.664 7.52602 13.424 6.51802 12.944 5.62202C12.88 5.51002 12.928 5.36602 13.04 5.30202C13.152 5.23802 13.296 5.28602 13.36 5.39802C13.856 6.35802 14.128 7.46202 14.128 8.55002C14.128 12.31 11.072 15.382 7.312 15.382Z" fill="#161616"/>
<path d="M14.976 2.67799C14.736 2.82199 14.192 3.12599 13.952 3.26999C13.552 3.49399 12.976 3.87799 12.592 4.10199C12.288 4.30999 11.744 4.67799 11.44 4.88599C11.088 5.14199 10.656 5.44599 10.32 5.71799C8.816 6.90199 7.36 8.19799 6.128 9.66999C5.488 8.90199 4.784 8.19799 3.968 7.63799C3.6 7.38199 3.184 7.81399 3.424 8.21399C4.064 9.23799 4.304 9.79799 4.768 11.03C4.896 11.382 5.056 11.846 5.344 12.134C5.472 12.262 5.648 12.374 5.792 12.438C6.464 12.678 6.96 12.39 7.28 11.814C7.424 11.558 7.568 11.27 7.728 11.014C7.92 10.71 8.144 10.358 8.336 10.07C9.2 8.82199 10.208 7.63799 11.264 6.53399C11.52 6.27799 11.84 5.95799 12.08 5.71799C12.352 5.47799 12.816 5.02999 13.072 4.78999C13.264 4.61399 13.76 4.19799 13.952 4.02199C14.304 3.73399 14.816 3.33399 15.184 3.02999C15.392 2.85399 15.184 2.56599 14.976 2.67799Z" fill="#161616"/>
</svg>
