<svg id="expnaded" xmlns="http://www.w3.org/2000/svg" viewBox="0 0 96 96">
  <path
    d="M63.33,84.8a9.13,9.13,0,0,1-1.87-.19L7.2,73.59A4.48,4.48,0,0,1,5,66l31.1-30a9.52,9.52,0,0,1,5.73-2.61L90.72,29a4.48,4.48,0,0,1,4.36,6.56L71.74,79.75A9.56,9.56,0,0,1,63.33,84.8ZM91.14,31l-.24,0h0L42,35.39a7.53,7.53,0,0,0-4.53,2.06l-31.1,30A2.48,2.48,0,0,0,7.6,71.63l54.26,11A7.52,7.52,0,0,0,70,78.81L93.32,34.62A2.48,2.48,0,0,0,91.14,31Zm-.33-1h0Z" />
  <path d="M12,74.55a1,1,0,0,1-.71-.29,1,1,0,0,1,0-1.41l39.52-40a1,1,0,1,1,1.42,1.41l-39.51,40A1,1,0,0,1,12,74.55Z" />
  <path
    d="M26.79,77.55a1,1,0,0,1-.64-.23A1,1,0,0,1,26,75.91L62.54,31.83A1,1,0,0,1,64,31.7a1,1,0,0,1,.13,1.41L27.56,77.19A1,1,0,0,1,26.79,77.55Z" />
  <path
    d="M45.05,81.26a1,1,0,0,1-.57-.18,1,1,0,0,1-.25-1.39L78.6,30.45a1,1,0,1,1,1.64,1.15L45.87,80.83A1,1,0,0,1,45.05,81.26Z" />
  <path d="M31.29,43a1,1,0,0,1-.05-2l61.14-3.58a1,1,0,0,1,1.05.94,1,1,0,0,1-.94,1L31.35,43Z" />
  <path d="M86.08,51.47H22.52a1,1,0,1,1,0-2H86.08a1,1,0,1,1,0,2Z" />
  <path d="M77.76,67.21h-.07L11,62.52a1,1,0,1,1,.14-2l66.72,4.68a1,1,0,0,1-.07,2Z" />
  <path
    d="M33,41.34a1,1,0,0,1-.6-.2,10.8,10.8,0,1,1,17.29-8.63,9.36,9.36,0,0,1-.1,1.41,1,1,0,0,1-1.12.86,1,1,0,0,1-.86-1.13,8.62,8.62,0,0,0,.08-1.14,8.8,8.8,0,1,0-17.59,0,8.71,8.71,0,0,0,3.5,7,1,1,0,0,1,.2,1.4A1,1,0,0,1,33,41.34Z" />
  <path
    d="M42,20.43a1,1,0,0,1-.91-.6L38.93,15l-2.1,4.86A1,1,0,1,1,35,19l3-7a1,1,0,0,1,.91-.6,1,1,0,0,1,.92.6l3,7a1,1,0,0,1-.52,1.31A.92.92,0,0,1,42,20.43Z" />
  <path
    d="M27.55,26.4a1,1,0,0,1-.93-.63l-2.8-7.08A1,1,0,0,1,24,17.62a1,1,0,0,1,1.08-.22l7.07,2.8a1,1,0,1,1-.74,1.86l-4.92-1.95L28.48,25a1,1,0,0,1-.56,1.3A1,1,0,0,1,27.55,26.4Z" />
  <path
    d="M25.85,36.53a1.09,1.09,0,0,1-.39-.08l-7-3a1,1,0,0,1,0-1.84l7-3a1,1,0,0,1,.79,1.84l-4.86,2.1,4.86,2.1a1,1,0,0,1-.4,1.92Z" />
  <path
    d="M24.75,47.7a1,1,0,0,1-.71-.3,1,1,0,0,1-.22-1.07l2.8-7.08a1,1,0,1,1,1.86.74l-2,4.93.74-.29A1,1,0,0,1,28,46.49l-2.88,1.14A1.15,1.15,0,0,1,24.75,47.7Z" />
  <path
    d="M58,33.94a1,1,0,0,1-.92-.6,1,1,0,0,1-.06-.6l-5.39-2.33a1,1,0,1,1,.79-1.83l7,3a1,1,0,0,1,0,1.84l-1,.43A.91.91,0,0,1,58,33.94Z" />
  <path
    d="M50.32,26.4a.94.94,0,0,1-.37-.07,1,1,0,0,1-.56-1.3l2-4.92-4.93,1.95a1,1,0,0,1-.73-1.86l7.07-2.8a1,1,0,0,1,1.3,1.29l-2.8,7.08A1,1,0,0,1,50.32,26.4Z" />
</svg>