<?xml version="1.0" ?><svg viewBox="0 0 512 512" xmlns="http://www.w3.org/2000/svg"><g id="Saving_energy"><path d="M258.3,146.2686a9.9927,9.9927,0,0,0-11.2451,5.2587l-60,120A10.0009,10.0009,0,0,0,196,286h50v70a10.0008,10.0008,0,0,0,18.9453,4.4727l60-120A10.0009,10.0009,0,0,0,316,226H266V156A9.9971,9.9971,0,0,0,258.3,146.2686Z"/><path d="M453.07,218.93a9.9962,9.9962,0,0,0-14.1406,0L424.501,233.3584C413.3975,150.2822,342.0645,86,256,86A169.2233,169.2233,0,0,0,90.4482,217.2158a9.9981,9.9981,0,0,0,19.4727,4.5459A149.3141,149.3141,0,0,1,256,106c82.71,0,150,67.29,150,150a9.9989,9.9989,0,0,0,17.07,7.07l30-30A9.9962,9.9962,0,0,0,453.07,218.93Z"/><path d="M414.0908,282.7773a9.9747,9.9747,0,0,0-12.0117,7.461A149.3222,149.3222,0,0,1,256,406c-82.71,0-150-67.29-150-150a9.9991,9.9991,0,0,0-17.07-7.07l-30,30A9.9989,9.9989,0,0,0,73.07,293.07L87.499,278.6416C98.6025,361.7178,169.9355,426,256,426A169.2323,169.2323,0,0,0,421.5518,294.7891,9.9948,9.9948,0,0,0,414.0908,282.7773Z"/></g></svg>