<svg width="0" height="0" class="hidden">
  <symbol fill="none" xmlns="http://www.w3.org/2000/svg" viewBox="0 0 51 51" id="FreeInstall">
    <path
      d="M9.66534 30.6604C10.1351 30.6604 10.5943 30.5211 10.9848 30.2601C11.3754 29.9991 11.6798 29.6282 11.8596 29.1942C12.0393 28.7602 12.0863 28.2827 11.9947 27.8221C11.9031 27.3613 11.6768 26.9381 11.3448 26.606C11.0126 26.2739 10.5894 26.0476 10.1287 25.9561C9.66801 25.8644 9.19042 25.9114 8.75649 26.0911C8.32252 26.2709 7.9516 26.5753 7.69063 26.9659C7.42967 27.3565 7.29037 27.8156 7.29037 28.2854C7.29037 28.9152 7.54059 29.5193 7.98599 29.9647C8.43138 30.4101 9.03551 30.6604 9.66534 30.6604ZM9.66534 27.4937C9.82192 27.4937 9.97501 27.5401 10.1052 27.6271C10.2353 27.7141 10.3368 27.8377 10.3968 27.9824C10.4567 28.1271 10.4723 28.2862 10.4418 28.4398C10.4113 28.5934 10.3358 28.7345 10.2252 28.8451C10.1144 28.9559 9.97334 29.0313 9.81984 29.0618C9.66626 29.0924 9.50709 29.0767 9.36242 29.0168C9.21776 28.9568 9.09409 28.8554 9.00709 28.7252C8.92009 28.595 8.87367 28.442 8.87367 28.2854C8.87367 28.0754 8.95709 27.8741 9.10559 27.7256C9.25401 27.5771 9.45542 27.4937 9.66534 27.4937Z"
      fill="#86BB46"></path>
    <path
      d="M16 30.6604C16.4698 30.6604 16.9289 30.5211 17.3194 30.2601C17.71 29.9991 18.0144 29.6282 18.1942 29.1942C18.3739 28.7602 18.421 28.2827 18.3293 27.8221C18.2377 27.3613 18.0115 26.9381 17.6793 26.606C17.3472 26.2739 16.924 26.0476 16.4633 25.9561C16.0026 25.8644 15.5251 25.9114 15.0911 26.0911C14.6572 26.2709 14.2863 26.5753 14.0253 26.9659C13.7643 27.3565 13.625 27.8156 13.625 28.2854C13.625 28.9152 13.8752 29.5193 14.3206 29.9647C14.766 30.4101 15.3701 30.6604 16 30.6604ZM16 27.4937C16.1566 27.4937 16.3096 27.5401 16.4398 27.6271C16.57 27.7141 16.6715 27.8377 16.7314 27.9824C16.7913 28.1271 16.807 28.2862 16.7764 28.4398C16.7459 28.5934 16.6705 28.7345 16.5597 28.8451C16.4491 28.9559 16.308 29.0313 16.1544 29.0618C16.0008 29.0924 15.8417 29.0767 15.697 29.0168C15.5523 28.9568 15.4288 28.8554 15.3418 28.7252C15.2548 28.595 15.2083 28.442 15.2083 28.2854C15.2083 28.0754 15.2917 27.8741 15.4402 27.7256C15.5887 27.5771 15.79 27.4937 16 27.4937Z"
      fill="#86BB46"></path>
    <path
      d="M9.66534 38.5769C9.19559 38.5769 8.73645 38.7162 8.3459 38.9772C7.95533 39.2382 7.65092 39.6091 7.47116 40.043C7.2914 40.477 7.24437 40.9545 7.33601 41.4152C7.42765 41.8759 7.65385 42.2991 7.98599 42.6312C8.31815 42.9634 8.74132 43.1896 9.20201 43.2812C9.66276 43.3729 10.1403 43.3258 10.5743 43.1461C11.0082 42.9663 11.3791 42.6619 11.6401 42.2713C11.9011 41.8808 12.0403 41.4217 12.0403 40.9519C12.0403 40.322 11.7901 39.7179 11.3448 39.2725C10.8993 38.8272 10.2953 38.5769 9.66534 38.5769ZM9.66534 41.7436C9.50876 41.7436 9.35576 41.6972 9.22551 41.6102C9.09534 41.5232 8.99384 41.3995 8.93393 41.2548C8.87401 41.1102 8.85834 40.951 8.88893 40.7974C8.91943 40.6439 8.99485 40.5028 9.10559 40.3921C9.21626 40.2814 9.35734 40.206 9.51093 40.1754C9.66451 40.1449 9.82368 40.1606 9.96835 40.2205C10.113 40.2804 10.2366 40.3819 10.3236 40.5121C10.4106 40.6422 10.457 40.7953 10.457 40.9519C10.457 41.1618 10.3736 41.3632 10.2252 41.5117C10.0767 41.6602 9.87534 41.7436 9.66534 41.7436Z"
      fill="#86BB46"></path>
    <path
      d="M16 38.5769C15.5302 38.5769 15.0711 38.7162 14.6805 38.9772C14.2899 39.2382 13.9856 39.6091 13.8057 40.043C13.626 40.477 13.579 40.9545 13.6707 41.4152C13.7622 41.8759 13.9885 42.2991 14.3206 42.6312C14.6527 42.9634 15.0759 43.1896 15.5367 43.2812C15.9973 43.3729 16.4749 43.3258 16.9088 43.1461C17.3428 42.9663 17.7137 42.6619 17.9747 42.2713C18.2357 41.8808 18.375 41.4217 18.375 40.9519C18.375 40.322 18.1247 39.7179 17.6793 39.2725C17.234 38.8272 16.6298 38.5769 16 38.5769ZM16 41.7436C15.8434 41.7436 15.6903 41.6972 15.5602 41.6102C15.43 41.5232 15.3285 41.3995 15.2686 41.2548C15.2087 41.1102 15.193 40.951 15.2235 40.7974C15.2541 40.6439 15.3295 40.5028 15.4402 40.3921C15.5509 40.2814 15.692 40.206 15.8455 40.1754C15.9991 40.1449 16.1582 40.1606 16.3029 40.2205C16.4476 40.2804 16.5712 40.3819 16.6582 40.5121C16.7452 40.6422 16.7917 40.7953 16.7917 40.9519C16.7917 41.1618 16.7082 41.3632 16.5597 41.5117C16.4113 41.6602 16.2099 41.7436 16 41.7436Z"
      fill="#86BB46"></path>
    <path
      d="M33.8606 21.7025C34.4338 21.4602 34.9227 21.0542 35.2663 20.5352C35.6097 20.0163 35.7924 19.4075 35.7914 18.7852V15.6185H46.0831C46.9229 15.6185 47.7283 15.285 48.3223 14.6911C48.9161 14.0972 49.2497 13.2918 49.2497 12.452C49.2497 11.6121 48.9161 10.8066 48.3223 10.2128C47.7283 9.61895 46.9229 9.28528 46.0831 9.28528H35.7448C35.6473 8.68105 35.3568 8.12459 34.9169 7.69908C34.477 7.27357 33.9112 7.00185 33.3041 6.92455C32.7398 6.86773 32.1717 6.98456 31.6756 7.25942C31.5102 6.75107 31.203 6.30052 30.7903 5.96073C30.3776 5.62093 29.8764 5.40601 29.3457 5.34123C28.7815 5.28399 28.2132 5.40085 27.7173 5.67609C27.5977 5.28748 27.3931 4.93035 27.1183 4.63063C26.8436 4.33093 26.5055 4.09614 26.1287 3.94333C25.7519 3.79052 25.3458 3.72351 24.9399 3.74717C24.534 3.77083 24.1384 3.88456 23.7819 4.08011C23.5871 3.47603 23.1907 2.95717 22.6591 2.61032C22.1275 2.26346 21.4929 2.10964 20.8615 2.17458C20.1675 2.26598 19.531 2.60872 19.0728 3.1379C18.6145 3.66708 18.3662 4.34595 18.3749 5.04593V9.28528H10.9776C10.4369 8.55238 9.7325 7.95598 8.92042 7.54363C8.10838 7.13128 7.21121 6.9144 6.30047 6.9103H4.91665C4.0768 6.9103 3.27135 7.24393 2.67749 7.83778C2.08362 8.43165 1.75 9.2371 1.75 10.077C1.75 10.4969 1.91682 10.8996 2.21374 11.1965C2.51067 11.4934 2.9134 11.6603 3.33333 11.6603H4.83194C5.0292 11.653 5.22293 11.714 5.38043 11.8329C5.53793 11.952 5.64954 12.1216 5.69643 12.3134C5.71668 12.4273 5.71171 12.5443 5.68187 12.6561C5.65202 12.7679 5.59802 12.8719 5.52367 12.9605C5.44933 13.0492 5.35645 13.1205 5.25157 13.1694C5.14669 13.2183 5.03237 13.2436 4.91665 13.2436H3.33333C2.9134 13.2436 2.51067 13.4104 2.21374 13.7074C1.91682 14.0043 1.75 14.4069 1.75 14.827C1.75 15.6668 2.08362 16.4722 2.67749 17.066C3.27135 17.66 4.0768 17.9935 4.91665 17.9935H6.49997C7.22734 17.997 7.94809 17.8554 8.62002 17.5769C9.292 17.2983 9.90158 16.8885 10.4132 16.3715C10.647 16.1405 10.859 15.8885 11.0465 15.6185H18.3749V16.806C18.3757 17.5434 18.5478 18.2704 18.8774 18.9298C19.2072 19.5892 19.6856 20.163 20.2749 20.606L21.2249 21.3185C21.3229 21.3925 21.4025 21.4882 21.4575 21.5981C21.5124 21.708 21.5412 21.829 21.5416 21.9519V22.7435H6.49997C5.87008 22.7435 5.266 22.9938 4.8206 23.4391C4.37521 23.8845 4.12498 24.4886 4.12498 25.1185V31.4518C4.12498 32.0817 4.37521 32.6858 4.8206 33.1312C5.266 33.5766 5.87008 33.8268 6.49997 33.8268H7.29163V35.4101H6.49997C5.87008 35.4101 5.266 35.6604 4.8206 36.1057C4.37521 36.5511 4.12498 37.1552 4.12498 37.7851V44.1184C4.12498 44.7483 4.37521 45.3524 4.8206 45.7978C5.266 46.2432 5.87008 46.4934 6.49997 46.4934H7.29163V47.285C7.29163 47.915 7.54185 48.519 7.98725 48.9644C8.43264 49.4098 9.03675 49.66 9.66658 49.66H41.3331C41.963 49.66 42.5671 49.4098 43.0124 48.9644C43.4578 48.519 43.7081 47.915 43.7081 47.285V46.4934H44.4998C45.1296 46.4934 45.7337 46.2432 46.1791 45.7978C46.6245 45.3524 46.8747 44.7483 46.8747 44.1184V37.7851C46.8747 37.1552 46.6245 36.5511 46.1791 36.1057C45.7337 35.6604 45.1296 35.4101 44.4998 35.4101H43.7081V33.8268H44.4998C45.1296 33.8268 45.7337 33.5766 46.1791 33.1312C46.6245 32.6858 46.8747 32.0817 46.8747 31.4518V25.1185C46.8747 24.4886 46.6245 23.8845 46.1791 23.4391C45.7337 22.9938 45.1296 22.7435 44.4998 22.7435H33.4165V22.4735C33.4084 22.316 33.4461 22.1594 33.5248 22.0225C33.6037 21.8858 33.7202 21.7747 33.8606 21.7025ZM47.6664 12.452C47.6664 12.8719 47.4996 13.2746 47.2027 13.5715C46.9058 13.8685 46.503 14.0353 46.0831 14.0353H35.7914V10.8686H46.0831C46.503 10.8686 46.9058 11.0354 47.2027 11.3324C47.4996 11.6293 47.6664 12.032 47.6664 12.452ZM10.6111 14.0353C10.4722 14.0354 10.3359 14.072 10.2157 14.1415C10.0955 14.211 9.99567 14.3109 9.92625 14.4311C9.57833 15.0319 9.07875 15.531 8.4775 15.8784C7.87623 16.2256 7.19433 16.409 6.49997 16.4102H4.91665C4.49673 16.4102 4.094 16.2435 3.79707 15.9465C3.50013 15.6495 3.33333 15.2469 3.33333 14.827H4.91665C5.26217 14.8271 5.60357 14.752 5.91704 14.6067C6.23052 14.4614 6.50851 14.2494 6.73163 13.9855C6.95474 13.7218 7.11761 13.4124 7.20886 13.0792C7.30011 12.7459 7.31755 12.3968 7.25997 12.0561C7.15158 11.4939 6.84902 10.9876 6.40519 10.6258C5.96137 10.264 5.40449 10.0698 4.83194 10.077H3.33333C3.33333 9.65703 3.50013 9.25428 3.79707 8.95737C4.094 8.66043 4.49673 8.49362 4.91665 8.49362H6.30047C7.0182 8.49671 7.72342 8.68178 8.35018 9.0315C8.97692 9.3812 9.50475 9.8842 9.88433 10.4934C9.95533 10.6081 10.0545 10.7029 10.1724 10.7685C10.2903 10.8342 10.4231 10.8687 10.558 10.8686H18.3749V14.0353H10.6111ZM42.1247 47.285C42.1247 47.495 42.0413 47.6964 41.8929 47.8449C41.7444 47.9933 41.5431 48.0767 41.3331 48.0767H9.66658C9.45667 48.0767 9.25533 47.9933 9.10683 47.8449C8.95833 47.6964 8.87492 47.495 8.87492 47.285V46.4934H42.1247V47.285ZM45.2914 37.7851V44.1184C45.2914 44.3284 45.208 44.5297 45.0595 44.6782C44.9111 44.8266 44.7097 44.91 44.4998 44.91H6.49997C6.29001 44.91 6.08865 44.8266 5.94018 44.6782C5.79172 44.5297 5.70831 44.3284 5.70831 44.1184V37.7851C5.70831 37.5751 5.79172 37.3738 5.94018 37.2253C6.08865 37.0769 6.29001 36.9935 6.49997 36.9935H44.4998C44.7097 36.9935 44.9111 37.0769 45.0595 37.2253C45.208 37.3738 45.2914 37.5751 45.2914 37.7851ZM42.1247 35.4101H8.87492V33.8268H42.1247V35.4101ZM45.2914 25.1185V31.4518C45.2914 31.6618 45.208 31.8631 45.0595 32.0116C44.9111 32.16 44.7097 32.2435 44.4998 32.2435H6.49997C6.29001 32.2435 6.08865 32.16 5.94018 32.0116C5.79172 31.8631 5.70831 31.6618 5.70831 31.4518V25.1185C5.70831 24.9085 5.79172 24.7072 5.94018 24.5587C6.08865 24.4103 6.29001 24.3269 6.49997 24.3269H44.4998C44.7097 24.3269 44.9111 24.4103 45.0595 24.5587C45.208 24.7072 45.2914 24.9085 45.2914 25.1185ZM23.1248 22.7435V21.9519C23.1242 21.5833 23.0381 21.2199 22.8732 20.8902C22.7084 20.5605 22.4693 20.2735 22.1748 20.0519L21.2249 19.3394C20.8318 19.0442 20.5127 18.6617 20.2929 18.222C20.0731 17.7824 19.9585 17.2976 19.9582 16.806V5.04593C19.9471 4.7377 20.0487 4.43598 20.2442 4.19739C20.4397 3.95879 20.7154 3.79971 21.0198 3.74998C21.186 3.73106 21.3542 3.74805 21.5132 3.79982C21.6722 3.85158 21.8182 3.93691 21.9413 4.05003C22.0647 4.16132 22.1632 4.29724 22.2307 4.44902C22.2983 4.60078 22.3332 4.76503 22.3332 4.93114V8.49362C22.3332 8.70358 22.4166 8.90494 22.5651 9.05341C22.7136 9.20187 22.9149 9.28528 23.1248 9.28528C23.3348 9.28528 23.5362 9.20187 23.6847 9.05341C23.8331 8.90494 23.9165 8.70358 23.9165 8.49362V6.51447C23.9171 6.34806 23.9526 6.18363 24.0208 6.03184C24.089 5.88005 24.1883 5.74428 24.3123 5.63334C24.4347 5.51928 24.5805 5.43332 24.7395 5.38149C24.8986 5.32966 25.067 5.31322 25.2331 5.33331C25.5369 5.38373 25.8119 5.5431 26.0068 5.78163C26.2016 6.02016 26.3028 6.32149 26.2915 6.62926V9.28528C26.2915 9.49528 26.3749 9.69662 26.5234 9.84503C26.6718 9.99353 26.8732 10.077 27.0832 10.077C27.2932 10.077 27.4945 9.99353 27.643 9.84503C27.7914 9.69662 27.8748 9.49528 27.8748 9.28528V8.09779C27.8749 7.93168 27.9098 7.76743 27.9773 7.61566C28.0448 7.46388 28.1434 7.32796 28.2667 7.21667C28.3891 7.10264 28.5348 7.01672 28.6939 6.96489C28.8529 6.91307 29.0213 6.89659 29.1874 6.91663C29.492 6.96618 29.7679 7.12519 29.9636 7.36381C30.1592 7.60243 30.261 7.90423 30.2498 8.21258V10.8686C30.2498 11.0785 30.3333 11.2799 30.4817 11.4284C30.6302 11.5769 30.8315 11.6603 31.0415 11.6603C31.2514 11.6603 31.4528 11.5769 31.6012 11.4284C31.7497 11.2799 31.8332 11.0785 31.8332 10.8686V9.68112C31.8332 9.51503 31.8681 9.35078 31.9356 9.19898C32.0031 9.04721 32.1017 8.91128 32.225 8.79999C32.3475 8.68619 32.4933 8.60041 32.6523 8.5486C32.8113 8.49678 32.9797 8.48019 33.1458 8.49995C33.4502 8.54951 33.7262 8.70852 33.9218 8.94713C34.1175 9.18574 34.2192 9.48753 34.2082 9.79587V18.7852C34.2084 19.0964 34.117 19.4006 33.9454 19.6601C33.7737 19.9196 33.5295 20.1228 33.2431 20.2443C32.8147 20.4358 32.4525 20.7495 32.2017 21.1461C31.9508 21.5427 31.8227 22.0044 31.8332 22.4735V22.7435H23.1248Z"
      fill="#86BB46"></path>
    <path
      d="M34.2083 29.077H42.1249C42.3349 29.077 42.5362 28.9936 42.6847 28.8451C42.8332 28.6967 42.9166 28.4952 42.9166 28.2853C42.9166 28.0753 42.8332 27.874 42.6847 27.7255C42.5362 27.5771 42.3349 27.4937 42.1249 27.4937H34.2083C33.9983 27.4937 33.797 27.5771 33.6485 27.7255C33.5001 27.874 33.4167 28.0753 33.4167 28.2853C33.4167 28.4952 33.5001 28.6967 33.6485 28.8451C33.797 28.9936 33.9983 29.077 34.2083 29.077Z"
      fill="#86BB46"></path>
    <path
      d="M42.1249 40.1602H34.2083C33.9983 40.1602 33.797 40.2436 33.6485 40.392C33.5001 40.5405 33.4167 40.7418 33.4167 40.9518C33.4167 41.1617 33.5001 41.3632 33.6485 41.5116C33.797 41.6601 33.9983 41.7435 34.2083 41.7435H42.1249C42.3349 41.7435 42.5362 41.6601 42.6847 41.5116C42.8332 41.3632 42.9166 41.1617 42.9166 40.9518C42.9166 40.7418 42.8332 40.5405 42.6847 40.392C42.5362 40.2436 42.3349 40.1602 42.1249 40.1602Z"
      fill="#86BB46"></path>
  </symbol>
  <symbol fill="none" xmlns="http://www.w3.org/2000/svg" viewBox="0 0 30 30" id="Armenia">
    <path d="M0 5.00021H30V24.9998H0V5.00021Z" fill="#0052B4"></path>
    <path d="M0 5.00021H30V11.6667H0V5.00021Z" fill="#D80027"></path>
    <path d="M0 18.3333H30V24.9998H0V18.3333Z" fill="#FF9811"></path>
  </symbol>
  <symbol version="1.1" xmlns="http://www.w3.org/2000/svg" xmlns:xlink="http://www.w3.org/1999/xlink" x="0px" y="0px"
    xml:space="preserve" viewBox="0 0 64 64" id="EcoEnergy">
    <g id="bg">
      <rect id="XMLID_119_" x="-218" y="-268.2"></rect>
    </g>
    <g id="guideline"></g>
    <g id="icons">
      <g id="XMLID_36_">
        <g id="XMLID_9_">
          <path id="XMLID_14_" d="M34.7,15l-0.6-2.4h-4.8L28.2,17c-1.6,0.4-3.1,1-4.5,1.9l-3.8-2.3L16.5,20l2.3,3.8
				c-0.9,1.4-1.5,2.9-1.9,4.5l-4,1.3l0,4.8l4,0.9c0.4,1.6,1,3.2,1.9,4.5l-2.4,3.7l3.4,3.4l4-2.1c1.4,0.9,2.9,1.5,4.5,1.9l1.1,4.6
				l4.8,0l1.1-4.6c1.6-0.4,3.2-1,4.5-1.9l4,2.3l3.4-3.4l-2.4-3.9c0.9-1.4,1.5-2.9,1.9-4.5l4-1.1l0-4.8L48.8,29"></path>
          <path id="XMLID_16_" d="M38.2,34.3c-1,2.6-3.5,4.4-6.4,4.4c-3.8,0-6.9-3.1-6.9-6.9c0-2.7,1.5-5,3.8-6.1"></path>
        </g>
        <path id="XMLID_15_" d="M51,12.8c0,0,1.4,9.8-3.7,14.9s-14.9,3.7-14.9,3.7s-1.4-9.8,3.7-14.9S51,12.8,51,12.8z">
        </path>
        <line id="XMLID_17_" x1="32.4" y1="31.4" x2="51" y2="12.8"></line>
        <line id="XMLID_21_" x1="36.6" y1="27.2" x2="48.8" y2="25.7"></line>
        <line id="XMLID_25_" x1="36.6" y1="27.2" x2="37.4" y2="15.5"></line>
        <line id="XMLID_29_" x1="43.1" y1="20.7" x2="51.2" y2="19.7"></line>
        <line id="XMLID_13_" x1="43.1" y1="20.7" x2="43.9" y2="12.6"></line>
      </g>
      <g id="XMLID_68_">
        <path id="XMLID_50_" d="M33.9,51.9c0,1-0.8,1.9-1.9,1.9c-1,0-1.9-0.8-1.9-1.9"></path>
        <g id="XMLID_266_">
          <line id="XMLID_53_" x1="33.9" y1="41.6" x2="33.9" y2="38.1"></line>
          <line id="XMLID_49_" x1="37.5" y1="37.2" x2="37.5" y2="41.6"></line>
        </g>
        <g id="XMLID_267_">
          <line id="XMLID_52_" x1="26.4" y1="41.7" x2="26.4" y2="39.2"></line>
          <line id="XMLID_51_" x1="29.9" y1="38.1" x2="29.9" y2="41.7"></line>
        </g>
        <path id="XMLID_91_" d="M27.3,37.4L23.9,38c-1.1,0.2-2-0.5-2-1.6l0,0c0-1.1,0.9-2.2,2-2.4l16.7-3.3
			c1.1-0.2,2,0.5,2,1.6l0,0c0,1.1-0.9,2.2-2,2.4L32,36.4"></path>
        <path id="XMLID_54_" d="M26.9,30.5l-3,0.6c-1.1,0.2-2-0.5-2-1.6l0,0c0-1.1,0.9-2.2,2-2.4l16.7-3.3
			c1.1-0.2,2,0.5,2,1.6l0,0c0,1.1-0.9,2.2-2,2.4l-8,1.5"></path>
        <path id="XMLID_89_" d="M25.9,23.6l-2,0.4c-1.1,0.2-2-0.5-2-1.6l0,0c0-1.1,0.9-2.2,2-2.4l16.7-3.3
			c1.1-0.2,2,0.5,2,1.6l0,0c0,1.1-0.9,2.2-2,2.4l-8.1,1.7"></path>
        <path id="XMLID_90_" d="M29.3,16l-2.7,0.5c-1.1,0.2-2-0.5-2-1.6l0,0c0-1.1,0.9-2.2,2-2.4l11.3-2.2
			c1.1-0.2,2,0.5,2,1.6l0,0c0,1.1-0.9,2.2-2,2.4l-5.6,1"></path>
        <polyline id="XMLID_48_" points="38.8,44.1 34.7,51.2 29.3,51.2 25.2,44.1 		"></polyline>
        <path id="XMLID_134_" d="M38.6,44.4H25.4c-0.1,0-0.2-0.1-0.2-0.2V42c0-0.1,0.1-0.2,0.2-0.2h13.3
			c0.1,0,0.2,0.1,0.2,0.2v2.2C38.8,44.3,38.7,44.4,38.6,44.4z"></path>
        <line id="XMLID_88_" x1="12.5" y1="26.9" x2="15.3" y2="26.9"></line>
        <line id="XMLID_87_" x1="10.8" y1="20.2" x2="16.1" y2="22.2"></line>
        <line id="XMLID_93_" x1="16.5" y1="16.3" x2="18.5" y2="18"></line>
        <line id="XMLID_131_" x1="47.6" y1="16.1" x2="45.4" y2="17.9"></line>
        <line id="XMLID_132_" x1="53.2" y1="20.1" x2="47.9" y2="22.1"></line>
        <line id="XMLID_155_" x1="51.5" y1="26.9" x2="48.7" y2="26.8"></line>
        <line id="XMLID_157_" x1="53.2" y1="33.5" x2="47.9" y2="31.5"></line>
        <line id="XMLID_160_" x1="47.6" y1="37.6" x2="45.5" y2="35.7"></line>
        <line id="XMLID_165_" x1="16.2" y1="37.7" x2="18.6" y2="35.7"></line>
        <line id="XMLID_166_" x1="10.8" y1="33.4" x2="16.2" y2="31.5"></line>
      </g>
      <g id="XMLID_66_">
        <circle id="XMLID_56_" cx="32" cy="31.6" r="2.8"></circle>
        <path id="XMLID_74_" d="M37,12.7c1.3,0.3,2.5,0.8,3.6,1.4c2.3,1.1,4.3,2.7,6,4.6c1.7,1.9,3,4.1,3.8,6.5
			c0.9,2.4,1.3,5,1.1,7.7c-0.1,1.6-0.4,3.1-0.8,4.6"></path>
        <path id="XMLID_71_" d="M13.5,38.2c-0.9-2.4-1.3-5-1.1-7.7c0.2-2.7,0.9-5.2,2-7.5c1.1-2.3,2.7-4.3,4.6-6
			s4.1-3,6.5-3.8"></path>
        <path id="XMLID_69_" d="M46.9,44.3c-0.6,0.7-1.2,1.4-1.9,2c-1.9,1.7-4.1,3-6.5,3.8"></path>
        <path id="XMLID_77_" d="M17.6,44.7c0.6,0.7,1.2,1.4,1.9,2c1.9,1.7,4.1,3,6.5,3.8"></path>
        <polyline id="XMLID_59_" points="30,27.4 30,10.1 30.9,10.1 34.1,23.9 34.1,27.4 		"></polyline>
        <polyline id="XMLID_57_" points="36.7,31.9 51.6,40.7 51.2,41.4 37.6,37.2 34.6,35.4 		"></polyline>
        <polyline id="XMLID_62_" points="29.4,35.4 14.3,43.9 13.8,43.1 24.3,33.5 27.4,31.8 		"></polyline>
        <line id="XMLID_67_" x1="33.4" y1="37.4" x2="35.1" y2="53.9"></line>
        <line id="XMLID_65_" x1="28.9" y1="53.9" x2="30.6" y2="37.4"></line>
      </g>
      <g id="XMLID_100_">
        <circle id="XMLID_321_" cx="19.1" cy="44.2" r="3.1"></circle>
        <circle id="XMLID_333_" cx="47.9" cy="44.2" r="3.1"></circle>
        <path id="XMLID_73_" d="M11.8,39.9v4.4c0,0.1,0.1,0.1,0.1,0.1h2.7"></path>
        <path id="XMLID_75_" d="M24.4,44.4h14.9c0.1,0,0.1-0.1,0.1-0.1v-3.3H25.4"></path>
        <path id="XMLID_337_" d="M43.5,44.2h-1.3V26.4c0-0.1,0.1-0.2,0.2-0.2h9.1c0.1,0,0.2,0.1,0.2,0.1l4,7.9V44
			c0,0.1-0.1,0.2-0.2,0.2h-2.7"></path>
        <polyline id="XMLID_334_" points="46.3,26.2 46.3,33.9 52.7,33.9 		"></polyline>
        <line id="XMLID_338_" x1="45.4" y1="37.1" x2="47.3" y2="37.1"></line>
        <line id="XMLID_335_" x1="53.1" y1="39.5" x2="55.1" y2="39.5"></line>
        <path id="XMLID_302_" d="M27.7,28.5c0,0.9-0.7,1.6-1.6,1.6c-0.9,0-1.6-0.7-1.6-1.6c0-0.9,1.6-3.1,1.6-3.1
			S27.7,27.6,27.7,28.5z"></path>
        <path id="XMLID_72_" d="M35.6,38H12c-2,0-3.7-1.7-3.7-3.7V22.4c0-2,1.7-3.7,3.7-3.7h23.7c2,0,3.7,1.7,3.7,3.7v11.9
			C39.3,36.3,37.7,38,35.6,38z"></path>
        <line id="XMLID_81_" x1="32.3" y1="35.2" x2="36.1" y2="35.2"></line>
        <line id="XMLID_78_" x1="32.3" y1="21.8" x2="36.1" y2="21.8"></line>
        <line id="XMLID_84_" x1="19.3" y1="16.6" x2="29.5" y2="16.6"></line>
        <g id="XMLID_98_">
          <line id="XMLID_85_" x1="12" y1="18.9" x2="12" y2="38"></line>
          <line id="XMLID_82_" x1="17.3" y1="18.9" x2="17.3" y2="38"></line>
          <line id="XMLID_92_" x1="12" y1="22.3" x2="16.8" y2="22.3"></line>
          <line id="XMLID_86_" x1="12.2" y1="26.7" x2="17" y2="26.7"></line>
          <line id="XMLID_96_" x1="12.4" y1="31.1" x2="17.3" y2="31.1"></line>
        </g>
        <circle id="XMLID_80_" cx="26.1" cy="27.8" r="5.3"></circle>
      </g>
      <g id="XMLID_106_">
        <g id="XMLID_105_">
          <g id="XMLID_97_">
            <path id="XMLID_108_" d="M40.2,31.8c0,0,0.9,6.1-2.3,9.3c-3.2,3.2-9.3,2.3-9.3,2.3s-0.9-6.1,2.3-9.3
					C34.1,31,40.2,31.8,40.2,31.8z"></path>
          </g>
          <g id="XMLID_103_">
            <path id="XMLID_104_" d="M26.3,41.4c-1.3-1.5-2.7-3.7-2.7-6.2c0-4.6,5-8.2,5-8.2s2.1,1.6,3.5,4"></path>
          </g>
        </g>
        <path id="XMLID_188_" d="M24.1,26.4v-7.5c0-4.3,3.5-7.9,7.9-7.9l0,0c4.3,0,7.9,3.5,7.9,7.9v7.5"></path>
        <path id="XMLID_94_" d="M48.6,53H15.4c-0.1,0-0.2-0.1-0.2-0.2l1-5.9V21.6c0-0.1,0.1-0.2,0.2-0.2h31.2
			c0.1,0,0.2,0.1,0.2,0.2v25.6l1,5.6C48.8,52.9,48.7,53,48.6,53z"></path>
        <line id="XMLID_102_" x1="16.9" y1="46.8" x2="31.3" y2="46.8"></line>
      </g>
      <g id="XMLID_128_">
        <path id="XMLID_110_" d="M52.3,39.5H11.7c-0.1,0-0.3-0.1-0.3-0.3V11.4c0-0.1,0.1-0.3,0.3-0.3h40.7
			c0.1,0,0.3,0.1,0.3,0.3v27.8C52.6,39.4,52.5,39.5,52.3,39.5z"></path>
        <polyline id="XMLID_111_" points="14.9,14.3 14.9,22.3 22.9,22.3 		"></polyline>
        <polyline id="XMLID_113_" points="28.2,14.3 28.2,22.3 36.2,22.3 		"></polyline>
        <polyline id="XMLID_114_" points="41.5,14.3 41.5,22.3 49.5,22.3 		"></polyline>
        <polyline id="XMLID_118_" points="14.9,26.3 14.9,34.3 22.9,34.3 		"></polyline>
        <polyline id="XMLID_117_" points="28.2,26.3 28.2,34.3 36.2,34.3 		"></polyline>
        <polyline id="XMLID_115_" points="41.5,26.3 41.5,34.3 49.5,34.3 		"></polyline>
        <line id="XMLID_121_" x1="28" y1="42" x2="28" y2="50.8"></line>
        <line id="XMLID_120_" x1="36" y1="42" x2="36" y2="50.8"></line>
        <line id="XMLID_125_" x1="31" y1="44.2" x2="33" y2="44.2"></line>
        <line id="XMLID_122_" x1="31" y1="48.2" x2="33" y2="48.2"></line>
        <line id="XMLID_130_" x1="17.9" y1="52.8" x2="45.7" y2="52.8"></line>
      </g>
      <g id="XMLID_135_">
        <line id="XMLID_168_" x1="52.9" y1="27" x2="52.9" y2="47.1"></line>
        <polyline id="XMLID_162_" points="39.1,54.5 39.1,51.3 30.8,28.9 26.5,29 17.2,50.5 17.2,54.5 		"></polyline>
        <line id="XMLID_161_" x1="38.8" y1="50.4" x2="23.5" y2="35.1"></line>
        <line id="XMLID_159_" x1="17.3" y1="50.7" x2="33" y2="35"></line>
        <line id="XMLID_156_" x1="11.4" y1="29" x2="11.4" y2="43.7"></line>
        <rect id="XMLID_154_" x="9.1" y="46.1" width="4.7" height="8.4"></rect>
        <line id="XMLID_152_" x1="44" y1="16.1" x2="10.9" y2="29.9"></line>
        <path id="XMLID_149_" d="M44.7,19.8l-12.5,5.3"></path>
        <path id="XMLID_139_" d="M11.4,33.7l12.8-5.2"></path>
        <line id="XMLID_138_" x1="57.1" y1="54.5" x2="6.9" y2="54.5"></line>
        <polygon id="XMLID_137_" points="46.3,19.8 52.3,25.3 53.5,24.8 53.6,16.7 51.2,11.2 47.5,9.5 45.3,10.5 44,14.4 		
			"></polygon>
        <line id="XMLID_136_" x1="38.7" y1="50.8" x2="17.3" y2="50.8"></line>
        <line id="XMLID_150_" x1="27.3" y1="33.7" x2="29.1" y2="33.7"></line>
        <polygon id="XMLID_140_" points="55.4,54.5 50.8,54.5 51.8,49.2 54.4,49.2 		"></polygon>
        <polyline id="XMLID_164_" points="29.9,29 29.9,26.2 27.3,26.2 27.3,29 		"></polyline>
      </g>
      <g id="XMLID_171_">
        <g id="XMLID_153_">
          <polygon id="XMLID_170_" points="40.3,51.5 23.7,51.5 22.6,49.2 22.6,42.1 41.4,42.1 41.4,49.1 			"></polygon>
          <rect id="XMLID_169_" x="29.4" y="51.5" width="5.3" height="3"></rect>
          <path id="XMLID_167_" d="M45.3,27.7c0-7.3-5.9-13.2-13.2-13.2c-7.3,0-13.2,5.9-13.2,13.2c0,4.7,2.4,8.7,6.1,11.1v3.3
				h14.3v-3.3C42.9,36.5,45.3,32.4,45.3,27.7z"></path>
          <line id="XMLID_158_" x1="22.6" y1="46.8" x2="30.8" y2="46.8"></line>
        </g>
        <path id="XMLID_172_" d="M18.3,42.5c-3.5-3.5-5.7-8.3-5.7-13.7s2.2-10.2,5.7-13.7c3.5-3.5,8.3-5.7,13.7-5.7
			s10.2,2.2,13.7,5.7c3.5,3.5,5.7,8.3,5.7,13.7S49.2,39,45.7,42.5"></path>
        <path id="XMLID_173_" d="M35.4,25.3c0.9,0.9,1.4,2.1,1.4,3.4c0,1.3-0.5,2.5-1.4,3.4c-0.9,0.9-2.1,1.4-3.4,1.4
			c-1.3,0-2.5-0.5-3.4-1.4c-0.9-0.9-1.4-2.1-1.4-3.4c0-1.3,0.5-2.5,1.4-3.4"></path>
        <line id="XMLID_174_" x1="32.1" y1="22.4" x2="32.1" y2="29.7"></line>
      </g>
      <g id="XMLID_180_">
        <g id="XMLID_176_">
          <path id="XMLID_179_" d="M46.9,26.5l0-3.8l-3.2-0.9c-0.3-1.3-0.8-2.5-1.5-3.6l1.9-3.1l-2.7-2.7l-3.1,1.9
				c-1.1-0.7-2.3-1.2-3.6-1.5l-0.9-3.4h-3.8l-0.9,3.4c-1.3,0.3-2.5,0.8-3.5,1.5l-3-1.8L20,15.3l1.8,3c-0.7,1.1-1.2,2.3-1.5,3.6
				l-3.2,1l0,3.8l3.2,0.7c0.3,1.3,0.8,2.5,1.5,3.6l-1.9,2.9l2.7,2.7l3.1-1.7c1.1,0.7,2.3,1.2,3.6,1.5l0.9,3.6l3.8,0l0.9-3.6
				c1.3-0.3,2.5-0.8,3.6-1.5l3.1,1.8l2.7-2.7l-1.9-3.1c0.7-1.1,1.2-2.3,1.5-3.6L46.9,26.5z"></path>
          <circle id="XMLID_177_" cx="32" cy="24.6" r="5.4"></circle>
        </g>
        <g id="XMLID_194_">
          <path id="XMLID_196_" d="M45.6,41.1c0,0,0.7,5-1.9,7.6c-2.6,2.6-7.6,1.9-7.6,1.9s-0.7-5,1.9-7.6
				C40.6,40.4,45.6,41.1,45.6,41.1z"></path>
        </g>
        <g id="XMLID_183_">
          <path id="XMLID_184_"
            d="M19.2,41.1c0,0-0.7,5,1.9,7.6c2.6,2.6,7.6,1.9,7.6,1.9s0.7-5-1.9-7.6S19.2,41.1,19.2,41.1z"></path>
        </g>
        <line id="XMLID_181_" x1="32.4" y1="42.3" x2="32.4" y2="54.5"></line>
        <line id="XMLID_186_" x1="52.7" y1="13.1" x2="47.5" y2="16.1"></line>
        <line id="XMLID_187_" x1="55.7" y1="25" x2="49.7" y2="25"></line>
        <line id="XMLID_189_" x1="52.4" y1="36.8" x2="47.2" y2="33.8"></line>
        <line id="XMLID_201_" x1="11.3" y1="36.2" x2="16.5" y2="33.2"></line>
        <line id="XMLID_202_" x1="8.3" y1="24.3" x2="14.3" y2="24.3"></line>
        <line id="XMLID_203_" x1="11.6" y1="12.4" x2="16.8" y2="15.4"></line>
      </g>
      <g id="XMLID_195_">
        <path id="XMLID_199_"
          d="M34.9,24.5c2,3.2,4.3,7.4,4.3,9.6c0,4-3.2,7.2-7.2,7.2s-7.2-3.2-7.2-7.2c0-4,7.2-14,7.2-14"></path>
        <path id="XMLID_200_" d="M32,38.1c-2.4,0-4.3-1.9-4.3-4.3"></path>
        <path id="XMLID_198_" d="M32,17.1c8.2,0,14.9,6.7,14.9,14.9S40.2,46.9,32,46.9S17.1,40.2,17.1,32"></path>
        <circle id="XMLID_192_" cx="32" cy="32" r="21.4"></circle>
      </g>
      <g id="XMLID_205_">
        <path id="XMLID_209_" d="M40.9,13.4c7.2,3.5,12.1,11,11.7,19.6C52.1,44.4,42.4,53.2,31,52.6"></path>
        <path id="XMLID_207_" d="M21.8,50C15.3,46.3,11,39.1,11.4,31.1C11.9,19.7,21.6,10.9,33,11.4"></path>
        <path id="XMLID_206_" d="M38.3,30.5h-7.9l7.9-20.6c0,0,0,0,0,0l-15.4,22l-2.8,4h5.2h7.8l-7.7,18.2c0,0,0,0,0,0
			l15.2-19.5l3.2-4.1H38.3z"></path>
      </g>
      <g id="XMLID_4_">
        <polyline id="XMLID_219_" points="21.7,24.3 24,26.5 29.2,21.4 		"></polyline>
        <path id="XMLID_1167_" d="M37.1,26.7l-2.5,1.9l0.9,3.1c0.3,1.2-0.5,2.3-1.7,2.4l-3.2,0.1l-1.1,3
			c-0.4,1.2-1.8,1.6-2.8,0.9L24,36.3l-2.6,1.8c-1,0.7-2.4,0.2-2.8-0.9l-1.1-3l-3.2-0.1c-1.2,0-2.1-1.2-1.7-2.4l0.9-3.1L11,26.7
			c-1-0.7-1-2.2,0-2.9l2.5-1.9l-0.9-3.1c-0.3-1.2,0.5-2.3,1.7-2.4l3.2-0.1l1.1-3c0.4-1.1,1.8-1.6,2.8-0.9l2.6,1.8l2.6-1.8
			c1-0.7,2.4-0.2,2.8,0.9l1.1,3l3.2,0.1c1.2,0,2.1,1.2,1.7,2.4l-0.9,3.1l2.5,1.9C38.1,24.5,38.1,26,37.1,26.7z"></path>
        <path id="XMLID_214_" d="M24,20c-2.9,0-5.2,2.3-5.2,5.2c0,2.9,2.3,5.2,5.2,5.2c2.9,0,5.2-2.3,5.2-5.2"></path>
        <path id="XMLID_216_" d="M24,40.4v5.8c0,4.1,3.4,7.5,7.5,7.5l0,0c4.1,0,7.5-3.4,7.5-7.5v-8.1c0-3.3,2.6-5.9,5.9-5.9h0
			c3.3,0,5.9,2.6,5.9,5.9v15.6"></path>
        <g id="XMLID_217_">
          <line id="XMLID_221_" x1="46.2" y1="10.3" x2="46.2" y2="14.6"></line>
          <line id="XMLID_218_" x1="51.5" y1="12.5" x2="48.5" y2="15.5"></line>
          <line id="XMLID_222_" x1="53.7" y1="17.8" x2="49.4" y2="17.8"></line>
          <line id="XMLID_224_" x1="51.5" y1="23.1" x2="48.5" y2="20"></line>
          <line id="XMLID_225_" x1="46.2" y1="25.3" x2="46.2" y2="20.9"></line>
          <line id="XMLID_226_" x1="40.9" y1="23.1" x2="44" y2="20"></line>
          <line id="XMLID_227_" x1="38.7" y1="17.8" x2="43" y2="17.8"></line>
          <line id="XMLID_229_" x1="40.9" y1="12.5" x2="44" y2="15.5"></line>
        </g>
      </g>
      <g id="XMLID_249_">
        <g id="XMLID_241_">
          <path id="XMLID_250_" d="M13.7,21c0,0,4.7-6.3,10.5-6.3S34.7,21,34.7,21s-4.7,6.3-10.5,6.3S13.7,21,13.7,21z">
          </path>
        </g>
        <g id="XMLID_240_">
          <path id="XMLID_236_" d="M49.5,44.6l3,3c0.5,0.5,1.4,0.5,1.9,0l0,0c0.5-0.5,0.5-1.4,0-1.9l-3-3"></path>
          <path id="XMLID_235_" d="M42.8,51.3l3,3c0.5,0.5,1.4,0.5,1.9,0l0,0c0.5-0.5,0.5-1.4,0-1.9l-3-3"></path>
          <path id="XMLID_232_" d="M51,36.5L36.5,51c-0.1,0.1-0.1,0.2,0,0.2l2,2c0.1,0.1,0.2,0.1,0.2,0l14.5-14.5
				c0.1-0.1,0.1-0.2,0-0.2l-2-2C51.2,36.4,51.1,36.4,51,36.5z"></path>
          <path id="XMLID_233_" d="M49.5,36l-4-4c-3.7-3.7-9.8-3.7-13.5,0l0,0c-3.7,3.7-3.7,9.8,0,13.5l4,4"></path>
          <line id="XMLID_238_" x1="38.4" y1="45.1" x2="33.4" y2="40"></line>
          <line id="XMLID_237_" x1="41.8" y1="41.7" x2="34.4" y2="34.4"></line>
          <line id="XMLID_239_" x1="45.2" y1="38.4" x2="40.1" y2="33.3"></line>
        </g>
        <path id="XMLID_244_" d="M29.3,12.7C27,10.4,24,9.3,21,9.3s-6,1.1-8.3,3.4S9.2,18,9.2,21c0,3,1.1,6,3.4,8.3
			c2.3,2.3,5.3,3.4,8.3,3.4s6.1-1.2,8.4-3.5l1.6,1.6"></path>
        <line id="XMLID_242_" x1="14.7" y1="21" x2="33.4" y2="21"></line>
        <line id="XMLID_245_" x1="20.5" y1="21" x2="25.8" y2="15.2"></line>
        <line id="XMLID_247_" x1="20.1" y1="21" x2="25.4" y2="27.3"></line>
        <line id="XMLID_248_" x1="26.7" y1="21" x2="30.6" y2="16.7"></line>
        <line id="XMLID_234_" x1="26.3" y1="21" x2="30" y2="25.4"></line>
      </g>
      <g id="XMLID_246_">
        <path id="XMLID_274_"
          d="M33.8,34.1c0,1.2-1,2.2-2.2,2.2c-1.2,0-2.2-1-2.2-2.2s2.2-4.3,2.2-4.3S33.8,32.9,33.8,34.1z"></path>
        <circle id="XMLID_252_" cx="31.6" cy="33.1" r="7.4"></circle>
        <path id="XMLID_269_" d="M46.7,43.8V22.4c1.3-0.3,2.2-1.4,2.2-2.8c0-1.4-0.9-2.5-2.2-2.8v-4c0-0.8-0.6-1.4-1.4-1.4
			H18.8c-0.8,0-1.4,0.6-1.4,1.4v4c-1.3,0.3-2.2,1.4-2.2,2.8c0,1.4,0.9,2.5,2.2,2.8v21.3c-1.3,0.3-2.2,1.4-2.2,2.8s0.9,2.5,2.2,2.8
			v3.9c0,0.8,0.6,1.4,1.4,1.4h26.5c0.8,0,1.4-0.6,1.4-1.4v-3.9c1.3-0.3,2.2-1.4,2.2-2.8S47.9,44.1,46.7,43.8z"></path>
        <line id="XMLID_260_" x1="17.2" y1="22.6" x2="29" y2="22.6"></line>
        <line id="XMLID_243_" x1="36.9" y1="22.6" x2="31.3" y2="22.6"></line>
        <line id="XMLID_263_" x1="46.2" y1="43.6" x2="36.9" y2="43.6"></line>
        <line id="XMLID_265_" x1="32" y1="43.6" x2="35.7" y2="43.6"></line>
        <line id="XMLID_271_" x1="19" y1="9.3" x2="23.9" y2="9.3"></line>
      </g>
      <g id="XMLID_277_">
        <g id="XMLID_281_">
          <path id="XMLID_282_" d="M18.8,22.7c0-7.5,6.1-13.5,13.5-13.5c7.5,0,13.5,6.1,13.5,13.5"></path>
        </g>
        <polyline id="XMLID_279_" points="32.6,12.6 30.2,18.7 34.6,18.7 31.6,24.8 		"></polyline>
        <g id="XMLID_259_">
          <path id="XMLID_255_" d="M18.4,27.5v-2.8c0-0.1,0.1-0.2,0.2-0.2h2.9c0.1,0,0.2,0.1,0.2,0.2v2.8"></path>
          <path id="XMLID_258_" d="M42.4,27.5v-2.8c0-0.1,0.1-0.2,0.2-0.2h2.9c0.1,0,0.2,0.1,0.2,0.2v2.8"></path>
          <line id="XMLID_257_" x1="50.9" y1="34.2" x2="50.9" y2="50"></line>
          <line id="XMLID_256_" x1="13.1" y1="50" x2="13.1" y2="34.2"></line>
          <path id="XMLID_272_" d="M52,32.4H12c-0.1,0-0.2-0.1-0.2-0.2v-4c0-0.1,0.1-0.2,0.2-0.2h40c0.1,0,0.2,0.1,0.2,0.2v4
				C52.2,32.3,52.1,32.4,52,32.4z"></path>
          <path id="XMLID_254_" d="M44.8,50.5H52c0.1,0,0.2,0.1,0.2,0.2v3.9c0,0.1-0.1,0.2-0.2,0.2H12c-0.1,0-0.2-0.1-0.2-0.2
				v-3.9c0-0.1,0.1-0.2,0.2-0.2h14.5"></path>
        </g>
        <line id="XMLID_261_" x1="39.7" y1="41.6" x2="45.8" y2="41.6"></line>
        <g id="XMLID_273_">
          <line id="XMLID_264_" x1="18.7" y1="41.6" x2="24.8" y2="41.6"></line>
          <line id="XMLID_270_" x1="21.8" y1="44.6" x2="21.8" y2="38.5"></line>
        </g>
      </g>
      <g id="XMLID_275_">
        <path id="XMLID_284_" d="M39.3,19.8c0-2.4-1.9-4.3-4.3-4.3c-1.2,0-2.3,0.5-3.1,1.3c-0.8-0.8-1.9-1.3-3.1-1.3
			c-2.4,0-4.3,1.9-4.3,4.3c0,1.2,0.5,2.2,1.2,3l6.2,6.1l6.3-6.3c0.1-0.1,0.2-0.3,0.2-0.3C39,21.6,39.3,20.7,39.3,19.8z">
        </path>
        <path id="XMLID_327_" d="M48.8,54.8V48c0,0,0-0.1-0.1-0.1h-14c0,0-0.1,0-0.1,0.1v6.8"></path>
        <path id="XMLID_326_"
          d="M37,47.9l0-8.8c0.1-0.5,0.4-1.3,0.8-1.7l5.3-5.7c1.3-1.7,4,0.1,2.6,1.6l-4.3,5.9l2.1,0
			l5.1-5.5c0,0,0.3-3.3,0.4-3.8L46.6,24c-0.4-1-0.4-2.2-0.1-3.2c0.3-0.8,0.6-1.5,1-1.6l4.2,10.5c0.2,0.4,0.1,6,0.1,6L46,47.9"></path>
        <path id="XMLID_325_" d="M15.2,54.8V48c0,0,0-0.1,0.1-0.1h14c0,0,0.1,0,0.1,0.1v6.8"></path>
        <path id="XMLID_324_"
          d="M27,47.9l0-8.8c-0.1-0.5-0.4-1.3-0.8-1.7l-5.3-5.7c-1.3-1.7-4,0.1-2.6,1.6l4.3,5.9l-2.1,0
			l-5.1-5.5c0,0-0.3-3.3-0.4-3.8l2.5-6.1c0.4-1,0.4-2.2,0.1-3.2c-0.3-0.8-0.6-1.5-1-1.6l-4.2,10.5c-0.2,0.4-0.1,6-0.1,6L18,47.9"></path>
        <g id="XMLID_612_">
          <circle id="XMLID_619_" cx="32.1" cy="21.1" r="11.9"></circle>
        </g>
      </g>
      <g id="XMLID_307_">
        <circle id="XMLID_314_" cx="32" cy="32" r="15.5"></circle>
        <path id="XMLID_318_" d="M24.7,34c-0.1-0.5-0.2-1-0.2-1.5c0-0.5,0.1-1,0.2-1.5c0.1-0.5,0.2-1,0.4-1.4
			c0.2-0.4,0.4-0.9,0.7-1.3c0.3-0.4,0.6-0.8,0.9-1.1c0.3-0.3,0.7-0.6,1.1-0.9c0.4-0.3,0.8-0.5,1.3-0.7c0.4-0.2,0.9-0.3,1.4-0.4
			c0.5-0.1,1-0.2,1.5-0.2"></path>
        <path id="XMLID_308_" d="M27.9,38.7c-0.4-0.3-0.8-0.6-1.1-0.9c-0.3-0.3-0.6-0.7-0.9-1.1"></path>
        <path id="XMLID_288_" d="M33.6,39.8c-0.5,0.1-1,0.2-1.5,0.2c-0.5,0-1-0.1-1.5-0.2"></path>
        <path id="XMLID_289_" d="M38.3,36.6c-0.3,0.4-0.6,0.8-0.9,1.1c-0.3,0.3-0.7,0.6-1.1,0.9"></path>
        <polyline id="XMLID_311_" points="29.9,22.3 32.6,25 29.9,27.7 		"></polyline>
        <line id="XMLID_286_" x1="32.1" y1="9" x2="32.1" y2="14"></line>
        <line id="XMLID_285_" x1="43.6" y1="12.1" x2="41.1" y2="16.4"></line>
        <line id="XMLID_287_" x1="52" y1="20.5" x2="47.6" y2="23"></line>
        <line id="XMLID_290_" x1="55" y1="32" x2="50" y2="32"></line>
        <line id="XMLID_292_" x1="51.9" y1="43.5" x2="47.6" y2="41"></line>
        <line id="XMLID_295_" x1="43.5" y1="51.9" x2="41" y2="47.6"></line>
        <line id="XMLID_297_" x1="32" y1="55" x2="32" y2="50"></line>
        <line id="XMLID_299_" x1="20.5" y1="51.9" x2="23" y2="47.6"></line>
        <line id="XMLID_301_" x1="12.1" y1="43.5" x2="16.4" y2="41"></line>
        <line id="XMLID_303_" x1="9" y1="32" x2="14" y2="32"></line>
        <line id="XMLID_305_" x1="12.1" y1="20.5" x2="16.4" y2="23"></line>
        <line id="XMLID_306_" x1="20.5" y1="12.1" x2="23" y2="16.4"></line>
      </g>
      <g id="XMLID_304_">
        <g id="XMLID_146_">
          <path id="XMLID_148_" d="M46.3,32.5l0-3.1l-4.9-0.7c-0.2-1-0.6-2-1.2-2.9l2.9-3.9L41,19.7l-3.9,2.9
				c-0.9-0.5-1.8-1-2.9-1.2l-0.7-4.9h-3.1l-0.7,4.9c-1,0.2-2,0.6-2.9,1.2L23,19.7l-2.2,2.2l2.9,3.9c-0.5,0.9-1,1.8-1.2,2.9l-4.9,0.7
				l0,3.1l4.9,0.7c0.2,1,0.6,2,1.2,2.9L20.8,40l2.2,2.2l3.9-2.9c0.9,0.5,1.8,1,2.9,1.2l0.7,4.9l3.1,0l0.7-4.9c1-0.2,2-0.6,2.9-1.2
				l3.9,2.9l2.2-2.2l-2.9-3.9c0.5-0.9,1-1.8,1.2-2.9L46.3,32.5z"></path>
          <path id="XMLID_291_" d="M32,26.6c2.4,0,4.4,2,4.4,4.4s-2,4.4-4.4,4.4c-2.4,0-4.4-2-4.4-4.4"></path>
        </g>
        <g id="XMLID_300_">
          <path id="XMLID_317_" d="M16.4,17.1c1.5-1.7,3.3-3.2,5.5-4.4c5-2.8,10.6-3.3,15.7-1.9c5.1,1.4,9.6,4.8,12.4,9.8">
          </path>
          <path id="XMLID_316_"
            d="M26.3,50.6c-5.1-1.4-9.6-4.8-12.4-9.8c-2.8-5-3.3-10.6-1.9-15.7c0.3-1.1,0.7-2.2,1.2-3.2"></path>
          <path id="XMLID_315_"
            d="M52.2,26.9c0.6,3.2,0.4,6.4-0.4,9.4c-1.4,5.1-4.8,9.6-9.8,12.4c-3.1,1.7-6.5,2.6-9.8,2.6"></path>
          <polyline id="XMLID_313_" points="52.7,21.4 51.3,24.2 48.4,22.8 			"></polyline>
          <polyline id="XMLID_312_" points="30.8,53.9 27.9,51.2 30.8,48.5 			"></polyline>
          <polyline id="XMLID_310_" points="11.4,19.9 14.7,18.7 16.4,21.9 			"></polyline>
        </g>
      </g>
      <g id="XMLID_341_">
        <path id="XMLID_328_" d="M17.7,18.3v7.2c0,0.1,0,0.1,0.1,0.1l2,1.3l0.6,13.2"></path>
        <path id="XMLID_319_" d="M28.4,52.9H43c0.1,0,0.3-0.1,0.3-0.2L44.4,27l2-1.3c0.1,0,0.1-0.1,0.1-0.1v-7.2"></path>
        <path id="XMLID_329_" d="M48,14.6v1.6c0,0.1-0.1,0.2-0.2,0.2H23.5"></path>
        <path id="XMLID_330_" d="M45.6,9.6H19c-1.4,0-2.5,1.1-2.5,2.5v0.3v0.8v3c0,0.1,0.1,0.2,0.2,0.2h4.7v-3.2h26.8v-1.1
			C48.1,10.7,47,9.6,45.6,9.6z"></path>
        <circle id="XMLID_1541_" cx="21.3" cy="48.2" r="6.2"></circle>
        <circle id="XMLID_320_" cx="21.3" cy="48.2" r="2.2"></circle>
        <path id="XMLID_339_" d="M39,30.7c0,1.8-0.7,3.5-1.9,4.6c-1.2,1.2-2.8,1.9-4.6,1.9c-1.8,0-3.5-0.7-4.6-1.9
			c-1.2-1.2-1.9-2.8-1.9-4.6c0-1.8,0.7-3.5,1.9-4.6c1.2-1.2,2.8-1.9,4.6-1.9"></path>
        <line id="XMLID_336_" x1="46.1" y1="52.9" x2="55.5" y2="52.9"></line>
        <line id="XMLID_332_" x1="8.5" y1="52.9" x2="13.2" y2="52.9"></line>
        <polyline id="XMLID_340_" points="31.3,21.7 33.7,24.2 31.3,26.6 		"></polyline>
      </g>
      <g id="XMLID_774_">
        <path id="XMLID_347_" d="M26.5,42.7c-0.5-3.2-0.7-6.8-0.7-10.7c0-12.6,2.8-22.8,6.2-22.8c3.4,0,6.2,10.2,6.2,22.8
			S35.4,54.8,32,54.8c-1.5,0-2.9-1.9-3.9-5.1"></path>
        <path id="XMLID_349_" d="M24.3,22.7c3.1,0.8,6.6,2.1,10.2,3.6c11.6,5,19.8,11.6,18.4,14.8c-1.4,3.2-11.8,1.6-23.4-3.4
			c-5-2.2-9.3-4.6-12.6-7"></path>
        <path id="XMLID_345_" d="M11.3,25c-0.4-0.8-0.5-1.5-0.2-2.1c0.9-2.2,6.2-2.1,13.2-0.3"></path>
        <path id="XMLID_344_" d="M42.1,22.1c-3.7,0.8-8,2.2-12.5,4.2C18,31.3,9.7,37.9,11.1,41.1c1.4,3.2,11.8,1.6,23.4-3.4
			c11.6-5,19.8-11.6,18.4-14.8c-0.4-0.9-1.6-1.5-3.4-1.6"></path>
        <circle id="XMLID_531_" cx="32" cy="32" r="3"></circle>
        <circle id="XMLID_757_" cx="14" cy="28.5" r="1.5"></circle>
        <circle id="XMLID_535_" cx="45.2" cy="21.3" r="1.5"></circle>
        <circle id="XMLID_756_" cx="27.3" cy="45.7" r="1.5"></circle>
        <line id="XMLID_764_" x1="8.5" y1="32.1" x2="13.1" y2="32.1"></line>
        <line id="XMLID_533_" x1="22" y1="49.7" x2="24.3" y2="45.7"></line>
        <line id="XMLID_765_" x1="43.2" y1="48.7" x2="40.9" y2="44.8"></line>
        <line id="XMLID_766_" x1="55.5" y1="31.9" x2="50.9" y2="32.1"></line>
        <line id="XMLID_767_" x1="41.5" y1="13.8" x2="39.4" y2="17.9"></line>
        <line id="XMLID_768_" x1="20.9" y1="14.8" x2="23.3" y2="18.6"></line>
      </g>
      <g id="XMLID_372_">
        <g id="XMLID_369_">
          <g id="XMLID_362_">
            <path id="XMLID_343_" d="M31,37.5c0.9-5.7,1.5-16.8,0.9-19.8c0-0.1,0.1-0.2,0.2-0.2h15.6c0.1,0,0.2,0.1,0.2,0.2
					c-0.5,3.6,0.1,14.4,0.9,19.6"></path>
            <path id="XMLID_355_" d="M11.2,50.6V39.7c0-0.1,0.1-0.2,0.2-0.2h40.8c0.1,0,0.2,0.1,0.2,0.2v10.9"></path>
            <line id="XMLID_350_" x1="32.8" y1="22.5" x2="47.4" y2="22.5"></line>
            <line id="XMLID_346_" x1="31.8" y1="26" x2="47.9" y2="26"></line>
            <polyline id="XMLID_351_" points="15.5,43.8 15.5,46.3 23.9,46.3 				"></polyline>
            <polyline id="XMLID_352_" points="27.2,43.8 27.2,46.3 35.7,46.3 				"></polyline>
            <polyline id="XMLID_353_" points="39,43.8 39,46.3 47.4,46.3 				"></polyline>
            <polyline id="XMLID_354_" points="54.8,54 54.8,50.6 9.2,50.6 9.2,54 				"></polyline>
            <polyline id="XMLID_360_" points="22.1,37.5 22.9,23.3 25.7,23.3 26.5,37.3 				"></polyline>
            <polyline id="XMLID_358_" points="14.5,37.5 15.3,23.3 18.1,23.3 19,37.3 				"></polyline>
          </g>
          <line id="XMLID_367_" x1="6.7" y1="54" x2="32.8" y2="54"></line>
          <line id="XMLID_365_" x1="57.3" y1="54" x2="45.8" y2="54"></line>
        </g>
        <path id="XMLID_370_" d="M44.1,15.8v-1.6c0-2.3-1.9-4.3-4.3-4.3H9.2"></path>
        <path id="XMLID_371_" d="M33.8,15.8v-0.4c0-1.1-0.9-1.9-1.9-1.9h-9.1"></path>
        <line id="XMLID_373_" x1="11.8" y1="13.5" x2="20" y2="13.5"></line>
      </g>
      <g id="XMLID_383_">
        <g id="XMLID_376_">
          <path id="XMLID_382_" d="M15.3,16.1c1.6-1.9,3.6-3.5,5.8-4.7c5.3-3,11.4-3.5,16.8-2c5.4,1.5,10.3,5.1,13.3,10.5">
          </path>
          <path id="XMLID_381_"
            d="M25.9,51.9c-5.4-1.5-10.3-5.1-13.3-10.5c-3-5.3-3.5-11.3-2-16.8c0.3-1.2,0.8-2.3,1.3-3.5"></path>
          <path id="XMLID_380_"
            d="M53.6,26.5c0.6,3.4,0.5,6.8-0.5,10.1C51.6,42,48,46.9,42.7,49.9c-3.3,1.9-6.9,2.8-10.5,2.8"></path>
          <polyline id="XMLID_379_" points="54.2,20.6 52.6,23.6 49.5,22.1 			"></polyline>
          <polyline id="XMLID_378_" points="30.7,55.5 27.7,52.6 30.7,49.7 			"></polyline>
          <polyline id="XMLID_377_" points="10,19.1 13.5,17.8 15.3,21.2 			"></polyline>
        </g>
        <g id="XMLID_375_">
          <path id="XMLID_384_" d="M29.9,34.6L24.5,44c2.2,1.3,4.8,2,7.5,2c2.7,0,5.3-0.7,7.5-2l-5.4-9.4"></path>
          <path id="XMLID_385_" d="M29.9,27.4L24.5,18C20,20.6,17,25.4,17,31l10.9,0"></path>
          <path id="XMLID_388_" d="M36.1,31L47,31c0,0,0,0,0,0c0-5.6-3-10.4-7.5-13l-5.5,9.4"></path>
          <circle id="XMLID_944_" cx="32" cy="31" r="2.3"></circle>
        </g>
      </g>
      <g id="XMLID_386_">
        <g id="XMLID_393_">
          <g id="XMLID_396_">
            <path id="XMLID_397_" d="M38.8,26.4c0,0,0.7,4.9-1.9,7.5c-2.6,2.6-7.5,1.9-7.5,1.9s-0.7-4.9,1.9-7.5
					S38.8,26.4,38.8,26.4z"></path>
          </g>
          <g id="XMLID_394_">
            <path id="XMLID_395_" d="M27.6,34.1c-1.1-1.2-2.2-3-2.2-5c0-3.7,4-6.6,4-6.6s1.7,1.3,2.9,3.2"></path>
          </g>
        </g>
        <path id="XMLID_483_" d="M43.1,45.1l-11,7.5c-0.1,0-0.1,0-0.2,0l-11-7.5c-5.7-3.9-9.1-10.4-9.1-17.3V11.9
			c0-0.3,0.3-0.6,0.6-0.6h39.2c0.3,0,0.6,0.3,0.6,0.6v15.9C52.2,34.8,48.8,41.2,43.1,45.1z"></path>
        <circle id="XMLID_389_" cx="32.1" cy="29.2" r="11.4"></circle>
        <g id="XMLID_410_">
          <line id="XMLID_392_" x1="19.9" y1="14.4" x2="22" y2="14.4"></line>
          <line id="XMLID_390_" x1="24.3" y1="14.4" x2="26.4" y2="14.4"></line>
          <line id="XMLID_398_" x1="28.7" y1="14.4" x2="30.8" y2="14.4"></line>
          <line id="XMLID_402_" x1="33.2" y1="14.4" x2="35.3" y2="14.4"></line>
          <line id="XMLID_405_" x1="37.6" y1="14.4" x2="39.7" y2="14.4"></line>
          <line id="XMLID_408_" x1="42" y1="14.4" x2="44.1" y2="14.4"></line>
        </g>
      </g>
      <g id="XMLID_415_">
        <path id="XMLID_419_" d="M33.1,37.8c0,1.3-1,2.3-2.3,2.3c-1.3,0-2.3-1-2.3-2.3c0-1.3,2.3-4.5,2.3-4.5
			S33.1,36.5,33.1,37.8z"></path>
        <circle id="XMLID_418_" cx="30.8" cy="36.7" r="7.7"></circle>
        <path id="XMLID_829_" d="M42.9,30.9H44c1.3,0,2.3,1,2.3,2.3v7.6c0,1.3,1,2.3,2.3,2.3l0,0c1.3,0,2.3-1,2.3-2.3V19.7
			c0-0.9-0.5-2.1-1.2-2.8l-4.4-4"></path>
        <path id="XMLID_827_" d="M38.6,23.6H23.1c-0.1,0-0.2-0.1-0.2-0.2V13c0-0.1,0.1-0.2,0.2-0.2h15.5
			c0.1,0,0.2,0.1,0.2,0.2v10.4C38.7,23.5,38.7,23.6,38.6,23.6z"></path>
        <polyline id="XMLID_830_" points="48.1,15.5 48.1,21.9 50.9,25.4 		"></polyline>
        <path id="XMLID_414_" d="M17.3,54.1v-3.5c0-0.1,0.1-0.2,0.2-0.2h27.1c0.1,0,0.2,0.1,0.2,0.2v3.5"></path>
        <path id="XMLID_407_" d="M42.2,48.6V10.1c0-0.1-0.1-0.2-0.2-0.2H19.6c-0.1,0-0.2,0.1-0.2,0.2v38.6"></path>
        <line id="XMLID_412_" x1="26.4" y1="18.9" x2="26.4" y2="16.1"></line>
        <line id="XMLID_403_" x1="30.4" y1="18.9" x2="30.4" y2="16.1"></line>
        <line id="XMLID_413_" x1="34.3" y1="18.9" x2="34.3" y2="16.1"></line>
        <line id="XMLID_416_" x1="11.1" y1="54.1" x2="52.9" y2="54.1"></line>
      </g>
      <g id="XMLID_435_">
        <g id="XMLID_430_">
          <path id="XMLID_423_" d="M17.4,14.7v-2.1c0-0.6,0.5-1,1-1h5.1c0.6,0,1,0.5,1,1v2.1"></path>
          <line id="XMLID_425_" x1="12.7" y1="48" x2="12.7" y2="19.3"></line>
          <line id="XMLID_420_" x1="29.3" y1="19.3" x2="29.3" y2="48"></line>
          <path id="XMLID_427_" d="M19.8,19.1h10v-1.9c0-1.3-1.1-2.4-2.4-2.4H14.6c-1.3,0-2.4,1.1-2.4,2.4v1.9h3.7"></path>
          <path id="XMLID_424_" d="M21.9,47.8h-9.7V50c0,1.3,1.1,2.4,2.4,2.4h12.9c1.3,0,2.4-1.1,2.4-2.4v-2.2h-4.6">
          </path>
          <line id="XMLID_428_" x1="15.7" y1="34.6" x2="15.7" y2="45.2"></line>
          <line id="XMLID_421_" x1="19.1" y1="34.6" x2="19.1" y2="45.2"></line>
          <line id="XMLID_429_" x1="22.6" y1="34.6" x2="22.6" y2="45.2"></line>
          <line id="XMLID_444_" x1="26" y1="34.6" x2="26" y2="45.2"></line>
          <line id="XMLID_448_" x1="15.7" y1="31.6" x2="15.7" y2="33.2"></line>
          <line id="XMLID_447_" x1="19.1" y1="31.6" x2="19.1" y2="33.2"></line>
          <line id="XMLID_446_" x1="22.6" y1="31.6" x2="22.6" y2="33.2"></line>
          <line id="XMLID_445_" x1="26" y1="31.6" x2="26" y2="33.2"></line>
          <line id="XMLID_452_" x1="15.7" y1="28.6" x2="15.7" y2="30.2"></line>
          <line id="XMLID_451_" x1="19.1" y1="28.6" x2="19.1" y2="30.2"></line>
          <line id="XMLID_450_" x1="22.6" y1="28.6" x2="22.6" y2="30.2"></line>
          <line id="XMLID_449_" x1="26" y1="28.6" x2="26" y2="30.2"></line>
          <line id="XMLID_456_" x1="15.7" y1="25.6" x2="15.7" y2="27.2"></line>
          <line id="XMLID_455_" x1="19.1" y1="25.6" x2="19.1" y2="27.2"></line>
          <line id="XMLID_454_" x1="22.6" y1="25.6" x2="22.6" y2="27.2"></line>
          <line id="XMLID_453_" x1="26" y1="25.6" x2="26" y2="27.2"></line>
          <line id="XMLID_460_" x1="15.7" y1="22.6" x2="15.7" y2="24.2"></line>
          <line id="XMLID_459_" x1="19.1" y1="22.6" x2="19.1" y2="24.2"></line>
          <line id="XMLID_458_" x1="22.6" y1="22.6" x2="22.6" y2="24.2"></line>
          <line id="XMLID_457_" x1="26" y1="22.6" x2="26" y2="24.2"></line>
        </g>
        <g id="XMLID_431_">
          <path id="XMLID_477_" d="M39.4,14.7v-2.1c0-0.6,0.5-1,1-1h5.1c0.6,0,1,0.5,1,1v2.1"></path>
          <line id="XMLID_476_" x1="34.7" y1="48" x2="34.7" y2="19.3"></line>
          <line id="XMLID_475_" x1="51.3" y1="19.3" x2="51.3" y2="48"></line>
          <path id="XMLID_474_" d="M41.8,19.1h10v-1.9c0-1.3-1.1-2.4-2.4-2.4H36.6c-1.3,0-2.4,1.1-2.4,2.4v1.9h3.7"></path>
          <path id="XMLID_473_" d="M43.9,47.8h-9.7V50c0,1.3,1.1,2.4,2.4,2.4h12.9c1.3,0,2.4-1.1,2.4-2.4v-2.2h-4.6">
          </path>
          <line id="XMLID_472_" x1="37.7" y1="23.4" x2="37.7" y2="45.2"></line>
          <line id="XMLID_471_" x1="41.1" y1="23.4" x2="41.1" y2="45.2"></line>
          <line id="XMLID_470_" x1="44.6" y1="23.4" x2="44.6" y2="45.2"></line>
          <line id="XMLID_469_" x1="48" y1="23.4" x2="48" y2="45.2"></line>
        </g>
      </g>
    </g>
    <g id="Icon_text">
      <g id="XMLID_40_"><text id="XMLID_363_" transform="matrix(1 0 0 1 -162.3837 -77.8332)">
          <tspan x="0" y="0">GREEN</tspan>
          <tspan x="-2.2" y="7">ENERGY</tspan>
        </text></g>
      <g id="XMLID_55_"><text id="XMLID_364_" transform="matrix(1 0 0 1 -73.5245 -77.8334)">
          <tspan x="0" y="0">ENERGY</tspan>
          <tspan x="0.9" y="7">SAVING</tspan>
        </text></g>
      <g id="XMLID_70_"><text id="XMLID_366_" transform="matrix(1 0 0 1 12.6282 -77.8335)">
          <tspan x="0" y="0">POWER OF</tspan>
          <tspan x="9.4" y="7">WIND</tspan>
        </text></g>
      <g id="XMLID_101_"><text id="XMLID_368_" transform="matrix(1 0 0 1 108.7197 -77.8335)">
          <tspan x="0" y="0">PETROL</tspan>
          <tspan x="4.1" y="7">TANK</tspan>
        </text></g>
      <g id="XMLID_107_"><text id="XMLID_391_" transform="matrix(1 0 0 1 198.0258 -77.8335)">ECO BAG</text></g>
      <g id="XMLID_133_"><text id="XMLID_399_" transform="matrix(1 0 0 1 -162.2645 18.8335)">
          <tspan x="0" y="0">SOLAR</tspan>
          <tspan x="0.2" y="7">PANEL</tspan>
        </text></g>
      <g id="XMLID_163_"><text id="XMLID_400_" transform="matrix(1 0 0 1 -64.9438 18.8336)">
          <tspan x="0" y="0">OIL</tspan>
          <tspan x="-4.7" y="7">PUMP</tspan>
        </text></g>
      <g id="XMLID_175_"><text id="XMLID_401_" transform="matrix(1 0 0 1 18.5854 18.8336)">
          <tspan x="0" y="0">POWER</tspan>
          <tspan x="7.9" y="7">ON</tspan>
        </text></g>
      <g id="XMLID_185_"><text id="XMLID_404_" transform="matrix(1 0 0 1 103.3119 18.8336)">
          <tspan x="0" y="0">POWER OF</tspan>
          <tspan x="4.6" y="7">NATURE</tspan>
        </text></g>
      <g id="XMLID_204_"><text id="XMLID_406_" transform="matrix(1 0 0 1 201.1093 18.8335)">
          <tspan x="0" y="0">WATER</tspan>
          <tspan x="-1.6" y="7">ENERGY</tspan>
        </text></g>
      <g id="XMLID_212_"><text id="XMLID_409_" transform="matrix(1 0 0 1 -167.0934 114.6673)">
          <tspan x="0" y="0">ELECTRIC</tspan>
          <tspan x="3.9" y="7">POWER</tspan>
        </text></g>
      <g id="XMLID_230_"><text id="XMLID_422_" transform="matrix(1 0 0 1 -75.6174 114.6673)">
          <tspan x="0" y="0">BIOMASS</tspan>
          <tspan x="2.1" y="7">ENERGY</tspan>
        </text></g>
      <g id="XMLID_251_"><text id="XMLID_426_" transform="matrix(1 0 0 1 24.2584 114.6676)">
          <tspan x="0" y="0">ECO</tspan>
          <tspan x="-7" y="7">ENERGY</tspan>
        </text></g>
      <g id="XMLID_253_"><text id="XMLID_433_" transform="matrix(1 0 0 1 117.3256 114.6673)">
          <tspan x="0" y="0">OIL</tspan>
          <tspan x="-8.4" y="7">BARREL</tspan>
        </text></g>
      <g id="XMLID_283_"><text id="XMLID_466_" transform="matrix(1 0 0 1 198.0874 114.6673)">BATTERY</text></g>
      <g id="XMLID_278_"><text id="XMLID_467_" transform="matrix(1 0 0 1 -167.5461 210.4166)">
          <tspan x="0" y="0">SAVE THE</tspan>
          <tspan x="5.3" y="7">EARTH</tspan>
        </text></g>
      <g id="XMLID_309_"><text id="XMLID_468_" transform="matrix(1 0 0 1 -81.3622 210.4163)">
          <tspan x="0" y="0">RENEWABLE</tspan>
          <tspan x="8.1" y="7">ENERGY</tspan>
        </text></g>
      <g id="XMLID_147_"><text id="XMLID_478_" transform="matrix(1 0 0 1 108.4756 210.4166)">
          <tspan x="0" y="0">ENERGY</tspan>
          <tspan x="-12.8" y="7">DEVELOPMENT</tspan>
        </text></g>
      <g id="XMLID_342_"><text id="XMLID_479_" transform="matrix(1 0 0 1 11.2592 209.5666)">
          <tspan x="0" y="0">RECYCLING</tspan>
          <tspan x="13.4" y="7"> BIN</tspan>
        </text></g>
      <g id="XMLID_348_"><text id="XMLID_480_" transform="matrix(1 0 0 1 202.9932 210.4163)">
          <tspan x="0" y="0">ATOM</tspan>
          <tspan x="-3.8" y="7">ENERGY</tspan>
        </text></g>
      <g id="XMLID_374_"><text id="XMLID_481_" transform="matrix(1 0 0 1 -163.6106 305.1656)">
          <tspan x="0" y="0">POWER</tspan>
          <tspan x="1.7" y="7">PLANT</tspan>
        </text></g>
      <g id="XMLID_387_"><text id="XMLID_482_" transform="matrix(1 0 0 1 -76.807 305.1657)">
          <tspan x="0" y="0">NUCLEAR</tspan>
          <tspan x="3.8" y="7">POWER</tspan>
        </text></g>
      <g id="XMLID_411_"><text id="XMLID_484_" transform="matrix(1 0 0 1 198.9023 305.1653)">
          <tspan x="0" y="0">NATURE</tspan>
          <tspan x="-8.8" y="7">PROTECTION</tspan>
        </text></g>
      <g id="XMLID_417_"><text id="XMLID_485_" transform="matrix(1 0 0 1 115.8871 305.1657)">
          <tspan x="0" y="0">GAS</tspan>
          <tspan x="-8.5" y="7">STATION</tspan>
        </text></g>
      <g id="XMLID_432_"><text id="XMLID_486_" transform="matrix(1 0 0 1 12.6068 305.166)">
          <tspan x="0" y="0">CHARGING</tspan>
          <tspan x="3.4" y="7">BATTERY</tspan>
        </text></g>
    </g>
    <g id="headline">
      <circle id="XMLID_61_" cx="-133.5" cy="-208.4" r="18.3"></circle>
      <circle id="XMLID_60_" cx="-110.1" cy="-208.4" r="18.3"></circle>
      <circle id="XMLID_63_" cx="-122.7" cy="-190.1" r="18.3"></circle>
      <g id="XMLID_1_"><text id="XMLID_487_" transform="matrix(1 0 0 1 -183.7552 -194.0852)">
          <tspan x="0" y="0">FLAT </tspan>
          <tspan x="45.5" y="0">LINE </tspan>
          <tspan x="83.9" y="0">ICONS</tspan>
        </text></g>
      <g id="XMLID_2_"><text id="XMLID_488_" transform="matrix(1 0 0 1 131.1925 -193.9056)">POWER &amp;amp;
          ENERGY</text></g>
    </g>
  </symbol>
  <symbol fill="none" xmlns="http://www.w3.org/2000/svg" viewBox="0 0 51 51" id="ECOGreenEnergy">
    <path
      d="M46.0833 2.16003H4.91667C4.07682 2.16003 3.27136 2.49367 2.67749 3.08753C2.08363 3.68139 1.75 4.48685 1.75 5.3267V36.9934C1.75 37.8332 2.08363 38.6387 2.67749 39.2325C3.27136 39.8264 4.07682 40.16 4.91667 40.16H20.7183C20.4087 43.9505 17.881 44.1128 17.5762 44.1184H16.7917C15.9518 44.1184 15.1463 44.452 14.5525 45.0459C13.9587 45.6397 13.625 46.4452 13.625 47.285V48.0767C13.625 48.4966 13.7918 48.8994 14.0887 49.1963C14.3857 49.4932 14.7884 49.66 15.2083 49.66H35.7917C36.2116 49.66 36.6143 49.4932 36.9113 49.1963C37.2082 48.8994 37.375 48.4966 37.375 48.0767V47.285C37.375 46.4452 37.0413 45.6397 36.4475 45.0459C35.8537 44.452 35.0482 44.1184 34.2083 44.1184H33.4167C33.2955 44.1184 30.6047 44.0684 30.2824 40.16H46.0833C46.9232 40.16 47.7287 39.8264 48.3225 39.2325C48.9163 38.6387 49.25 37.8332 49.25 36.9934V5.3267C49.25 4.48685 48.9163 3.68139 48.3225 3.08753C47.7287 2.49367 46.9232 2.16003 46.0833 2.16003ZM4.91667 3.74337H46.0833C46.5033 3.74337 46.906 3.91018 47.2029 4.20712C47.4998 4.50405 47.6667 4.90678 47.6667 5.3267V33.8267H3.33333V5.3267C3.33333 4.90678 3.50015 4.50405 3.79708 4.20712C4.09402 3.91018 4.49674 3.74337 4.91667 3.74337ZM34.2083 45.7017C34.6283 45.7017 35.031 45.8685 35.3279 46.1655C35.6248 46.4624 35.7917 46.8651 35.7917 47.285V48.0767H15.2083V47.285C15.2083 46.8651 15.3752 46.4624 15.6721 46.1655C15.969 45.8685 16.3717 45.7017 16.7917 45.7017H34.2083ZM30.1534 44.1184H20.8466C21.759 42.9983 22.2691 41.6045 22.2953 40.16H28.7078C28.7332 41.604 29.2422 42.9979 30.1534 44.1184ZM46.0833 38.5767H4.91667C4.49674 38.5767 4.09402 38.4099 3.79708 38.1129C3.50015 37.816 3.33333 37.4133 3.33333 36.9934V35.41H47.6667V36.9934C47.6667 37.4133 47.4998 37.816 47.2029 38.1129C46.906 38.4099 46.5033 38.5767 46.0833 38.5767Z"
      fill="#86BB46"></path>
    <path
      d="M6.50065 32.2432H44.5007C44.9206 32.2432 45.3233 32.0764 45.6203 31.7795C45.9172 31.4825 46.084 31.0798 46.084 30.6599V6.90987C46.084 6.48995 45.9172 6.08722 45.6203 5.79029C45.3233 5.49335 44.9206 5.32654 44.5007 5.32654H6.50065C6.08073 5.32654 5.678 5.49335 5.38107 5.79029C5.08414 6.08722 4.91732 6.48995 4.91732 6.90987V30.6599C4.91732 31.0798 5.08414 31.4825 5.38107 31.7795C5.678 32.0764 6.08073 32.2432 6.50065 32.2432ZM22.9673 27.1765L22.0173 26.464C21.6243 26.1689 21.3053 25.7864 21.0854 25.3467C20.8656 24.907 20.751 24.4223 20.7507 23.9307V12.1705C20.7395 11.8623 20.8412 11.5605 21.0366 11.322C21.2321 11.0834 21.5079 10.9243 21.8123 10.8745C21.9784 10.8558 22.1466 10.873 22.3056 10.9247C22.4645 10.9765 22.6105 11.0616 22.7338 11.1746C22.8571 11.2859 22.9557 11.4218 23.0232 11.5735C23.0907 11.7254 23.1256 11.8896 23.1257 12.0557V15.6182C23.1257 15.8282 23.2091 16.0295 23.3575 16.178C23.506 16.3265 23.7073 16.4099 23.9173 16.4099C24.1273 16.4099 24.3287 16.3265 24.4771 16.178C24.6256 16.0295 24.709 15.8282 24.709 15.6182V13.639C24.7096 13.4726 24.7451 13.3082 24.8133 13.1565C24.8814 13.0046 24.9808 12.8689 25.1048 12.758C25.2273 12.6441 25.3732 12.5584 25.5322 12.5066C25.6912 12.4548 25.8595 12.4382 26.0255 12.4579C26.3293 12.5083 26.6044 12.6677 26.7992 12.9062C26.994 13.1447 27.0953 13.446 27.084 13.7539V16.4099C27.084 16.6199 27.1674 16.8212 27.3158 16.9697C27.4643 17.1181 27.6657 17.2015 27.8757 17.2015C28.0856 17.2015 28.287 17.1181 28.4354 16.9697C28.5839 16.8212 28.6673 16.6199 28.6673 16.4099V15.2224C28.6674 15.0563 28.7023 14.892 28.7698 14.7402C28.8373 14.5885 28.9359 14.4525 29.0592 14.3413C29.1818 14.2275 29.3276 14.1418 29.4866 14.09C29.6455 14.0382 29.8138 14.0215 29.9799 14.0412C30.2844 14.0908 30.5604 14.2498 30.7561 14.4884C30.9517 14.727 31.0535 15.0288 31.0423 15.3372V17.9932C31.0423 18.2032 31.1258 18.4045 31.2742 18.553C31.4227 18.7015 31.624 18.7849 31.834 18.7849C32.0439 18.7849 32.2453 18.7015 32.3938 18.553C32.5423 18.4045 32.6257 18.2032 32.6257 17.9932V16.8057C32.6258 16.6396 32.6606 16.4754 32.7281 16.3235C32.7956 16.1718 32.8943 16.0359 33.0175 15.9246C33.1402 15.811 33.2859 15.7252 33.4449 15.6735C33.6039 15.6216 33.7722 15.605 33.9383 15.6245C34.2428 15.6741 34.5188 15.8331 34.7144 16.0717C34.91 16.3104 35.0118 16.6121 35.0007 16.9205V25.9099C35.0009 26.221 34.9096 26.5253 34.7379 26.7848C34.5663 27.0443 34.322 27.2475 34.0356 27.369C33.6073 27.5605 33.245 27.8742 32.9942 28.2708C32.7433 28.6674 32.6152 29.1291 32.6257 29.5983V30.6599H23.9173V29.0765C23.9167 28.708 23.8305 28.3445 23.6657 28.0149C23.5008 27.6852 23.2618 27.3982 22.9673 27.1765ZM12.8008 19.1728C12.6916 18.6089 12.3873 18.1014 11.9413 17.7395C11.4952 17.3775 10.9359 17.1843 10.3616 17.1936L9.66734 17.2015C9.66734 16.9931 9.70842 16.7868 9.78834 16.5944C9.86825 16.4019 9.98542 16.2271 10.133 16.08C10.2807 15.9329 10.4558 15.8164 10.6486 15.7371C10.8413 15.6579 11.0478 15.6175 11.2562 15.6182L12.6345 15.608C13.9637 15.608 14.5693 16.2255 15.4251 17.6085C15.496 17.7228 15.5948 17.8171 15.7123 17.8826C15.8298 17.9481 15.9619 17.9827 16.0964 17.983L19.1673 17.9932V21.1599L16.1543 21.152C16.0154 21.1521 15.8791 21.1888 15.7588 21.2582C15.6387 21.3277 15.5388 21.4275 15.4694 21.5478C15.2962 21.8489 15.0832 22.1253 14.8361 22.3695L14.6216 22.5889C13.9352 23.2919 13.704 23.5285 12.83 23.5285L11.2507 23.5349C11.0431 23.5353 10.8375 23.4945 10.6458 23.415C10.4541 23.3355 10.28 23.2187 10.1338 23.0715C9.98742 22.9242 9.87184 22.7494 9.7935 22.5572C9.71525 22.365 9.67584 22.1591 9.67759 21.9515L10.459 21.9413C10.8045 21.9415 11.1459 21.8663 11.4594 21.721C11.7728 21.5757 12.0508 21.3637 12.274 21.0999C12.4971 20.836 12.6599 20.5268 12.7513 20.1935C12.8425 19.8603 12.8599 19.5111 12.8023 19.1705L12.8008 19.1728ZM6.50065 6.90987H44.5007V30.6599H34.209V29.5983C34.201 29.4406 34.2386 29.284 34.3174 29.1472C34.3962 29.0105 34.5128 28.8994 34.6531 28.8272C35.2263 28.5849 35.7153 28.1789 36.0588 27.6599C36.4023 27.141 36.5849 26.5322 36.584 25.9099V22.7432H39.7507C40.5905 22.7432 41.3959 22.4095 41.9898 21.8157C42.5837 21.2219 42.9173 20.4164 42.9173 19.5765C42.9173 18.7367 42.5837 17.9312 41.9898 17.3374C41.3959 16.7435 40.5905 16.4099 39.7507 16.4099H36.5373C36.4398 15.8056 36.1494 15.2492 35.7095 14.8236C35.2695 14.3981 34.7038 14.1265 34.0966 14.0491C33.5323 13.992 32.964 14.1088 32.4681 14.384C32.3477 13.9934 32.1415 13.6345 31.8645 13.334C31.5875 13.0334 31.2468 12.7985 30.8672 12.6467C30.4877 12.4949 30.0789 12.43 29.671 12.4565C29.2632 12.4832 28.8663 12.6008 28.5098 12.8007C28.3902 12.412 28.1856 12.055 27.9108 11.7552C27.6361 11.4555 27.298 11.2207 26.9212 11.0679C26.5444 10.9151 26.1383 10.848 25.7324 10.8717C25.3264 10.8954 24.9309 11.0091 24.5744 11.2047C24.3795 10.6006 23.9831 10.0817 23.4515 9.73487C22.9199 9.38804 22.2853 9.23419 21.6539 9.29912C20.9599 9.39054 20.3235 9.73329 19.8652 10.2625C19.4069 10.7916 19.1586 11.4705 19.1673 12.1705V16.4099L16.535 16.4028C15.7157 15.152 14.6793 14.0278 12.6289 14.0278L11.2507 14.0349C10.4108 14.0349 9.60534 14.3685 9.0115 14.9624C8.41762 15.5562 8.08399 16.3617 8.08399 17.2015C8.0845 17.4103 8.1262 17.617 8.2067 17.8096C8.2872 18.0022 8.40491 18.1771 8.5531 18.3242C8.70127 18.4713 8.877 18.5876 9.07025 18.6667C9.2635 18.7458 9.47042 18.786 9.67917 18.7849L10.3735 18.7746C10.5708 18.7675 10.7643 18.8287 10.9217 18.9479C11.0791 19.067 11.1905 19.2368 11.2372 19.4285C11.2576 19.5432 11.2524 19.661 11.222 19.7735C11.1917 19.886 11.1368 19.9904 11.0614 20.0793C10.9855 20.1676 10.8912 20.2384 10.7851 20.2865C10.679 20.3346 10.5636 20.359 10.4471 20.358L9.66734 20.3682C9.24742 20.3682 8.84467 20.535 8.54774 20.832C8.2508 21.1289 8.08399 21.5316 8.08399 21.9515C8.08524 22.792 8.42005 23.5975 9.01484 24.1913C9.60959 24.785 10.4158 25.1185 11.2562 25.1182L12.834 25.108C13.3978 25.1186 13.9561 24.9958 14.4634 24.7495C14.9707 24.5032 15.4125 24.1405 15.7528 23.6909L15.9539 23.4858C16.1874 23.2549 16.3994 23.0031 16.5873 22.7337L19.1673 22.7432V23.9307C19.1681 24.668 19.3402 25.395 19.6698 26.0545C19.9996 26.7139 20.478 27.2877 21.0673 27.7307L22.0173 28.4432C22.1153 28.5172 22.195 28.6129 22.2499 28.7227C22.3048 28.8326 22.3336 28.9537 22.334 29.0765V30.6599H6.50065V6.90987ZM36.584 17.9932H39.7507C40.1706 17.9932 40.5733 18.16 40.8703 18.457C41.1672 18.7539 41.334 19.1566 41.334 19.5765C41.334 19.9965 41.1672 20.3992 40.8703 20.6961C40.5733 20.993 40.1706 21.1599 39.7507 21.1599H36.584V17.9932Z"
      fill="#86BB46"></path>
  </symbol>
  <symbol fill="none" xmlns="http://www.w3.org/2000/svg" viewBox="0 0 16 12" id="Email">
    <path
      d="M14.0338 0.395004C14.4244 0.395004 14.7564 0.531723 15.0298 0.805161C15.3033 1.0786 15.44 1.41063 15.44 1.80125V10.2388C15.44 10.6294 15.3033 10.9614 15.0298 11.2348C14.7564 11.5083 14.4244 11.645 14.0338 11.645H1.84625C1.45563 11.645 1.1236 11.5083 0.850159 11.2348C0.576721 10.9614 0.440002 10.6294 0.440002 10.2388V1.80125C0.440002 1.41063 0.576721 1.0786 0.850159 0.805161C1.1236 0.531723 1.45563 0.395004 1.84625 0.395004H14.0338ZM1.84625 1.3325C1.70953 1.3325 1.59723 1.37645 1.50934 1.46434C1.42145 1.55223 1.3775 1.66454 1.3775 1.80125V3.00243C2.0611 3.58836 3.53571 4.77977 5.80133 6.57664C5.80133 6.57664 5.93805 6.68895 6.21149 6.91356C6.48492 7.13817 6.69 7.2993 6.82672 7.39696C6.96344 7.49461 7.1441 7.60204 7.36871 7.71922C7.59332 7.83641 7.78375 7.895 7.94 7.895C8.07672 7.895 8.22321 7.86571 8.37946 7.80711C8.53571 7.74852 8.69684 7.66063 8.86285 7.54344C9.02887 7.42625 9.17535 7.31883 9.30231 7.22118C9.42926 7.12352 9.58063 7.00145 9.75641 6.85497C9.93219 6.70848 10.0396 6.61571 10.0787 6.57664C12.3443 4.77977 13.8189 3.58836 14.5025 3.00243V1.80125C14.5025 1.66454 14.4586 1.55223 14.3707 1.46434C14.2828 1.37645 14.1705 1.3325 14.0338 1.3325H1.84625ZM14.0338 10.7075C14.1705 10.7075 14.2828 10.6636 14.3707 10.5757C14.4586 10.4878 14.5025 10.3755 14.5025 10.2388V4.23289C13.8189 4.77977 12.5396 5.80516 10.6646 7.30907C10.6255 7.3286 10.4937 7.43602 10.2691 7.63133C10.0445 7.82664 9.86383 7.97313 9.72711 8.07079C9.59039 8.16844 9.41461 8.28563 9.19977 8.42235C8.98492 8.55907 8.77008 8.66161 8.55524 8.72997C8.34039 8.79832 8.13531 8.8325 7.94 8.8325C7.76422 8.8325 7.58356 8.80321 7.39801 8.74461C7.21246 8.68602 7.04645 8.61766 6.89996 8.53954C6.75348 8.46141 6.58746 8.35887 6.40192 8.23192C6.21637 8.10497 6.065 7.99754 5.94781 7.90965C5.83063 7.82176 5.69391 7.70946 5.53766 7.57274C5.38141 7.43602 5.27399 7.34813 5.21539 7.30907C3.34039 5.80516 2.0611 4.77977 1.3775 4.23289V10.2388C1.3775 10.3755 1.42145 10.4878 1.50934 10.5757C1.59723 10.6636 1.70953 10.7075 1.84625 10.7075H14.0338Z"
      fill="#FAAB04"></path>
  </symbol>
  <symbol xmlns="http://www.w3.org/2000/svg" viewBox="0 0 24 24" id="Energy">
    <path
      d="M19,8H14.724l3.144-5.5A1,1,0,0,0,17,1H10a1,1,0,0,0-.895.553l-5,10A1,1,0,0,0,5,13H9.656L7.042,21.713a1,1,0,0,0,1.722.933l11-13A1,1,0,0,0,19,8Zm-8.663,9.689,1.621-5.4A1,1,0,0,0,11,11H6.618l4-8h4.658L12.132,8.5A1,1,0,0,0,13,10h3.844Z">
    </path>
  </symbol>
  <symbol fill="none" xmlns="http://www.w3.org/2000/svg" viewBox="0 0 30 30" id="facebook">
    <path
      d="M20.8389 19.3359L21.5039 15H17.3438V12.1862C17.3438 11 17.9249 9.84375 19.7882 9.84375H21.6797V6.15234C21.6797 6.15234 19.9631 5.85938 18.3219 5.85938C14.8957 5.85938 12.6562 7.93593 12.6562 11.6953V15H8.84766V19.3359H12.6562V29.8177C14.2093 30.0608 15.7907 30.0608 17.3438 29.8177V19.3359H20.8389Z"
      fill="white"></path>
    <path
      d="M30 15C30 6.71573 23.2843 0 15 0C6.71573 0 0 6.71573 0 15C0 22.4869 5.48528 28.6925 12.6562 29.8177V19.3359H8.84766V15H12.6562V11.6953C12.6562 7.93593 14.8957 5.85938 18.3219 5.85938C19.9631 5.85938 21.6797 6.15234 21.6797 6.15234V9.84375H19.7882C17.9249 9.84375 17.3438 11 17.3438 12.1862V15H21.5039L20.8389 19.3359H17.3438V29.8177C24.5147 28.6925 30 22.4869 30 15Z"
      fill="#1877F2"></path>
  </symbol>
  <symbol id="LightBulb" version="1.1" xml:space="preserve" xmlns="http://www.w3.org/2000/svg"
    xmlns:xlink="http://www.w3.org/1999/xlink" viewBox="0 0 66 66">
    <g>
      <path
        d="M48.47,22.45c0-8.09-6.57-14.66-14.65-14.66c-8.08,0-14.66,6.58-14.66,14.66c0,8.08,6.58,14.65,14.66,14.65   C41.9,37.1,48.47,30.53,48.47,22.45z M33.82,36.1c-7.53,0-13.66-6.12-13.66-13.65c0-7.53,6.13-13.66,13.66-13.66   c7.52,0,13.65,6.13,13.65,13.66C47.47,29.97,41.35,36.1,33.82,36.1z">
      </path>
      <path
        d="M39.39,20.31h-5.15l1.81-5.78c0.15-0.47-0.2-0.94-0.69-0.94h-1.08c-0.22,0-0.43,0.1-0.57,0.28l-6.04,7.78   c-0.37,0.47-0.03,1.17,0.57,1.17h5.19l-2.4,7.64c-0.21,0.67,0.65,1.13,1.1,0.59l7.82-9.56C40.33,21.02,40,20.31,39.39,20.31z">
      </path>
      <path
        d="M63.08,32.6l-2.25-0.49c-0.23-0.85-0.57-1.66-1.02-2.41l1.24-1.92c0.13-0.2,0.1-0.46-0.07-0.62l-2.33-2.33   c-0.17-0.17-0.43-0.19-0.62-0.07L56.09,26c-0.36-0.21-0.78-0.39-1.25-0.57c0.12-0.9,0.2-1.81,0.2-2.72c0-6.02-2.57-11.78-7.06-15.8   c-4.54-4.07-10.42-5.94-16.53-5.27C28.07,2,24.93,3.21,22.21,5l-2.27,0.96c-0.78-0.45-1.6-0.79-2.46-1.02l-0.49-2.22   c-0.05-0.23-0.25-0.39-0.49-0.39h-3.3c-0.23,0-0.44,0.16-0.49,0.39l-0.49,2.22c-0.87,0.23-1.69,0.57-2.45,1.01L7.9,4.75   c-0.2-0.13-0.46-0.1-0.62,0.07L4.94,7.15C4.78,7.32,4.75,7.58,4.88,7.78l1.21,1.87c-0.45,0.77-0.8,1.61-1.04,2.5l-2.13,0.47   c-0.23,0.05-0.39,0.25-0.39,0.49v3.3c0,0.24,0.16,0.44,0.39,0.49l2.14,0.46c0.24,0.9,0.59,1.75,1.05,2.53L4.94,21.7   c-0.13,0.2-0.1,0.46,0.07,0.62l2.33,2.33c0.17,0.17,0.43,0.19,0.62,0.07l1.84-1.18c0.8,0.46,1.65,0.81,2.53,1.03l0.47,2.13   c0.04,0.16,0.15,0.28,0.29,0.35c0.76,3.61,2.43,6.99,4.92,9.77c2.09,2.34,3.66,5.13,4.7,8.29c-0.75,0.41-1.27,1.21-1.27,2.12v2.43   h-2.33c-0.28,0-0.5,0.22-0.5,0.5s0.22,0.5,0.5,0.5h2.33v3.41h-2.33c-0.28,0-0.5,0.22-0.5,0.5s0.22,0.5,0.5,0.5h2.33v2.43   c0,1.34,1.09,2.43,2.43,2.43h2.15l1.63,3.29c0.39,0.79,1.18,1.28,2.06,1.28h8.23c0.88,0,1.67-0.49,2.06-1.28l1.63-3.29h2.14   c1.34,0,2.43-1.09,2.43-2.43v-2.43h2.33c0.28,0,0.5-0.22,0.5-0.5s-0.22-0.5-0.5-0.5h-2.33v-3.41h2.33c0.28,0,0.5-0.22,0.5-0.5   s-0.22-0.5-0.5-0.5h-2.33v-2.43c0-0.9-0.5-1.68-1.23-2.1c0.13-0.38,0.26-0.75,0.41-1.12l0.61-0.39c0.8,0.46,1.65,0.8,2.53,1.03   L49,46.77c0.05,0.23,0.25,0.39,0.49,0.39h3.3c0.24,0,0.44-0.16,0.49-0.39l0.47-2.17c0.88-0.24,1.71-0.6,2.48-1.06l1.86,1.19   c0.2,0.13,0.46,0.1,0.62-0.07l2.33-2.33c0.17-0.17,0.19-0.43,0.07-0.62l-1.23-1.91c0.43-0.77,0.76-1.59,0.99-2.44l2.21-0.48   c0.23-0.05,0.39-0.25,0.39-0.49v-3.3C63.48,32.85,63.31,32.65,63.08,32.6z M53.33,30.97c1.35,0.8,2.2,2.26,2.2,3.84   c0,2.47-2.01,4.48-4.48,4.48c-0.94,0-1.86-0.33-2.63-0.89c0.45-0.62,0.92-1.23,1.43-1.81C51.32,34.9,52.47,33,53.33,30.97z    M12.66,23.62c-0.91-0.22-1.78-0.59-2.6-1.09c-0.16-0.1-0.37-0.1-0.53,0l-1.77,1.13L6,21.9l1.11-1.75c0.1-0.16,0.1-0.37,0-0.54   c-0.54-0.85-0.93-1.79-1.17-2.81c-0.04-0.19-0.19-0.33-0.38-0.38L3.52,16v-2.49l2.04-0.45c0.19-0.04,0.33-0.19,0.38-0.37   c0.24-1.01,0.63-1.94,1.16-2.78c0.1-0.16,0.1-0.38,0-0.54l-1.16-1.8L7.7,5.81L9.5,6.96c0.16,0.1,0.37,0.1,0.53,0   c0.83-0.51,1.75-0.9,2.73-1.13c0.19-0.04,0.33-0.19,0.37-0.38l0.47-2.13h2.49l0.47,2.13c0.04,0.19,0.19,0.34,0.37,0.38   c0.94,0.22,1.85,0.59,2.69,1.11c0.01,0.01,0.02,0.01,0.03,0.02c-0.03,0.03-0.07,0.07-0.1,0.1c-0.39,0.36-0.78,0.73-1.14,1.12   c-0.08,0.08-0.15,0.16-0.23,0.25c-0.34,0.38-0.67,0.77-0.99,1.17c-0.04,0.05-0.09,0.1-0.13,0.15c-0.72-0.33-1.46-0.49-2.22-0.49   c-3.02,0-5.48,2.46-5.48,5.49c0,2.26,1.38,4.25,3.47,5.07c-0.02,0.12-0.04,0.24-0.05,0.36c0,0,0,0,0,0.01   c-0.06,0.5-0.09,1.01-0.11,1.51c-0.01,0.14-0.01,0.28-0.02,0.42c-0.01,0.47-0.01,0.95,0.01,1.42   C12.66,23.56,12.66,23.59,12.66,23.62z M13.01,18.8c-1.59-0.72-2.63-2.27-2.63-4.04c0-2.48,2.01-4.49,4.48-4.49   c0.55,0,1.08,0.11,1.61,0.32C14.77,13,13.56,15.79,13.01,18.8z M39.12,62.78c-0.22,0.44-0.66,0.72-1.16,0.72h-8.23   c-0.5,0-0.94-0.28-1.16-0.72l-1.41-2.85h13.37L39.12,62.78z M45.22,57.5c0,0.79-0.64,1.43-1.43,1.43h-2.45H26.35h-2.46   c-0.79,0-1.43-0.64-1.43-1.43V47.23c0-0.65,0.44-1.19,1.03-1.37c0,0,0.01,0,0.01,0c0.15-0.04,0.28-0.06,0.4-0.06h19.89   c0.13,0,0.27,0.02,0.43,0.08c0.01,0,0.01,0,0.02,0c0.57,0.19,0.99,0.72,0.99,1.36V57.5z M23.89,44.8c-0.06,0-0.13,0-0.19,0.01   c-1.09-3.3-2.74-6.21-4.93-8.65c-2.48-2.77-4.09-6.06-4.77-9.6c0-0.02,0.01-0.04,0-0.06c-0.28-1.49-0.39-3-0.34-4.51   c0-0.09,0.01-0.17,0.01-0.26c0.02-0.48,0.06-0.96,0.11-1.43c0.03-0.22,0.07-0.44,0.11-0.66l0.01-0.07c0,0,0,0,0,0   c0.51-3.28,1.81-6.3,3.72-8.87c0,0,0.01,0,0.01-0.01c0.35-0.47,0.72-0.92,1.11-1.36c0,0,0.01-0.01,0.01-0.01   c0.39-0.43,0.79-0.85,1.21-1.25c0,0,0.01-0.01,0.01-0.01c0.85-0.8,1.77-1.53,2.75-2.19c0,0,0,0,0,0c2.6-1.72,5.6-2.88,8.83-3.23   c5.83-0.64,11.43,1.14,15.76,5.02c4.27,3.83,6.73,9.32,6.73,15.06c0,1-0.09,2-0.24,2.98c-0.06,0.38-0.12,0.75-0.2,1.12   c-0.01,0.07-0.03,0.13-0.05,0.2c-0.11,0.53-0.25,1.04-0.4,1.55c-0.09,0.29-0.18,0.58-0.28,0.87c-0.06,0.18-0.13,0.36-0.2,0.54   c-0.83,2.17-2.04,4.19-3.58,5.97c-0.64,0.73-1.22,1.51-1.77,2.31c-0.34,0.49-0.65,0.99-0.96,1.5c-0.14,0.23-0.27,0.47-0.41,0.71   c-0.33,0.6-0.64,1.21-0.93,1.83c-0.05,0.1-0.09,0.21-0.14,0.31c-0.13,0.3-0.27,0.6-0.39,0.9c-0.01,0.04,0,0.07-0.01,0.11   c-0.16,0.4-0.33,0.79-0.47,1.21c-0.08-0.01-0.17-0.01-0.25-0.01H23.89z M62.48,35.98l-2.12,0.46c-0.19,0.04-0.34,0.19-0.38,0.38   c-0.22,0.97-0.6,1.89-1.1,2.73c-0.1,0.16-0.1,0.37,0.01,0.53l1.17,1.83l-1.76,1.76l-1.79-1.14c-0.16-0.11-0.38-0.11-0.54,0   c-0.84,0.54-1.77,0.93-2.76,1.18c-0.19,0.05-0.33,0.19-0.37,0.38l-0.45,2.08H49.9l-0.45-2.04c-0.04-0.19-0.19-0.34-0.38-0.38   c-0.99-0.22-1.93-0.61-2.81-1.14c-0.07-0.04-0.15-0.07-0.23-0.07c0.02-0.05,0.04-0.1,0.07-0.14c0.52-1.09,1.1-2.14,1.76-3.13   c0.94,0.68,2.05,1.05,3.2,1.05c3.02,0,5.48-2.46,5.48-5.48c0-1.99-1.09-3.82-2.81-4.78c0.43-1.16,0.76-2.36,0.98-3.59   c0.43,0.18,0.8,0.37,1.13,0.57c0.16,0.1,0.37,0.1,0.53,0l1.86-1.2L60,27.57l-1.19,1.85c-0.11,0.16-0.11,0.37,0,0.54   c0.52,0.83,0.91,1.73,1.14,2.69c0.04,0.19,0.19,0.33,0.38,0.37l2.16,0.47V35.98z">
      </path>
    </g>
  </symbol>
  <symbol fill="none" xmlns="http://www.w3.org/2000/svg" viewBox="0 0 18 16" id="Map">
    <path
      d="M16.759 5.2075C16.8761 5.2075 16.9835 5.25145 17.0811 5.33934C17.1787 5.42723 17.2275 5.53954 17.2275 5.67625V13.0005C17.2275 13.4302 17.0323 13.7231 16.6419 13.8794L12.1914 15.4321C11.801 15.5493 11.4106 15.5493 11.0202 15.4321L5.98416 13.645L1.00664 15.4907C0.948078 15.5102 0.889519 15.52 0.83096 15.52C0.713842 15.52 0.606484 15.4761 0.508885 15.3882C0.411287 15.3003 0.362488 15.188 0.362488 15.0513V7.72704C0.362488 7.29735 0.557685 7.00438 0.948078 6.84813L5.34001 5.32469C5.14481 4.85594 5.04721 4.45555 5.04721 4.12352C5.04721 3.12743 5.41321 2.27782 6.14519 1.57469C6.87718 0.871567 7.76045 0.520004 8.79499 0.520004C9.82953 0.520004 10.7128 0.871567 11.4448 1.57469C12.1768 2.27782 12.5428 3.12743 12.5428 4.12352C12.5428 4.78758 12.1329 5.73485 11.313 6.96532L11.6058 7.0825L16.5833 5.2368C16.6419 5.21727 16.7005 5.2075 16.759 5.2075ZM5.51568 12.8247V6.26219L1.27015 7.72704L1.29943 14.3774L5.51568 12.8247ZM10.786 2.23387C10.786 2.23387 10.6494 2.10448 10.3761 1.84569C10.1028 1.5869 9.57578 1.4575 8.79499 1.4575C8.0142 1.4575 7.35053 1.71629 6.80398 2.23387C6.25743 2.75145 5.98416 3.38133 5.98416 4.12352C5.98416 4.51414 6.23791 5.12938 6.74542 5.96922C7.25294 6.80907 7.93612 7.72704 8.79499 8.72313C9.36106 8.05907 9.85393 7.4243 10.2736 6.81883C10.6933 6.21336 11.0202 5.67625 11.2545 5.2075C11.4887 4.73875 11.6058 4.37743 11.6058 4.12352C11.6058 3.38133 11.3325 2.75145 10.786 2.23387ZM11.1374 14.4653V7.90282L10.7567 7.78563C10.2687 8.43016 9.73194 9.07469 9.14634 9.71922C9.04875 9.83641 8.92675 9.895 8.78035 9.895C8.63395 9.895 8.52172 9.83641 8.44364 9.71922C7.66285 8.85985 6.99918 8.02977 6.45263 7.22899V12.8247L11.1374 14.4653ZM12.0743 14.4653L16.3198 13.0005L16.2905 6.35008L12.0743 7.90282V14.4653ZM9.29274 3.77196C9.29274 3.77196 9.3269 3.80614 9.39522 3.8745C9.46354 3.94286 9.4977 4.07469 9.4977 4.27C9.4977 4.46532 9.42938 4.63133 9.29274 4.76805C9.1561 4.90477 8.99019 4.97313 8.79499 4.97313C8.59979 4.97313 8.43388 4.90477 8.29724 4.76805C8.1606 4.63133 8.09228 4.46532 8.09228 4.27C8.09228 4.07469 8.1606 3.90868 8.29724 3.77196C8.43388 3.63524 8.59979 3.56688 8.79499 3.56688C8.99019 3.56688 9.1561 3.63524 9.29274 3.77196Z"
      fill="#FAAB04"></path>
  </symbol>
  <symbol fill="none" xmlns="http://www.w3.org/2000/svg" viewBox="0 0 16 16" id="Phone">
    <path
      d="M14.8469 1.22313C14.9836 1.26219 15.1057 1.32567 15.2131 1.41356C15.3205 1.50145 15.4035 1.60399 15.4621 1.72118C15.5207 1.83836 15.55 1.96532 15.55 2.10204C15.55 5.81297 14.2414 8.97704 11.6242 11.5942C9.00702 14.2114 5.84296 15.52 2.13202 15.52C1.93671 15.52 1.75116 15.4516 1.57538 15.3149C1.3996 15.1782 1.29218 15.0122 1.25311 14.8169L0.579285 11.8579C0.540222 11.7602 0.530457 11.6577 0.549988 11.5503C0.569519 11.4429 0.603699 11.3403 0.652527 11.2427C0.701355 11.145 0.764832 11.062 0.842957 10.9936C0.921082 10.9253 1.00897 10.8618 1.10663 10.8032L4.27069 9.45555C4.70038 9.26024 5.06171 9.34813 5.35468 9.71922L6.64374 11.3013C8.73358 10.2661 10.2961 8.7036 11.3312 6.61375L9.74921 5.32469C9.37811 5.03172 9.29022 4.67039 9.48553 4.24071L10.8332 1.07664C10.9308 0.861801 11.0773 0.705551 11.2726 0.607895C11.468 0.510239 11.673 0.490707 11.8879 0.549301L14.8469 1.22313ZM2.16132 14.5825C3.841 14.5825 5.45233 14.2554 6.9953 13.6011C8.53827 12.9468 9.86151 12.063 10.965 10.9497C12.0685 9.83641 12.9523 8.51317 13.6164 6.97997C14.2805 5.44676 14.6125 3.83055 14.6125 2.13133L11.6828 1.4575L10.3351 4.62157L12.4738 6.35008C11.7707 7.87352 10.9601 9.09422 10.0422 10.0122C9.12421 10.9302 7.9035 11.7407 6.38007 12.4438L4.65155 10.3052L1.48749 11.6528L2.16132 14.5825Z"
      fill="#FAAB04"></path>
  </symbol>
  <symbol xmlns="http://www.w3.org/2000/svg" xmlns:xlink="http://www.w3.org/1999/xlink" version="1.1"
    xml:space="preserve" viewBox="0 0 512 512" id="PowerElectricitHand">
    <g
      id="_x32_5_x2C__Electricity_x2C__Save_Energy_x2C__Ecology_and_Environment_x2C__Hand_x2C__Power_x2C__Energy_x2C__Electrical_x2C__Electric_Station">
      <g>
        <path
          d="M504.92,267.165c-12.601-20.406-39.454-26.754-59.807-14.188l-104.777,63.758C338.176,299.491,323.042,286,305.032,286    H172.881c-9.271,0-18.1-2.392-25.531-6.918c-23.34-14.216-51.54-16.885-76.748-7.947V256c0-5.523-4.477-10-10-10h-50    c-5.522,0-10,4.477-10,10v220c0,5.523,4.478,10,10,10h50c5.523,0,10-4.477,10-10v-9.08h189.101c3.042,0,6.018-0.845,8.605-2.444    l222.468-137.448C511.176,314.429,517.522,287.575,504.92,267.165z M50.601,466h-30V266h30V466z M480.265,310.013L258.672,446.92    H70.601V292.749c21.17-10.075,46.109-8.912,66.345,3.414c10.566,6.436,22.992,9.837,35.935,9.837h132.151    c8.421,0,15.404,6.589,15.566,14.689c0.168,8.427-6.582,15.311-14.997,15.311h-75c-5.522,0-10,4.477-10,10s4.478,10,10,10h75    c9,0,17.176-3.384,23.362-8.933l126.602-77.039c11.025-6.806,25.531-3.376,32.338,7.646    C494.712,288.7,491.286,303.207,480.265,310.013z">
        </path>
        <path
          d="M190.601,146h37.192L210.9,213.575c-1.132,4.524,1.016,9.23,5.174,11.342c4.153,2.107,9.218,1.075,12.21-2.515l100-120    C333.706,95.894,329.056,86,320.601,86h-49.229l18.515-46.286C292.513,33.148,287.665,26,280.601,26h-50    c-4.089,0-7.767,2.489-9.285,6.286l-40,100C178.69,138.852,183.538,146,190.601,146z">
        </path>
      </g>
    </g>
    <g id="Layer_1"></g>
  </symbol>
  <symbol xmlns="http://www.w3.org/2000/svg" viewBox="0 0 512 512" id="SavingEnergy">
    <g id="Saving_energy">
      <path
        d="M258.3,146.2686a9.9927,9.9927,0,0,0-11.2451,5.2587l-60,120A10.0009,10.0009,0,0,0,196,286h50v70a10.0008,10.0008,0,0,0,18.9453,4.4727l60-120A10.0009,10.0009,0,0,0,316,226H266V156A9.9971,9.9971,0,0,0,258.3,146.2686Z">
      </path>
      <path
        d="M453.07,218.93a9.9962,9.9962,0,0,0-14.1406,0L424.501,233.3584C413.3975,150.2822,342.0645,86,256,86A169.2233,169.2233,0,0,0,90.4482,217.2158a9.9981,9.9981,0,0,0,19.4727,4.5459A149.3141,149.3141,0,0,1,256,106c82.71,0,150,67.29,150,150a9.9989,9.9989,0,0,0,17.07,7.07l30-30A9.9962,9.9962,0,0,0,453.07,218.93Z">
      </path>
      <path
        d="M414.0908,282.7773a9.9747,9.9747,0,0,0-12.0117,7.461A149.3222,149.3222,0,0,1,256,406c-82.71,0-150-67.29-150-150a9.9991,9.9991,0,0,0-17.07-7.07l-30,30A9.9989,9.9989,0,0,0,73.07,293.07L87.499,278.6416C98.6025,361.7178,169.9355,426,256,426A169.2323,169.2323,0,0,0,421.5518,294.7891,9.9948,9.9948,0,0,0,414.0908,282.7773Z">
      </path>
    </g>
  </symbol>
  <symbol xmlns="http://www.w3.org/2000/svg" viewBox="0 0 32 32" id="Setting">
    <title></title>
    <g id="fix">
      <path
        d="M26.5,32A5.51,5.51,0,0,1,21,26.5c0-.27,0-.57,0-.79L7.74,12.48A6,6,0,0,1,.48,5.12a1,1,0,0,1,.7-.71,1,1,0,0,1,1,.26L4,6.55A1.48,1.48,0,0,0,5.27,7a1.51,1.51,0,0,0,1.11-.73A1.62,1.62,0,0,0,6,4.32L4.26,2.55a1,1,0,0,1-.26-1A1,1,0,0,1,4.71.87,6,6,0,0,1,12,8.29L25,21.22A5.66,5.66,0,0,1,26.5,21a5.5,5.5,0,0,1,0,11ZM8,10.35a1,1,0,0,1,.71.29l13.9,13.9a1,1,0,0,1,.28.59A11.39,11.39,0,0,1,23,26.5,3.5,3.5,0,1,0,26.5,23a3.41,3.41,0,0,0-1.39.3A1,1,0,0,1,24,23.09L10.17,9.27A1,1,0,0,1,10,8.18,4,4,0,0,0,7.36,2.82l.09.08a3.62,3.62,0,0,1,.63,4.39A3.5,3.5,0,0,1,2.61,8l-.2-.21A4,4,0,0,0,4.07,10a4,4,0,0,0,3.6.39A1,1,0,0,1,8,10.35Z">
      </path>
      <path
        d="M27.37,29H25.63a1,1,0,0,1-.87-.5L23.9,27a1,1,0,0,1,0-1l.86-1.5a1,1,0,0,1,.87-.5h1.74a1,1,0,0,1,.87.5L29.1,26a1,1,0,0,1,0,1l-.86,1.5A1,1,0,0,1,27.37,29Zm-1.16-2h.58l.29-.5-.29-.5h-.58l-.29.5Z">
      </path>
      <path
        d="M21.9,15.13a1,1,0,0,1-.71-.29l-3.53-3.53a1,1,0,0,1,0-1.42l8-8a3.47,3.47,0,0,1,2.47-1h0a3.45,3.45,0,0,1,2.48,1,3.41,3.41,0,0,1,1,2.46,3.52,3.52,0,0,1-1,2.48l-8,8A1,1,0,0,1,21.9,15.13ZM19.78,10.6l2.12,2.12,7.25-7.26a1.49,1.49,0,0,0-1.06-2.55h0A1.47,1.47,0,0,0,27,3.34Z">
      </path>
      <path
        d="M12.65,23.35a1,1,0,0,1-.71-.29L9.28,20.39a1,1,0,0,1,0-1.42l3.18-3.18a1,1,0,0,1,1.42,0l2.67,2.66a1,1,0,0,1,.29.71,1.06,1.06,0,0,1-.29.72l-3.19,3.18A1,1,0,0,1,12.65,23.35ZM11.4,19.68l1.25,1.26,1.78-1.77-1.26-1.26Z">
      </path>
      <path
        d="M18.66,17.34h0a1,1,0,0,1-.71-.29l-2.66-2.67a1,1,0,0,1,0-1.42l2.18-2.18a1,1,0,0,1,1.42,0l2.67,2.66a1,1,0,0,1,.29.71,1.05,1.05,0,0,1-.29.71l-2.19,2.19A1,1,0,0,1,18.66,17.34Zm-1.25-3.67,1.25,1.25.77-.77L18.18,12.9Z">
      </path>
      <path
        d="M3,32a1,1,0,0,1-.71-.29l-2-2a1,1,0,0,1-.12-1.26l4-5.95a.87.87,0,0,1,.34-.32L9,19.65a1,1,0,0,1,1.2.16l2,2a1,1,0,0,1,.16,1.2L9.81,27.55a.87.87,0,0,1-.32.34L3.54,31.84A.94.94,0,0,1,3,32Zm-.71-3.13.84.84,5.07-3.36,2.05-3.67-.93-.93-3.67,2Z">
      </path>
    </g>
  </symbol>
  <symbol xmlns="http://www.w3.org/2000/svg" viewBox="0 0 1920 1920" id="SolarPanel">
    <path
      d="M645.8 721.7L545.2 837.8l-105.7 122-105.7 122L217 1216.6h1224.2l71.3-134.8 64.6-122 64.5-122 61.2-115.6.3-.5z"
      id="Layer_2"></path>
    <path d="M1702.8 722.2l-261.2 494.4H217v81h1224.6l261.5-495v-80.9z" id="Layer_4"></path>
    <path d="M870.5 1297.6h167v318.5h-167z" id="Layer_5"></path>
    <g id="STROKES">
      <path d="M1703.1 721.7H645.8l-428.9 494.9h1224.3z"></path>
      <path d="M590.9 1216.6l104.3-134.8 94.3-122 94.4-122 89.8-116.1"></path>
      <path d="M1314.6 721.7l-79.4 116.1-83.5 122-83.4 122-92.1 134.8"></path>
      <path d="M545.2 837.8h1096.4"></path>
      <path d="M439.5 959.8h1137.6"></path>
      <path d="M333.8 1081.8h1178.7"></path>
      <path d="M216.9 1216.6h1224.7v80.9H216.9z"></path>
      <path d="M1703.1 721.7l-261.5 494.9v81l261.5-495z"></path>
      <path d="M967.2 1616v-318.4h70.3V1616"></path>
      <path d="M870.5 1616v-318.4h96.7V1616"></path>
    </g>
  </symbol>
  <symbol id="SunSolarEnergy" xmlns="http://www.w3.org/2000/svg" viewBox="0 0 96 96">
    <path
      d="M48,78.74A30.74,30.74,0,1,1,78.74,48,30.77,30.77,0,0,1,48,78.74Zm0-59.48A28.74,28.74,0,1,0,76.74,48,28.77,28.77,0,0,0,48,19.26Z">
    </path>
    <path
      d="M40.31,66.79a1,1,0,0,1-.59-.19,1,1,0,0,1-.31-1.26L46.52,51h-9.6a1,1,0,0,1-.7-1.71L54.3,31.45a1,1,0,0,1,1.28-.11,1,1,0,0,1,.34,1.24l-5.8,12.64H60.19a1,1,0,0,1,.7,1.72L41,66.5A1,1,0,0,1,40.31,66.79ZM39.36,49h8.77a1,1,0,0,1,.9,1.45L43.85,60.9l13.9-13.68H48.56a1,1,0,0,1-.85-.46,1,1,0,0,1-.06-.95l4.17-9.09Z">
    </path>
    <path d="M48.56,15.24a1,1,0,0,1-1-1V3a1,1,0,0,1,2,0V14.24A1,1,0,0,1,48.56,15.24Z"></path>
    <path d="M31.6,19.48a1,1,0,0,1-.86-.5L25.12,9.25a1,1,0,0,1,.36-1.37,1,1,0,0,1,1.37.37L32.47,18a1,1,0,0,1-.87,1.5Z">
    </path>
    <path d="M19,31.64a1,1,0,0,1-.5-.14L8.81,25.88a1,1,0,0,1-.37-1.36,1,1,0,0,1,1.37-.37l9.73,5.62a1,1,0,0,1-.5,1.87Z">
    </path>
    <path d="M14.24,48.44H3a1,1,0,0,1,0-2H14.24a1,1,0,1,1,0,2Z"></path>
    <path d="M8.75,71a1,1,0,0,1-.5-1.87L18,63.53a1,1,0,0,1,1.37.37A1,1,0,0,1,19,65.26L9.25,70.88A1,1,0,0,1,8.75,71Z">
    </path>
    <path
      d="M25,87.69a1,1,0,0,1-.5-.13,1,1,0,0,1-.37-1.37l5.62-9.73a1,1,0,0,1,1.37-.37,1,1,0,0,1,.36,1.37l-5.62,9.73A1,1,0,0,1,25,87.69Z">
    </path>
    <path d="M47.44,94a1,1,0,0,1-1-1V81.76a1,1,0,1,1,2,0V93A1,1,0,0,1,47.44,94Z"></path>
    <path
      d="M70,88.25a1,1,0,0,1-.87-.5L63.53,78a1,1,0,0,1,.37-1.37,1,1,0,0,1,1.36.37l5.62,9.73a1,1,0,0,1-.36,1.37A1,1,0,0,1,70,88.25Z">
    </path>
    <path
      d="M86.69,72a1,1,0,0,1-.5-.13l-9.73-5.62a1,1,0,0,1-.37-1.37,1,1,0,0,1,1.37-.36l9.73,5.62a1,1,0,0,1,.37,1.36A1,1,0,0,1,86.69,72Z">
    </path>
    <path d="M93,49.56H81.76a1,1,0,1,1,0-2H93a1,1,0,0,1,0,2Z"></path>
    <path d="M77.52,32.6a1,1,0,0,1-.87-.5A1,1,0,0,1,77,30.74l9.73-5.62a1,1,0,1,1,1,1.73L78,32.47A1,1,0,0,1,77.52,32.6Z">
    </path>
    <path d="M65.36,20a1,1,0,0,1-.5-.13,1,1,0,0,1-.36-1.37l5.62-9.73a1,1,0,1,1,1.73,1l-5.62,9.73A1,1,0,0,1,65.36,20Z">
    </path>
  </symbol>
  <symbol fill="none" xmlns="http://www.w3.org/2000/svg" viewBox="0 0 30 22" id="USA">
    <mask id="mask0_10_22" maskUnits="userSpaceOnUse" x="0" y="0">
      <path
        d="M27.8571 0.285706H2.14286C0.95939 0.285706 0 1.2451 0 2.42856V19.5714C0 20.7549 0.95939 21.7143 2.14286 21.7143H27.8571C29.0406 21.7143 30 20.7549 30 19.5714V2.42856C30 1.2451 29.0406 0.285706 27.8571 0.285706Z"
        fill="white"></path>
    </mask>
    <g mask="url(#mask0_10_22)">
      <path
        d="M27.8571 0.285706H2.14286C0.95939 0.285706 0 1.2451 0 2.42856V19.5714C0 20.7549 0.95939 21.7143 2.14286 21.7143H27.8571C29.0406 21.7143 30 20.7549 30 19.5714V2.42856C30 1.2451 29.0406 0.285706 27.8571 0.285706Z"
        fill="white"></path>
      <mask id="mask1_10_22" maskUnits="userSpaceOnUse" x="0" y="0" width="30" height="22">
        <path
          d="M27.8571 0.285706H2.14286C0.95939 0.285706 0 1.2451 0 2.42856V19.5714C0 20.7549 0.95939 21.7143 2.14286 21.7143H27.8571C29.0406 21.7143 30 20.7549 30 19.5714V2.42856C30 1.2451 29.0406 0.285706 27.8571 0.285706Z"
          fill="white"></path>
      </mask>
      <g mask="url(#mask1_10_22)">
        <path fill-rule="evenodd" clip-rule="evenodd"
          d="M30 0.285706H0V1.71427H30V0.285706ZM30 3.14285H0V4.57142H30V3.14285ZM0 5.99999H30V7.42857H0V5.99999ZM30 8.85713H0V10.2857H30V8.85713ZM0 11.7143H30V13.1428H0V11.7143ZM30 14.5714H0V16H30V14.5714ZM0 17.4286H30V18.8571H0V17.4286ZM30 20.2857H0V21.7143H30V20.2857Z"
          fill="#D02F44"></path>
        <path d="M12.8571 0.285706H0V10.2857H12.8571V0.285706Z" fill="#46467F"></path>
        <g filter="url(#filter0_d_10_22)">
          <path fill-rule="evenodd" clip-rule="evenodd"
            d="M2.85711 2.42854C2.85711 2.82303 2.53731 3.14283 2.14282 3.14283C1.74833 3.14283 1.42853 2.82303 1.42853 2.42854C1.42853 2.03406 1.74833 1.71426 2.14282 1.71426C2.53731 1.71426 2.85711 2.03406 2.85711 2.42854ZM5.71424 2.42854C5.71424 2.82303 5.39445 3.14283 4.99996 3.14283C4.60547 3.14283 4.28567 2.82303 4.28567 2.42854C4.28567 2.03406 4.60547 1.71426 4.99996 1.71426C5.39445 1.71426 5.71424 2.03406 5.71424 2.42854ZM7.8571 3.14283C8.25159 3.14283 8.57139 2.82303 8.57139 2.42854C8.57139 2.03406 8.25159 1.71426 7.8571 1.71426C7.46261 1.71426 7.14282 2.03406 7.14282 2.42854C7.14282 2.82303 7.46261 3.14283 7.8571 3.14283ZM11.4285 2.42854C11.4285 2.82303 11.1088 3.14283 10.7142 3.14283C10.3198 3.14283 9.99996 2.82303 9.99996 2.42854C9.99996 2.03406 10.3198 1.71426 10.7142 1.71426C11.1088 1.71426 11.4285 2.03406 11.4285 2.42854ZM3.57138 4.5714C3.96587 4.5714 4.28567 4.25161 4.28567 3.85712C4.28567 3.46263 3.96587 3.14283 3.57138 3.14283C3.1769 3.14283 2.85711 3.46263 2.85711 3.85712C2.85711 4.25161 3.1769 4.5714 3.57138 4.5714ZM7.14282 3.85712C7.14282 4.25161 6.82302 4.5714 6.42853 4.5714C6.03404 4.5714 5.71424 4.25161 5.71424 3.85712C5.71424 3.46263 6.03404 3.14283 6.42853 3.14283C6.82302 3.14283 7.14282 3.46263 7.14282 3.85712ZM9.28568 4.5714C9.68017 4.5714 9.99996 4.25161 9.99996 3.85712C9.99996 3.46263 9.68017 3.14283 9.28568 3.14283C8.89119 3.14283 8.57139 3.46263 8.57139 3.85712C8.57139 4.25161 8.89119 4.5714 9.28568 4.5714ZM11.4285 5.28569C11.4285 5.68018 11.1088 5.99998 10.7142 5.99998C10.3198 5.99998 9.99996 5.68018 9.99996 5.28569C9.99996 4.8912 10.3198 4.5714 10.7142 4.5714C11.1088 4.5714 11.4285 4.8912 11.4285 5.28569ZM7.8571 5.99998C8.25159 5.99998 8.57139 5.68018 8.57139 5.28569C8.57139 4.8912 8.25159 4.5714 7.8571 4.5714C7.46261 4.5714 7.14282 4.8912 7.14282 5.28569C7.14282 5.68018 7.46261 5.99998 7.8571 5.99998ZM5.71424 5.28569C5.71424 5.68018 5.39445 5.99998 4.99996 5.99998C4.60547 5.99998 4.28567 5.68018 4.28567 5.28569C4.28567 4.8912 4.60547 4.5714 4.99996 4.5714C5.39445 4.5714 5.71424 4.8912 5.71424 5.28569ZM2.14282 5.99998C2.53731 5.99998 2.85711 5.68018 2.85711 5.28569C2.85711 4.8912 2.53731 4.5714 2.14282 4.5714C1.74833 4.5714 1.42853 4.8912 1.42853 5.28569C1.42853 5.68018 1.74833 5.99998 2.14282 5.99998ZM4.28567 6.71426C4.28567 7.10876 3.96587 7.42855 3.57138 7.42855C3.1769 7.42855 2.85711 7.10876 2.85711 6.71426C2.85711 6.31977 3.1769 5.99998 3.57138 5.99998C3.96587 5.99998 4.28567 6.31977 4.28567 6.71426ZM6.42853 7.42855C6.82302 7.42855 7.14282 7.10876 7.14282 6.71426C7.14282 6.31977 6.82302 5.99998 6.42853 5.99998C6.03404 5.99998 5.71424 6.31977 5.71424 6.71426C5.71424 7.10876 6.03404 7.42855 6.42853 7.42855ZM9.99996 6.71426C9.99996 7.10876 9.68017 7.42855 9.28568 7.42855C8.89119 7.42855 8.57139 7.10876 8.57139 6.71426C8.57139 6.31977 8.89119 5.99998 9.28568 5.99998C9.68017 5.99998 9.99996 6.31977 9.99996 6.71426ZM10.7142 8.85712C11.1088 8.85712 11.4285 8.53732 11.4285 8.14284C11.4285 7.74835 11.1088 7.42855 10.7142 7.42855C10.3198 7.42855 9.99996 7.74835 9.99996 8.14284C9.99996 8.53732 10.3198 8.85712 10.7142 8.85712ZM8.57139 8.14284C8.57139 8.53732 8.25159 8.85712 7.8571 8.85712C7.46261 8.85712 7.14282 8.53732 7.14282 8.14284C7.14282 7.74835 7.46261 7.42855 7.8571 7.42855C8.25159 7.42855 8.57139 7.74835 8.57139 8.14284ZM4.99996 8.85712C5.39445 8.85712 5.71424 8.53732 5.71424 8.14284C5.71424 7.74835 5.39445 7.42855 4.99996 7.42855C4.60547 7.42855 4.28567 7.74835 4.28567 8.14284C4.28567 8.53732 4.60547 8.85712 4.99996 8.85712ZM2.85711 8.14284C2.85711 8.53732 2.53731 8.85712 2.14282 8.85712C1.74833 8.85712 1.42853 8.53732 1.42853 8.14284C1.42853 7.74835 1.74833 7.42855 2.14282 7.42855C2.53731 7.42855 2.85711 7.74835 2.85711 8.14284Z"
            fill="url(#paint0_linear_10_22)"></path>
        </g>
      </g>
    </g>
    <defs>
      <filter id="filter0_d_10_22" x="1.42853" y="1.71426" width="9.99994" height="9.28571" filterUnits="userSpaceOnUse"
        color-interpolation-filters="sRGB">
        <feFlood flood-opacity="0" result="BackgroundImageFix"></feFlood>
        <feColorMatrix in="SourceAlpha" type="matrix" values="0 0 0 0 0 0 0 0 0 0 0 0 0 0 0 0 0 0 127 0"
          result="hardAlpha"></feColorMatrix>
        <feOffset dy="2.14286"></feOffset>
        <feColorMatrix type="matrix" values="0 0 0 0 0 0 0 0 0 0 0 0 0 0 0 0 0 0 0.06 0"></feColorMatrix>
        <feBlend mode="normal" in2="BackgroundImageFix" result="effect1_dropShadow_10_22"></feBlend>
        <feBlend mode="normal" in="SourceGraphic" in2="effect1_dropShadow_10_22" result="shape"></feBlend>
      </filter>
      <linearGradient id="paint0_linear_10_22" x1="1.42853" y1="1.71426" x2="1.42853" y2="8.85711"
        gradientUnits="userSpaceOnUse">
        <stop stop-color="white"></stop>
        <stop offset="1" stop-color="#F0F0F0"></stop>
      </linearGradient>
    </defs>
  </symbol>

  <symbol id="Play" xmlns="http://www.w3.org/2000/svg" viewBox="0 0 512 512">
    <defs>
      <style>
        .fa-secondary {
          opacity: .4
        }
      </style>
    </defs>
    <path class="fa-primary"
      d="M176 480C148.6 480 128 457.6 128 432v-352c0-25.38 20.4-47.98 48.01-47.98c8.686 0 17.35 2.352 25.02 7.031l288 176C503.3 223.8 512 239.3 512 256s-8.703 32.23-22.97 40.95l-288 176C193.4 477.6 184.7 480 176 480z" />
  </symbol>

  <symbol id="Pause" xmlns="http://www.w3.org/2000/svg" class="bi bi-pause-fill" viewBox="0 0 16 16">
    <path
      d="M5.5 3.5A1.5 1.5 0 0 1 7 5v6a1.5 1.5 0 0 1-3 0V5a1.5 1.5 0 0 1 1.5-1.5zm5 0A1.5 1.5 0 0 1 12 5v6a1.5 1.5 0 0 1-3 0V5a1.5 1.5 0 0 1 1.5-1.5z" />
  </symbol>

  <symbol id="Point" viewBox="0 0 16 17" xmlns="http://www.w3.org/2000/svg">
    <path
      d="M7.312 15.2221C3.632 15.2221 0.639999 12.2301 0.639999 8.55005C0.639999 4.87005 3.632 1.87805 7.312 1.87805C9.072 1.87805 10.736 2.56605 11.984 3.79805C12.016 3.83005 12.016 3.87805 11.984 3.91005C11.952 3.94205 11.904 3.94205 11.872 3.91005C10.64 2.71005 9.024 2.03805 7.312 2.03805C3.712 2.03805 0.799999 4.96605 0.799999 8.55005C0.799999 12.1341 3.712 15.0621 7.312 15.0621C10.896 15.0621 13.824 12.1501 13.824 8.55005C13.824 7.51005 13.568 6.47005 13.088 5.54205C13.072 5.51005 13.088 5.46205 13.12 5.43005C13.152 5.41405 13.2 5.43005 13.232 5.46205C13.728 6.40605 13.984 7.47805 13.984 8.53405C13.968 12.2301 10.976 15.2221 7.312 15.2221Z"
      fill="#161616" />
    <path
      d="M7.312 15.382C3.536 15.382 0.479996 12.31 0.479996 8.55002C0.479996 4.79002 3.536 1.71802 7.312 1.71802C9.12 1.71802 10.816 2.42202 12.096 3.68602C12.192 3.78202 12.192 3.92602 12.096 4.02202C12.048 4.07002 11.984 4.08602 11.92 4.08602C11.856 4.08602 11.792 4.07002 11.744 4.02202C10.56 2.85402 8.976 2.19802 7.312 2.19802C3.808 2.19802 0.959996 5.04602 0.959996 8.55002C0.959996 12.054 3.808 14.902 7.312 14.902C10.816 14.902 13.664 12.054 13.664 8.55002C13.664 7.52602 13.424 6.51802 12.944 5.62202C12.88 5.51002 12.928 5.36602 13.04 5.30202C13.152 5.23802 13.296 5.28602 13.36 5.39802C13.856 6.35802 14.128 7.46202 14.128 8.55002C14.128 12.31 11.072 15.382 7.312 15.382Z"
      fill="#161616" />
    <path
      d="M14.976 2.67799C14.736 2.82199 14.192 3.12599 13.952 3.26999C13.552 3.49399 12.976 3.87799 12.592 4.10199C12.288 4.30999 11.744 4.67799 11.44 4.88599C11.088 5.14199 10.656 5.44599 10.32 5.71799C8.816 6.90199 7.36 8.19799 6.128 9.66999C5.488 8.90199 4.784 8.19799 3.968 7.63799C3.6 7.38199 3.184 7.81399 3.424 8.21399C4.064 9.23799 4.304 9.79799 4.768 11.03C4.896 11.382 5.056 11.846 5.344 12.134C5.472 12.262 5.648 12.374 5.792 12.438C6.464 12.678 6.96 12.39 7.28 11.814C7.424 11.558 7.568 11.27 7.728 11.014C7.92 10.71 8.144 10.358 8.336 10.07C9.2 8.82199 10.208 7.63799 11.264 6.53399C11.52 6.27799 11.84 5.95799 12.08 5.71799C12.352 5.47799 12.816 5.02999 13.072 4.78999C13.264 4.61399 13.76 4.19799 13.952 4.02199C14.304 3.73399 14.816 3.33399 15.184 3.02999C15.392 2.85399 15.184 2.56599 14.976 2.67799Z" />
  </symbol>

  <symbol id="SmallArrow" viewBox="0 0 19 34" xmlns="http://www.w3.org/2000/svg">
    <path
      d="M1.27673 32.7322C2.253 33.7085 3.83601 33.7085 4.81226 32.7322L17.0308 20.5015C18.9818 18.5487 18.981 15.3842 17.0293 13.4322L4.80325 1.20635C3.827 0.230046 2.24401 0.230046 1.26771 1.20635C0.29138 2.18267 0.29138 3.76557 1.26771 4.7419L11.7318 15.206C12.7083 16.1822 12.7083 17.7652 11.7318 18.7415L1.27673 29.1967C0.300404 30.173 0.300404 31.7557 1.27673 32.7322Z" />
  </symbol>


</svg>