<svg id="expnaded" xmlns="http://www.w3.org/2000/svg" viewBox="0 0 96 96"><path d="M48,78.74A30.74,30.74,0,1,1,78.74,48,30.77,30.77,0,0,1,48,78.74Zm0-59.48A28.74,28.74,0,1,0,76.74,48,28.77,28.77,0,0,0,48,19.26Z"/><path d="M40.31,66.79a1,1,0,0,1-.59-.19,1,1,0,0,1-.31-1.26L46.52,51h-9.6a1,1,0,0,1-.7-1.71L54.3,31.45a1,1,0,0,1,1.28-.11,1,1,0,0,1,.34,1.24l-5.8,12.64H60.19a1,1,0,0,1,.7,1.72L41,66.5A1,1,0,0,1,40.31,66.79ZM39.36,49h8.77a1,1,0,0,1,.9,1.45L43.85,60.9l13.9-13.68H48.56a1,1,0,0,1-.85-.46,1,1,0,0,1-.06-.95l4.17-9.09Z"/><path d="M48.56,15.24a1,1,0,0,1-1-1V3a1,1,0,0,1,2,0V14.24A1,1,0,0,1,48.56,15.24Z"/><path d="M31.6,19.48a1,1,0,0,1-.86-.5L25.12,9.25a1,1,0,0,1,.36-1.37,1,1,0,0,1,1.37.37L32.47,18a1,1,0,0,1-.87,1.5Z"/><path d="M19,31.64a1,1,0,0,1-.5-.14L8.81,25.88a1,1,0,0,1-.37-1.36,1,1,0,0,1,1.37-.37l9.73,5.62a1,1,0,0,1-.5,1.87Z"/><path d="M14.24,48.44H3a1,1,0,0,1,0-2H14.24a1,1,0,1,1,0,2Z"/><path d="M8.75,71a1,1,0,0,1-.5-1.87L18,63.53a1,1,0,0,1,1.37.37A1,1,0,0,1,19,65.26L9.25,70.88A1,1,0,0,1,8.75,71Z"/><path d="M25,87.69a1,1,0,0,1-.5-.13,1,1,0,0,1-.37-1.37l5.62-9.73a1,1,0,0,1,1.37-.37,1,1,0,0,1,.36,1.37l-5.62,9.73A1,1,0,0,1,25,87.69Z"/><path d="M47.44,94a1,1,0,0,1-1-1V81.76a1,1,0,1,1,2,0V93A1,1,0,0,1,47.44,94Z"/><path d="M70,88.25a1,1,0,0,1-.87-.5L63.53,78a1,1,0,0,1,.37-1.37,1,1,0,0,1,1.36.37l5.62,9.73a1,1,0,0,1-.36,1.37A1,1,0,0,1,70,88.25Z"/><path d="M86.69,72a1,1,0,0,1-.5-.13l-9.73-5.62a1,1,0,0,1-.37-1.37,1,1,0,0,1,1.37-.36l9.73,5.62a1,1,0,0,1,.37,1.36A1,1,0,0,1,86.69,72Z"/><path d="M93,49.56H81.76a1,1,0,1,1,0-2H93a1,1,0,0,1,0,2Z"/><path d="M77.52,32.6a1,1,0,0,1-.87-.5A1,1,0,0,1,77,30.74l9.73-5.62a1,1,0,1,1,1,1.73L78,32.47A1,1,0,0,1,77.52,32.6Z"/><path d="M65.36,20a1,1,0,0,1-.5-.13,1,1,0,0,1-.36-1.37l5.62-9.73a1,1,0,1,1,1.73,1l-5.62,9.73A1,1,0,0,1,65.36,20Z"/></svg>