<svg width="30" height="22" viewBox="0 0 30 22" fill="none" xmlns="http://www.w3.org/2000/svg">
<mask id="mask0_10_22" style="mask-type:luminance" maskUnits="userSpaceOnUse" x="0" y="0" width="30" height="22">
<path d="M27.8571 0.285706H2.14286C0.95939 0.285706 0 1.2451 0 2.42856V19.5714C0 20.7549 0.95939 21.7143 2.14286 21.7143H27.8571C29.0406 21.7143 30 20.7549 30 19.5714V2.42856C30 1.2451 29.0406 0.285706 27.8571 0.285706Z" fill="white"/>
</mask>
<g mask="url(#mask0_10_22)">
<path d="M27.8571 0.285706H2.14286C0.95939 0.285706 0 1.2451 0 2.42856V19.5714C0 20.7549 0.95939 21.7143 2.14286 21.7143H27.8571C29.0406 21.7143 30 20.7549 30 19.5714V2.42856C30 1.2451 29.0406 0.285706 27.8571 0.285706Z" fill="white"/>
<mask id="mask1_10_22" style="mask-type:alpha" maskUnits="userSpaceOnUse" x="0" y="0" width="30" height="22">
<path d="M27.8571 0.285706H2.14286C0.95939 0.285706 0 1.2451 0 2.42856V19.5714C0 20.7549 0.95939 21.7143 2.14286 21.7143H27.8571C29.0406 21.7143 30 20.7549 30 19.5714V2.42856C30 1.2451 29.0406 0.285706 27.8571 0.285706Z" fill="white"/>
</mask>
<g mask="url(#mask1_10_22)">
<path fill-rule="evenodd" clip-rule="evenodd" d="M30 0.285706H0V1.71427H30V0.285706ZM30 3.14285H0V4.57142H30V3.14285ZM0 5.99999H30V7.42857H0V5.99999ZM30 8.85713H0V10.2857H30V8.85713ZM0 11.7143H30V13.1428H0V11.7143ZM30 14.5714H0V16H30V14.5714ZM0 17.4286H30V18.8571H0V17.4286ZM30 20.2857H0V21.7143H30V20.2857Z" fill="#D02F44"/>
<path d="M12.8571 0.285706H0V10.2857H12.8571V0.285706Z" fill="#46467F"/>
<g filter="url(#filter0_d_10_22)">
<path fill-rule="evenodd" clip-rule="evenodd" d="M2.85711 2.42854C2.85711 2.82303 2.53731 3.14283 2.14282 3.14283C1.74833 3.14283 1.42853 2.82303 1.42853 2.42854C1.42853 2.03406 1.74833 1.71426 2.14282 1.71426C2.53731 1.71426 2.85711 2.03406 2.85711 2.42854ZM5.71424 2.42854C5.71424 2.82303 5.39445 3.14283 4.99996 3.14283C4.60547 3.14283 4.28567 2.82303 4.28567 2.42854C4.28567 2.03406 4.60547 1.71426 4.99996 1.71426C5.39445 1.71426 5.71424 2.03406 5.71424 2.42854ZM7.8571 3.14283C8.25159 3.14283 8.57139 2.82303 8.57139 2.42854C8.57139 2.03406 8.25159 1.71426 7.8571 1.71426C7.46261 1.71426 7.14282 2.03406 7.14282 2.42854C7.14282 2.82303 7.46261 3.14283 7.8571 3.14283ZM11.4285 2.42854C11.4285 2.82303 11.1088 3.14283 10.7142 3.14283C10.3198 3.14283 9.99996 2.82303 9.99996 2.42854C9.99996 2.03406 10.3198 1.71426 10.7142 1.71426C11.1088 1.71426 11.4285 2.03406 11.4285 2.42854ZM3.57138 4.5714C3.96587 4.5714 4.28567 4.25161 4.28567 3.85712C4.28567 3.46263 3.96587 3.14283 3.57138 3.14283C3.1769 3.14283 2.85711 3.46263 2.85711 3.85712C2.85711 4.25161 3.1769 4.5714 3.57138 4.5714ZM7.14282 3.85712C7.14282 4.25161 6.82302 4.5714 6.42853 4.5714C6.03404 4.5714 5.71424 4.25161 5.71424 3.85712C5.71424 3.46263 6.03404 3.14283 6.42853 3.14283C6.82302 3.14283 7.14282 3.46263 7.14282 3.85712ZM9.28568 4.5714C9.68017 4.5714 9.99996 4.25161 9.99996 3.85712C9.99996 3.46263 9.68017 3.14283 9.28568 3.14283C8.89119 3.14283 8.57139 3.46263 8.57139 3.85712C8.57139 4.25161 8.89119 4.5714 9.28568 4.5714ZM11.4285 5.28569C11.4285 5.68018 11.1088 5.99998 10.7142 5.99998C10.3198 5.99998 9.99996 5.68018 9.99996 5.28569C9.99996 4.8912 10.3198 4.5714 10.7142 4.5714C11.1088 4.5714 11.4285 4.8912 11.4285 5.28569ZM7.8571 5.99998C8.25159 5.99998 8.57139 5.68018 8.57139 5.28569C8.57139 4.8912 8.25159 4.5714 7.8571 4.5714C7.46261 4.5714 7.14282 4.8912 7.14282 5.28569C7.14282 5.68018 7.46261 5.99998 7.8571 5.99998ZM5.71424 5.28569C5.71424 5.68018 5.39445 5.99998 4.99996 5.99998C4.60547 5.99998 4.28567 5.68018 4.28567 5.28569C4.28567 4.8912 4.60547 4.5714 4.99996 4.5714C5.39445 4.5714 5.71424 4.8912 5.71424 5.28569ZM2.14282 5.99998C2.53731 5.99998 2.85711 5.68018 2.85711 5.28569C2.85711 4.8912 2.53731 4.5714 2.14282 4.5714C1.74833 4.5714 1.42853 4.8912 1.42853 5.28569C1.42853 5.68018 1.74833 5.99998 2.14282 5.99998ZM4.28567 6.71426C4.28567 7.10876 3.96587 7.42855 3.57138 7.42855C3.1769 7.42855 2.85711 7.10876 2.85711 6.71426C2.85711 6.31977 3.1769 5.99998 3.57138 5.99998C3.96587 5.99998 4.28567 6.31977 4.28567 6.71426ZM6.42853 7.42855C6.82302 7.42855 7.14282 7.10876 7.14282 6.71426C7.14282 6.31977 6.82302 5.99998 6.42853 5.99998C6.03404 5.99998 5.71424 6.31977 5.71424 6.71426C5.71424 7.10876 6.03404 7.42855 6.42853 7.42855ZM9.99996 6.71426C9.99996 7.10876 9.68017 7.42855 9.28568 7.42855C8.89119 7.42855 8.57139 7.10876 8.57139 6.71426C8.57139 6.31977 8.89119 5.99998 9.28568 5.99998C9.68017 5.99998 9.99996 6.31977 9.99996 6.71426ZM10.7142 8.85712C11.1088 8.85712 11.4285 8.53732 11.4285 8.14284C11.4285 7.74835 11.1088 7.42855 10.7142 7.42855C10.3198 7.42855 9.99996 7.74835 9.99996 8.14284C9.99996 8.53732 10.3198 8.85712 10.7142 8.85712ZM8.57139 8.14284C8.57139 8.53732 8.25159 8.85712 7.8571 8.85712C7.46261 8.85712 7.14282 8.53732 7.14282 8.14284C7.14282 7.74835 7.46261 7.42855 7.8571 7.42855C8.25159 7.42855 8.57139 7.74835 8.57139 8.14284ZM4.99996 8.85712C5.39445 8.85712 5.71424 8.53732 5.71424 8.14284C5.71424 7.74835 5.39445 7.42855 4.99996 7.42855C4.60547 7.42855 4.28567 7.74835 4.28567 8.14284C4.28567 8.53732 4.60547 8.85712 4.99996 8.85712ZM2.85711 8.14284C2.85711 8.53732 2.53731 8.85712 2.14282 8.85712C1.74833 8.85712 1.42853 8.53732 1.42853 8.14284C1.42853 7.74835 1.74833 7.42855 2.14282 7.42855C2.53731 7.42855 2.85711 7.74835 2.85711 8.14284Z" fill="url(#paint0_linear_10_22)"/>
</g>
</g>
</g>
<defs>
<filter id="filter0_d_10_22" x="1.42853" y="1.71426" width="9.99994" height="9.28571" filterUnits="userSpaceOnUse" color-interpolation-filters="sRGB">
<feFlood flood-opacity="0" result="BackgroundImageFix"/>
<feColorMatrix in="SourceAlpha" type="matrix" values="0 0 0 0 0 0 0 0 0 0 0 0 0 0 0 0 0 0 127 0" result="hardAlpha"/>
<feOffset dy="2.14286"/>
<feColorMatrix type="matrix" values="0 0 0 0 0 0 0 0 0 0 0 0 0 0 0 0 0 0 0.06 0"/>
<feBlend mode="normal" in2="BackgroundImageFix" result="effect1_dropShadow_10_22"/>
<feBlend mode="normal" in="SourceGraphic" in2="effect1_dropShadow_10_22" result="shape"/>
</filter>
<linearGradient id="paint0_linear_10_22" x1="1.42853" y1="1.71426" x2="1.42853" y2="8.85711" gradientUnits="userSpaceOnUse">
<stop stop-color="white"/>
<stop offset="1" stop-color="#F0F0F0"/>
</linearGradient>
</defs>
</svg>
